<?xml version="1.0" encoding="UTF-8"?>
<svg xmlns="http://www.w3.org/2000/svg" xmlns:xlink="http://www.w3.org/1999/xlink" width="256px" height="93px" viewBox="0 0 254 93" version="1.1">
<defs>
<filter id="alpha" filterUnits="objectBoundingBox" x="0%" y="0%" width="100%" height="100%">
  <feColorMatrix type="matrix" in="SourceGraphic" values="0 0 0 0 1 0 0 0 0 1 0 0 0 0 1 0 0 0 1 0"/>
</filter>
<mask id="mask0">
  <g filter="url(#alpha)">
<rect x="0" y="0" width="254" height="93" style="fill:rgb(0%,0%,0%);fill-opacity:0.988235;stroke:none;"/>
  </g>
</mask>
<clipPath id="clip1">
  <rect x="0" y="0" width="254" height="93"/>
</clipPath>
<g id="surface5" clip-path="url(#clip1)">
<path style=" stroke:none;fill-rule:evenodd;fill:rgb(67.843139%,67.058825%,67.058825%);fill-opacity:1;" d="M 29.652344 16.503906 C 33.371094 16.605469 35.613281 18.472656 36.382812 22.113281 C 36.597656 25.984375 34.839844 28.410156 31.117188 29.398438 C 27.015625 29.710938 24.503906 27.863281 23.585938 23.851562 C 23.386719 20.621094 24.742188 18.332031 27.652344 16.96875 C 28.324219 16.757812 28.988281 16.605469 29.652344 16.503906 Z M 29.652344 16.503906 "/>
</g>
<mask id="mask1">
  <g filter="url(#alpha)">
<rect x="0" y="0" width="254" height="93" style="fill:rgb(0%,0%,0%);fill-opacity:0.988235;stroke:none;"/>
  </g>
</mask>
<clipPath id="clip2">
  <rect x="0" y="0" width="254" height="93"/>
</clipPath>
<g id="surface8" clip-path="url(#clip2)">
<path style=" stroke:none;fill-rule:evenodd;fill:rgb(67.843139%,67.058825%,67.058825%);fill-opacity:1;" d="M 38.980469 17.035156 C 42.222656 17.015625 45.464844 17.035156 48.707031 17.101562 C 49.1875 17.222656 49.523438 17.511719 49.707031 17.972656 C 49.796875 21.3125 49.796875 24.652344 49.707031 27.992188 C 49.660156 28.308594 49.507812 28.550781 49.242188 28.726562 C 45.742188 28.949219 42.234375 28.992188 38.714844 28.863281 C 38.523438 28.800781 38.367188 28.6875 38.246094 28.527344 C 38.027344 24.976562 37.984375 21.414062 38.113281 17.839844 C 38.304688 17.445312 38.59375 17.179688 38.980469 17.035156 Z M 38.980469 17.035156 "/>
</g>
<mask id="mask2">
  <g filter="url(#alpha)">
<rect x="0" y="0" width="254" height="93" style="fill:rgb(0%,0%,0%);fill-opacity:0.980392;stroke:none;"/>
  </g>
</mask>
<clipPath id="clip3">
  <rect x="0" y="0" width="254" height="93"/>
</clipPath>
<g id="surface11" clip-path="url(#clip3)">
<path style=" stroke:none;fill-rule:evenodd;fill:rgb(67.843139%,67.058825%,67.058825%);fill-opacity:1;" d="M 25.121094 30.933594 C 28.40625 30.910156 31.695312 30.933594 34.980469 31 C 35.292969 31.046875 35.539062 31.203125 35.714844 31.46875 C 35.933594 34.976562 35.976562 38.492188 35.847656 42.023438 C 35.742188 42.261719 35.589844 42.464844 35.382812 42.625 C 31.929688 42.84375 28.464844 42.890625 24.988281 42.757812 C 24.75 42.652344 24.546875 42.5 24.386719 42.289062 C 24.167969 38.785156 24.125 35.265625 24.253906 31.734375 C 24.445312 31.34375 24.734375 31.074219 25.121094 30.933594 Z M 25.121094 30.933594 "/>
</g>
<mask id="mask3">
  <g filter="url(#alpha)">
<rect x="0" y="0" width="254" height="93" style="fill:rgb(0%,0%,0%);fill-opacity:0.980392;stroke:none;"/>
  </g>
</mask>
<clipPath id="clip4">
  <rect x="0" y="0" width="254" height="93"/>
</clipPath>
<g id="surface14" clip-path="url(#clip4)">
<path style=" stroke:none;fill-rule:evenodd;fill:rgb(67.843139%,67.058825%,67.058825%);fill-opacity:1;" d="M 38.847656 30.933594 C 42.179688 30.910156 45.507812 30.933594 48.839844 31 C 49.308594 31.109375 49.597656 31.402344 49.707031 31.867188 C 49.796875 35.210938 49.796875 38.550781 49.707031 41.890625 C 49.601562 42.167969 49.445312 42.414062 49.242188 42.625 C 45.789062 42.84375 42.324219 42.890625 38.847656 42.757812 C 38.519531 42.65625 38.277344 42.457031 38.113281 42.15625 C 38.023438 38.640625 38.023438 35.121094 38.113281 31.601562 C 38.34375 31.347656 38.585938 31.125 38.847656 30.933594 Z M 38.847656 30.933594 "/>
</g>
<mask id="mask4">
  <g filter="url(#alpha)">
<rect x="0" y="0" width="254" height="93" style="fill:rgb(0%,0%,0%);fill-opacity:0.980392;stroke:none;"/>
  </g>
</mask>
<clipPath id="clip5">
  <rect x="0" y="0" width="254" height="93"/>
</clipPath>
<g id="surface17" clip-path="url(#clip5)">
<path style=" stroke:none;fill-rule:evenodd;fill:rgb(67.843139%,67.058825%,67.058825%);fill-opacity:1;" d="M 24.855469 44.964844 C 28.320312 44.941406 31.785156 44.964844 35.25 45.03125 C 35.402344 45.1875 35.558594 45.339844 35.714844 45.496094 C 35.933594 48.960938 35.976562 52.433594 35.847656 55.921875 C 35.742188 56.160156 35.589844 56.359375 35.382812 56.523438 C 31.96875 56.742188 28.550781 56.785156 25.121094 56.65625 C 24.808594 56.609375 24.5625 56.453125 24.386719 56.1875 C 24.167969 52.726562 24.125 49.25 24.253906 45.765625 C 24.382812 45.433594 24.585938 45.167969 24.855469 44.964844 Z M 24.855469 44.964844 "/>
</g>
<mask id="mask5">
  <g filter="url(#alpha)">
<rect x="0" y="0" width="254" height="93" style="fill:rgb(0%,0%,0%);fill-opacity:0.980392;stroke:none;"/>
  </g>
</mask>
<clipPath id="clip6">
  <rect x="0" y="0" width="254" height="93"/>
</clipPath>
<g id="surface20" clip-path="url(#clip6)">
<path style=" stroke:none;fill-rule:evenodd;fill:rgb(67.843139%,67.058825%,67.058825%);fill-opacity:1;" d="M 38.714844 44.964844 C 42.132812 44.941406 45.554688 44.964844 48.972656 45.03125 C 49.210938 45.136719 49.414062 45.289062 49.574219 45.496094 C 49.792969 48.917969 49.835938 52.347656 49.707031 55.785156 C 49.597656 56.253906 49.308594 56.542969 48.839844 56.65625 C 45.554688 56.746094 42.265625 56.746094 38.980469 56.65625 C 38.667969 56.609375 38.421875 56.453125 38.246094 56.1875 C 38.027344 52.679688 37.984375 49.160156 38.113281 45.632812 C 38.25 45.339844 38.449219 45.117188 38.714844 44.964844 Z M 38.714844 44.964844 "/>
</g>
<mask id="mask6">
  <g filter="url(#alpha)">
<rect x="0" y="0" width="254" height="93" style="fill:rgb(0%,0%,0%);fill-opacity:0.988235;stroke:none;"/>
  </g>
</mask>
<clipPath id="clip7">
  <rect x="0" y="0" width="254" height="93"/>
</clipPath>
<g id="surface23" clip-path="url(#clip7)">
<path style=" stroke:none;fill-rule:evenodd;fill:rgb(67.843139%,67.058825%,67.058825%);fill-opacity:1;" d="M 52.574219 44.964844 C 55.992188 44.941406 59.414062 44.964844 62.832031 45.03125 C 63.023438 45.089844 63.179688 45.203125 63.300781 45.363281 C 63.519531 48.914062 63.5625 52.480469 63.433594 56.054688 C 63.277344 56.210938 63.121094 56.363281 62.96875 56.523438 C 59.558594 56.742188 56.136719 56.785156 52.707031 56.65625 C 52.421875 56.503906 52.179688 56.304688 51.972656 56.054688 C 51.753906 52.71875 51.710938 49.378906 51.839844 46.03125 C 51.921875 45.550781 52.167969 45.191406 52.574219 44.964844 Z M 52.574219 44.964844 "/>
</g>
<mask id="mask7">
  <g filter="url(#alpha)">
<rect x="0" y="0" width="254" height="93" style="fill:rgb(0%,0%,0%);fill-opacity:0.988235;stroke:none;"/>
  </g>
</mask>
<clipPath id="clip8">
  <rect x="0" y="0" width="254" height="93"/>
</clipPath>
<g id="surface26" clip-path="url(#clip8)">
<path style=" stroke:none;fill-rule:evenodd;fill:rgb(67.843139%,67.058825%,67.058825%);fill-opacity:1;" d="M 24.855469 58.859375 C 28.320312 58.835938 31.785156 58.859375 35.25 58.925781 C 35.554688 59.074219 35.757812 59.320312 35.847656 59.660156 C 35.9375 63.003906 35.9375 66.34375 35.847656 69.683594 C 35.683594 70.246094 35.308594 70.535156 34.714844 70.550781 C 31.605469 70.640625 28.496094 70.640625 25.386719 70.550781 C 24.992188 70.519531 24.660156 70.363281 24.386719 70.085938 C 24.167969 66.578125 24.125 63.058594 24.253906 59.527344 C 24.390625 59.234375 24.589844 59.011719 24.855469 58.859375 Z M 24.855469 58.859375 "/>
</g>
<mask id="mask8">
  <g filter="url(#alpha)">
<rect x="0" y="0" width="254" height="93" style="fill:rgb(0%,0%,0%);fill-opacity:0.988235;stroke:none;"/>
  </g>
</mask>
<clipPath id="clip9">
  <rect x="0" y="0" width="254" height="93"/>
</clipPath>
<g id="surface29" clip-path="url(#clip9)">
<path style=" stroke:none;fill-rule:evenodd;fill:rgb(67.843139%,67.058825%,67.058825%);fill-opacity:1;" d="M 38.714844 58.859375 C 42.179688 58.835938 45.644531 58.859375 49.109375 58.925781 C 49.261719 59.082031 49.417969 59.238281 49.574219 59.394531 C 49.792969 62.769531 49.835938 66.15625 49.707031 69.550781 C 49.617188 69.910156 49.414062 70.199219 49.109375 70.417969 C 45.78125 70.636719 42.449219 70.679688 39.113281 70.550781 C 38.777344 70.480469 38.488281 70.328125 38.246094 70.085938 C 38.027344 66.578125 37.984375 63.058594 38.113281 59.527344 C 38.25 59.234375 38.449219 59.011719 38.714844 58.859375 Z M 38.714844 58.859375 "/>
</g>
<mask id="mask9">
  <g filter="url(#alpha)">
<rect x="0" y="0" width="254" height="93" style="fill:rgb(0%,0%,0%);fill-opacity:0.960784;stroke:none;"/>
  </g>
</mask>
<clipPath id="clip10">
  <rect x="0" y="0" width="254" height="93"/>
</clipPath>
<g id="surface32" clip-path="url(#clip10)">
<path style=" stroke:none;fill-rule:evenodd;fill:rgb(67.843139%,67.058825%,67.058825%);fill-opacity:1;" d="M 92.550781 30.664062 C 94.066406 30.578125 95.488281 30.890625 96.816406 31.601562 C 96.589844 32.222656 96.320312 32.824219 96.015625 33.40625 C 95.121094 33.183594 94.210938 32.980469 93.285156 32.804688 C 91.859375 33.054688 91.570312 33.746094 92.417969 34.875 C 93.898438 35.449219 95.207031 36.273438 96.347656 37.347656 C 97.488281 40.800781 96.222656 42.582031 92.550781 42.691406 C 91.441406 42.664062 90.375 42.441406 89.351562 42.023438 C 89.21875 41.226562 89.175781 40.425781 89.21875 39.617188 C 90.359375 40.050781 91.539062 40.363281 92.75 40.554688 C 94.054688 40.5 94.5 39.875 94.082031 38.683594 C 92.917969 37.976562 91.738281 37.285156 90.550781 36.613281 C 89.222656 35.230469 89.023438 33.695312 89.953125 32.003906 C 90.675781 31.25 91.542969 30.804688 92.550781 30.664062 Z M 92.550781 30.664062 "/>
</g>
<mask id="mask10">
  <g filter="url(#alpha)">
<rect x="0" y="0" width="254" height="93" style="fill:rgb(0%,0%,0%);fill-opacity:0.960784;stroke:none;"/>
  </g>
</mask>
<clipPath id="clip11">
  <rect x="0" y="0" width="254" height="93"/>
</clipPath>
<g id="surface35" clip-path="url(#clip11)">
<path style=" stroke:none;fill-rule:evenodd;fill:rgb(67.843139%,67.058825%,67.058825%);fill-opacity:1;" d="M 148.523438 30.664062 C 152.878906 30.3125 155.054688 32.316406 155.050781 36.679688 C 155.121094 40.460938 153.277344 42.464844 149.523438 42.691406 C 145.738281 42.460938 143.894531 40.433594 143.992188 36.613281 C 143.890625 33.347656 145.402344 31.363281 148.523438 30.664062 Z M 149.1875 32.804688 C 151.027344 32.753906 152.070312 33.648438 152.320312 35.476562 C 152.609375 37.050781 152.320312 38.5 151.453125 39.820312 C 148.394531 41.109375 146.796875 40.0625 146.65625 36.679688 C 146.605469 35.335938 147.050781 34.203125 147.988281 33.273438 C 148.382812 33.058594 148.785156 32.902344 149.1875 32.804688 Z M 149.1875 32.804688 "/>
</g>
<mask id="mask11">
  <g filter="url(#alpha)">
<rect x="0" y="0" width="254" height="93" style="fill:rgb(0%,0%,0%);fill-opacity:0.960784;stroke:none;"/>
  </g>
</mask>
<clipPath id="clip12">
  <rect x="0" y="0" width="254" height="93"/>
</clipPath>
<g id="surface38" clip-path="url(#clip12)">
<path style=" stroke:none;fill-rule:evenodd;fill:rgb(67.843139%,67.058825%,67.058825%);fill-opacity:1;" d="M 200.363281 30.800781 C 202.097656 30.761719 203.832031 30.832031 205.558594 31 C 207.945312 31.574219 208.855469 33.066406 208.289062 35.476562 C 207.878906 36.335938 207.277344 37.023438 206.492188 37.546875 C 207.519531 39.136719 208.5625 40.71875 209.625 42.289062 C 211.015625 38.523438 212.371094 34.738281 213.6875 30.933594 C 214.753906 30.753906 215.820312 30.753906 216.886719 30.933594 C 218.273438 34.792969 219.605469 38.667969 220.882812 42.558594 C 219.996094 42.582031 219.105469 42.558594 218.21875 42.492188 C 217.929688 41.59375 217.617188 40.703125 217.285156 39.820312 C 215.953125 39.730469 214.621094 39.730469 213.289062 39.820312 C 212.953125 40.710938 212.6875 41.625 212.488281 42.558594 C 210.621094 42.582031 208.757812 42.558594 206.890625 42.492188 C 205.964844 41.054688 205.054688 39.609375 204.160156 38.148438 C 203.75 38.023438 203.332031 37.976562 202.894531 38.015625 C 202.894531 39.527344 202.894531 41.042969 202.894531 42.558594 C 202.050781 42.558594 201.203125 42.558594 200.363281 42.558594 C 200.363281 38.640625 200.363281 34.71875 200.363281 30.800781 Z M 202.894531 32.9375 C 203.566406 32.929688 204.234375 32.996094 204.890625 33.136719 C 205.539062 33.316406 205.847656 33.738281 205.824219 34.40625 C 205.828125 35.09375 205.515625 35.5625 204.890625 35.808594 C 204.234375 35.949219 203.566406 36.015625 202.894531 36.011719 C 202.894531 34.984375 202.894531 33.960938 202.894531 32.9375 Z M 215.152344 33.203125 C 215.285156 33.199219 215.375 33.265625 215.421875 33.40625 C 215.839844 34.796875 216.28125 36.179688 216.753906 37.546875 C 215.820312 37.613281 214.886719 37.636719 213.953125 37.613281 C 214.382812 36.152344 214.78125 34.679688 215.152344 33.203125 Z M 215.152344 33.203125 "/>
</g>
<mask id="mask12">
  <g filter="url(#alpha)">
<rect x="0" y="0" width="254" height="93" style="fill:rgb(0%,0%,0%);fill-opacity:0.94902;stroke:none;"/>
  </g>
</mask>
<clipPath id="clip13">
  <rect x="0" y="0" width="254" height="93"/>
</clipPath>
<g id="surface41" clip-path="url(#clip13)">
<path style=" stroke:none;fill-rule:evenodd;fill:rgb(67.843139%,67.058825%,67.058825%);fill-opacity:1;" d="M 76.828125 30.800781 C 77.925781 30.757812 79.015625 30.800781 80.089844 30.933594 C 81.691406 33.695312 83.289062 36.457031 84.890625 39.21875 C 84.84375 36.414062 84.824219 33.605469 84.820312 30.800781 C 85.621094 30.800781 86.421875 30.800781 87.222656 30.800781 C 87.222656 34.71875 87.222656 38.640625 87.222656 42.558594 C 86.152344 42.582031 85.085938 42.558594 84.023438 42.492188 C 82.382812 39.71875 80.761719 36.933594 79.160156 34.140625 C 79.195312 36.945312 79.21875 39.75 79.226562 42.558594 C 78.425781 42.558594 77.625 42.558594 76.828125 42.558594 C 76.828125 38.640625 76.828125 34.71875 76.828125 30.800781 Z M 76.828125 30.800781 "/>
</g>
<mask id="mask13">
  <g filter="url(#alpha)">
<rect x="0" y="0" width="254" height="93" style="fill:rgb(0%,0%,0%);fill-opacity:0.968627;stroke:none;"/>
  </g>
</mask>
<clipPath id="clip14">
  <rect x="0" y="0" width="254" height="93"/>
</clipPath>
<g id="surface44" clip-path="url(#clip14)">
<path style=" stroke:none;fill-rule:evenodd;fill:rgb(67.843139%,67.058825%,67.058825%);fill-opacity:1;" d="M 97.75 30.800781 C 100.679688 30.800781 103.613281 30.800781 106.542969 30.800781 C 106.542969 31.558594 106.542969 32.3125 106.542969 33.070312 C 105.523438 33.070312 104.5 33.070312 103.480469 33.070312 C 103.480469 36.234375 103.480469 39.394531 103.480469 42.558594 C 102.636719 42.558594 101.789062 42.558594 100.945312 42.558594 C 100.945312 39.394531 100.945312 36.234375 100.945312 33.070312 C 99.882812 33.070312 98.816406 33.070312 97.75 33.070312 C 97.75 32.3125 97.75 31.558594 97.75 30.800781 Z M 97.75 30.800781 "/>
</g>
<mask id="mask14">
  <g filter="url(#alpha)">
<rect x="0" y="0" width="254" height="93" style="fill:rgb(0%,0%,0%);fill-opacity:0.960784;stroke:none;"/>
  </g>
</mask>
<clipPath id="clip15">
  <rect x="0" y="0" width="254" height="93"/>
</clipPath>
<g id="surface47" clip-path="url(#clip15)">
<path style=" stroke:none;fill-rule:evenodd;fill:rgb(67.843139%,67.058825%,67.058825%);fill-opacity:1;" d="M 108.277344 30.800781 C 109.121094 30.800781 109.964844 30.800781 110.808594 30.800781 C 110.808594 34.71875 110.808594 38.640625 110.808594 42.558594 C 109.964844 42.558594 109.121094 42.558594 108.277344 42.558594 C 108.277344 38.640625 108.277344 34.71875 108.277344 30.800781 Z M 108.277344 30.800781 "/>
</g>
<mask id="mask15">
  <g filter="url(#alpha)">
<rect x="0" y="0" width="254" height="93" style="fill:rgb(0%,0%,0%);fill-opacity:0.968627;stroke:none;"/>
  </g>
</mask>
<clipPath id="clip16">
  <rect x="0" y="0" width="254" height="93"/>
</clipPath>
<g id="surface50" clip-path="url(#clip16)">
<path style=" stroke:none;fill-rule:evenodd;fill:rgb(67.843139%,67.058825%,67.058825%);fill-opacity:1;" d="M 112.40625 30.800781 C 115.339844 30.800781 118.269531 30.800781 121.203125 30.800781 C 121.203125 31.558594 121.203125 32.3125 121.203125 33.070312 C 120.179688 33.070312 119.160156 33.070312 118.136719 33.070312 C 118.136719 36.234375 118.136719 39.394531 118.136719 42.558594 C 117.292969 42.558594 116.449219 42.558594 115.605469 42.558594 C 115.605469 39.394531 115.605469 36.234375 115.605469 33.070312 C 114.539062 33.070312 113.472656 33.070312 112.40625 33.070312 C 112.40625 32.3125 112.40625 31.558594 112.40625 30.800781 Z M 112.40625 30.800781 "/>
</g>
<mask id="mask16">
  <g filter="url(#alpha)">
<rect x="0" y="0" width="254" height="93" style="fill:rgb(0%,0%,0%);fill-opacity:0.968627;stroke:none;"/>
  </g>
</mask>
<clipPath id="clip17">
  <rect x="0" y="0" width="254" height="93"/>
</clipPath>
<g id="surface53" clip-path="url(#clip17)">
<path style=" stroke:none;fill-rule:evenodd;fill:rgb(67.843139%,67.058825%,67.058825%);fill-opacity:1;" d="M 122.933594 30.800781 C 123.777344 30.800781 124.625 30.800781 125.46875 30.800781 C 125.445312 33.429688 125.46875 36.054688 125.535156 38.683594 C 125.730469 39.902344 126.4375 40.480469 127.667969 40.421875 C 128.746094 40.546875 129.457031 40.101562 129.796875 39.085938 C 129.863281 36.324219 129.886719 33.5625 129.863281 30.800781 C 130.753906 30.800781 131.640625 30.800781 132.53125 30.800781 C 132.554688 33.515625 132.53125 36.234375 132.464844 38.949219 C 132.207031 40.898438 131.121094 42.082031 129.199219 42.492188 C 127.253906 42.933594 125.5 42.558594 123.933594 41.355469 C 123.445312 40.773438 123.132812 40.105469 123.003906 39.351562 C 122.933594 36.5 122.914062 33.652344 122.933594 30.800781 Z M 122.933594 30.800781 "/>
</g>
<mask id="mask17">
  <g filter="url(#alpha)">
<rect x="0" y="0" width="254" height="93" style="fill:rgb(0%,0%,0%);fill-opacity:0.980392;stroke:none;"/>
  </g>
</mask>
<clipPath id="clip18">
  <rect x="0" y="0" width="254" height="93"/>
</clipPath>
<g id="surface56" clip-path="url(#clip18)">
<path style=" stroke:none;fill-rule:evenodd;fill:rgb(67.843139%,67.058825%,67.058825%);fill-opacity:1;" d="M 133.996094 30.800781 C 136.929688 30.800781 139.859375 30.800781 142.792969 30.800781 C 142.792969 31.558594 142.792969 32.3125 142.792969 33.070312 C 141.769531 33.070312 140.75 33.070312 139.726562 33.070312 C 139.726562 36.234375 139.726562 39.394531 139.726562 42.558594 C 138.882812 42.558594 138.039062 42.558594 137.195312 42.558594 C 137.195312 39.394531 137.195312 36.234375 137.195312 33.070312 C 136.128906 33.070312 135.0625 33.070312 133.996094 33.070312 C 133.996094 32.3125 133.996094 31.558594 133.996094 30.800781 Z M 133.996094 30.800781 "/>
</g>
<mask id="mask18">
  <g filter="url(#alpha)">
<rect x="0" y="0" width="254" height="93" style="fill:rgb(0%,0%,0%);fill-opacity:0.988235;stroke:none;"/>
  </g>
</mask>
<clipPath id="clip19">
  <rect x="0" y="0" width="254" height="93"/>
</clipPath>
<g id="surface59" clip-path="url(#clip19)">
<path style=" stroke:none;fill-rule:evenodd;fill:rgb(67.843139%,67.058825%,67.058825%);fill-opacity:1;" d="M 161.582031 30.800781 C 163.804688 30.800781 166.023438 30.800781 168.246094 30.800781 C 168.246094 31.511719 168.246094 32.226562 168.246094 32.9375 C 166.867188 32.9375 165.492188 32.9375 164.113281 32.9375 C 164.113281 33.917969 164.113281 34.898438 164.113281 35.878906 C 165.402344 35.878906 166.691406 35.878906 167.976562 35.878906 C 167.976562 36.546875 167.976562 37.214844 167.976562 37.882812 C 166.691406 37.882812 165.402344 37.882812 164.113281 37.882812 C 164.113281 39.441406 164.113281 41 164.113281 42.558594 C 163.269531 42.558594 162.425781 42.558594 161.582031 42.558594 C 161.582031 38.640625 161.582031 34.71875 161.582031 30.800781 Z M 161.582031 30.800781 "/>
</g>
<mask id="mask19">
  <g filter="url(#alpha)">
<rect x="0" y="0" width="254" height="93" style="fill:rgb(0%,0%,0%);fill-opacity:0.960784;stroke:none;"/>
  </g>
</mask>
<clipPath id="clip20">
  <rect x="0" y="0" width="254" height="93"/>
</clipPath>
<g id="surface62" clip-path="url(#clip20)">
<path style=" stroke:none;fill-rule:evenodd;fill:rgb(67.843139%,67.058825%,67.058825%);fill-opacity:1;" d="M 170.378906 30.800781 C 172.644531 30.800781 174.90625 30.800781 177.171875 30.800781 C 177.171875 31.511719 177.171875 32.226562 177.171875 32.9375 C 175.796875 32.9375 174.417969 32.9375 173.042969 32.9375 C 173.042969 33.738281 173.042969 34.539062 173.042969 35.34375 C 174.332031 35.34375 175.617188 35.34375 176.90625 35.34375 C 176.90625 36.054688 176.90625 36.769531 176.90625 37.480469 C 175.617188 37.480469 174.332031 37.480469 173.042969 37.480469 C 173.042969 38.414062 173.042969 39.351562 173.042969 40.285156 C 174.417969 40.285156 175.796875 40.285156 177.171875 40.285156 C 177.171875 41.042969 177.171875 41.800781 177.171875 42.558594 C 174.90625 42.558594 172.644531 42.558594 170.378906 42.558594 C 170.378906 38.640625 170.378906 34.71875 170.378906 30.800781 Z M 170.378906 30.800781 "/>
</g>
<mask id="mask20">
  <g filter="url(#alpha)">
<rect x="0" y="0" width="254" height="93" style="fill:rgb(0%,0%,0%);fill-opacity:0.968627;stroke:none;"/>
  </g>
</mask>
<clipPath id="clip21">
  <rect x="0" y="0" width="254" height="93"/>
</clipPath>
<g id="surface65" clip-path="url(#clip21)">
<path style=" stroke:none;fill-rule:evenodd;fill:rgb(67.843139%,67.058825%,67.058825%);fill-opacity:1;" d="M 179.4375 30.800781 C 181.222656 30.757812 182.996094 30.824219 184.769531 31 C 187.644531 31.699219 189.109375 33.546875 189.167969 36.546875 C 189.199219 39.785156 187.644531 41.722656 184.503906 42.359375 C 182.820312 42.527344 181.132812 42.59375 179.4375 42.558594 C 179.4375 38.640625 179.4375 34.71875 179.4375 30.800781 Z M 181.972656 32.9375 C 184.855469 32.554688 186.367188 33.800781 186.503906 36.679688 C 186.320312 39.535156 184.808594 40.738281 181.972656 40.285156 C 181.972656 37.835938 181.972656 35.386719 181.972656 32.9375 Z M 181.972656 32.9375 "/>
</g>
<mask id="mask21">
  <g filter="url(#alpha)">
<rect x="0" y="0" width="254" height="93" style="fill:rgb(0%,0%,0%);fill-opacity:0.980392;stroke:none;"/>
  </g>
</mask>
<clipPath id="clip22">
  <rect x="0" y="0" width="254" height="93"/>
</clipPath>
<g id="surface68" clip-path="url(#clip22)">
<path style=" stroke:none;fill-rule:evenodd;fill:rgb(67.843139%,67.058825%,67.058825%);fill-opacity:1;" d="M 191.300781 30.800781 C 193.566406 30.800781 195.832031 30.800781 198.097656 30.800781 C 198.097656 31.511719 198.097656 32.226562 198.097656 32.9375 C 196.71875 32.9375 195.339844 32.9375 193.964844 32.9375 C 193.964844 33.738281 193.964844 34.539062 193.964844 35.34375 C 195.253906 35.34375 196.539062 35.34375 197.828125 35.34375 C 197.828125 36.054688 197.828125 36.769531 197.828125 37.480469 C 196.539062 37.480469 195.253906 37.480469 193.964844 37.480469 C 193.964844 38.414062 193.964844 39.351562 193.964844 40.285156 C 195.339844 40.285156 196.71875 40.285156 198.097656 40.285156 C 198.097656 41.042969 198.097656 41.800781 198.097656 42.558594 C 195.832031 42.558594 193.566406 42.558594 191.300781 42.558594 C 191.300781 38.640625 191.300781 34.71875 191.300781 30.800781 Z M 191.300781 30.800781 "/>
</g>
<mask id="mask22">
  <g filter="url(#alpha)">
<rect x="0" y="0" width="254" height="93" style="fill:rgb(0%,0%,0%);fill-opacity:0.968627;stroke:none;"/>
  </g>
</mask>
<clipPath id="clip23">
  <rect x="0" y="0" width="254" height="93"/>
</clipPath>
<g id="surface71" clip-path="url(#clip23)">
<path style=" stroke:none;fill-rule:evenodd;fill:rgb(67.843139%,67.058825%,67.058825%);fill-opacity:1;" d="M 222.214844 30.800781 C 223.058594 30.800781 223.90625 30.800781 224.75 30.800781 C 224.75 33.960938 224.75 37.125 224.75 40.285156 C 226.304688 40.285156 227.859375 40.285156 229.414062 40.285156 C 229.414062 41.042969 229.414062 41.800781 229.414062 42.558594 C 227.015625 42.558594 224.617188 42.558594 222.214844 42.558594 C 222.214844 38.640625 222.214844 34.71875 222.214844 30.800781 Z M 222.214844 30.800781 "/>
</g>
<mask id="mask23">
  <g filter="url(#alpha)">
<rect x="0" y="0" width="254" height="93" style="fill:rgb(0%,0%,0%);fill-opacity:0.898039;stroke:none;"/>
  </g>
</mask>
<clipPath id="clip24">
  <rect x="0" y="0" width="254" height="93"/>
</clipPath>
<g id="surface74" clip-path="url(#clip24)">
<path style=" stroke:none;fill-rule:evenodd;fill:rgb(67.843139%,67.058825%,67.058825%);fill-opacity:1;" d="M 100.414062 47.234375 C 100.867188 47.191406 101.3125 47.234375 101.746094 47.367188 C 101.28125 47.988281 100.796875 48.589844 100.28125 49.171875 C 99.945312 49.339844 99.589844 49.40625 99.214844 49.371094 C 99.542969 48.625 99.941406 47.914062 100.414062 47.234375 Z M 100.414062 47.234375 "/>
</g>
<mask id="mask24">
  <g filter="url(#alpha)">
<rect x="0" y="0" width="254" height="93" style="fill:rgb(0%,0%,0%);fill-opacity:0.921569;stroke:none;"/>
  </g>
</mask>
<clipPath id="clip25">
  <rect x="0" y="0" width="254" height="93"/>
</clipPath>
<g id="surface77" clip-path="url(#clip25)">
<path style=" stroke:none;fill-rule:evenodd;fill:rgb(67.843139%,67.058825%,67.058825%);fill-opacity:1;" d="M 74.695312 47.769531 C 75.707031 47.710938 76.683594 47.867188 77.625 48.238281 C 77.777344 48.671875 77.644531 49.003906 77.226562 49.238281 C 74.28125 48.25 72.640625 49.296875 72.296875 52.378906 C 72.3125 53.449219 72.664062 54.386719 73.363281 55.183594 C 73.679688 55.433594 74.035156 55.613281 74.425781 55.71875 C 75.460938 55.828125 76.484375 55.761719 77.492188 55.519531 C 77.492188 55.875 77.492188 56.230469 77.492188 56.589844 C 75.777344 57.074219 74.136719 56.917969 72.5625 56.121094 C 71.527344 55.097656 71.039062 53.851562 71.097656 52.378906 C 71.101562 49.859375 72.300781 48.324219 74.695312 47.769531 Z M 74.695312 47.769531 "/>
</g>
<mask id="mask25">
  <g filter="url(#alpha)">
<rect x="0" y="0" width="254" height="93" style="fill:rgb(0%,0%,0%);fill-opacity:0.909804;stroke:none;"/>
  </g>
</mask>
<clipPath id="clip26">
  <rect x="0" y="0" width="254" height="93"/>
</clipPath>
<g id="surface80" clip-path="url(#clip26)">
<path style=" stroke:none;fill-rule:evenodd;fill:rgb(67.843139%,67.058825%,67.058825%);fill-opacity:1;" d="M 80.691406 50.039062 C 83.324219 49.785156 84.566406 50.988281 84.421875 53.648438 C 82.914062 53.648438 81.402344 53.648438 79.890625 53.648438 C 79.960938 55.011719 80.671875 55.769531 82.023438 55.921875 C 82.71875 55.84375 83.386719 55.664062 84.023438 55.386719 C 84.222656 55.804688 84.175781 56.183594 83.890625 56.523438 C 82.792969 56.910156 81.683594 56.953125 80.558594 56.65625 C 79.289062 55.980469 78.664062 54.910156 78.691406 53.449219 C 78.699219 51.894531 79.367188 50.757812 80.691406 50.039062 Z M 81.089844 50.976562 C 82.429688 50.800781 83.140625 51.378906 83.222656 52.714844 C 82.113281 52.734375 81 52.714844 79.890625 52.648438 C 80.070312 51.914062 80.46875 51.355469 81.089844 50.976562 Z M 81.089844 50.976562 "/>
</g>
<mask id="mask26">
  <g filter="url(#alpha)">
<rect x="0" y="0" width="254" height="93" style="fill:rgb(0%,0%,0%);fill-opacity:0.898039;stroke:none;"/>
  </g>
</mask>
<clipPath id="clip27">
  <rect x="0" y="0" width="254" height="93"/>
</clipPath>
<g id="surface83" clip-path="url(#clip27)">
<path style=" stroke:none;fill-rule:evenodd;fill:rgb(67.843139%,67.058825%,67.058825%);fill-opacity:1;" d="M 87.355469 50.039062 C 88.066406 50.019531 88.777344 50.039062 89.488281 50.109375 C 90.269531 50.316406 90.691406 50.828125 90.753906 51.644531 C 90.820312 53.335938 90.839844 55.027344 90.820312 56.722656 C 90.507812 56.722656 90.195312 56.722656 89.886719 56.722656 C 89.921875 56.464844 89.855469 56.242188 89.6875 56.054688 C 88.71875 56.863281 87.632812 57.066406 86.421875 56.65625 C 85.761719 56.269531 85.449219 55.691406 85.488281 54.917969 C 85.449219 54.144531 85.761719 53.566406 86.421875 53.179688 C 87.503906 52.820312 88.613281 52.664062 89.753906 52.714844 C 89.773438 51.242188 89.0625 50.6875 87.621094 51.042969 C 87.308594 51.15625 87 51.265625 86.6875 51.378906 C 86.355469 51.203125 86.203125 50.9375 86.222656 50.574219 C 86.605469 50.382812 86.980469 50.203125 87.355469 50.039062 Z M 88.953125 53.515625 C 89.175781 53.515625 89.398438 53.515625 89.621094 53.515625 C 89.859375 54.921875 89.28125 55.722656 87.886719 55.921875 C 86.8125 55.859375 86.4375 55.324219 86.753906 54.316406 C 86.914062 54.109375 87.117188 53.953125 87.355469 53.847656 C 87.902344 53.722656 88.433594 53.609375 88.953125 53.515625 Z M 88.953125 53.515625 "/>
</g>
<mask id="mask27">
  <g filter="url(#alpha)">
<rect x="0" y="0" width="254" height="93" style="fill:rgb(0%,0%,0%);fill-opacity:0.898039;stroke:none;"/>
  </g>
</mask>
<clipPath id="clip28">
  <rect x="0" y="0" width="254" height="93"/>
</clipPath>
<g id="surface86" clip-path="url(#clip28)">
<path style=" stroke:none;fill-rule:evenodd;fill:rgb(67.843139%,67.058825%,67.058825%);fill-opacity:1;" d="M 92.683594 50.039062 C 92.996094 50.039062 93.308594 50.039062 93.617188 50.039062 C 93.675781 50.398438 93.742188 50.753906 93.816406 51.109375 C 94.460938 50.121094 95.375 49.765625 96.550781 50.039062 C 96.578125 50.363281 96.53125 50.675781 96.417969 50.976562 C 95.417969 50.828125 94.640625 51.183594 94.082031 52.046875 C 93.890625 53.59375 93.824219 55.152344 93.882812 56.722656 C 93.484375 56.722656 93.085938 56.722656 92.683594 56.722656 C 92.683594 54.496094 92.683594 52.269531 92.683594 50.039062 Z M 92.683594 50.039062 "/>
</g>
<mask id="mask28">
  <g filter="url(#alpha)">
<rect x="0" y="0" width="254" height="93" style="fill:rgb(0%,0%,0%);fill-opacity:0.909804;stroke:none;"/>
  </g>
</mask>
<clipPath id="clip29">
  <rect x="0" y="0" width="254" height="93"/>
</clipPath>
<g id="surface89" clip-path="url(#clip29)">
<path style=" stroke:none;fill-rule:evenodd;fill:rgb(67.843139%,67.058825%,67.058825%);fill-opacity:1;" d="M 99.082031 50.039062 C 99.792969 50.019531 100.503906 50.039062 101.214844 50.109375 C 101.953125 50.277344 102.375 50.742188 102.480469 51.511719 C 102.546875 53.246094 102.570312 54.984375 102.546875 56.722656 C 102.234375 56.722656 101.925781 56.722656 101.613281 56.722656 C 101.648438 56.464844 101.582031 56.242188 101.414062 56.054688 C 100.449219 56.863281 99.359375 57.066406 98.148438 56.65625 C 97.269531 56.058594 96.984375 55.234375 97.28125 54.183594 C 97.617188 53.488281 98.171875 53.066406 98.949219 52.914062 C 99.785156 52.765625 100.628906 52.699219 101.480469 52.714844 C 101.5 51.242188 100.789062 50.6875 99.347656 51.042969 C 99.035156 51.15625 98.726562 51.265625 98.414062 51.378906 C 98.132812 51.21875 97.953125 50.972656 97.882812 50.640625 C 98.273438 50.402344 98.671875 50.203125 99.082031 50.039062 Z M 100.679688 53.515625 C 100.945312 53.515625 101.214844 53.515625 101.480469 53.515625 C 101.597656 54.910156 100.976562 55.710938 99.613281 55.921875 C 98.550781 55.886719 98.175781 55.351562 98.480469 54.316406 C 98.644531 54.109375 98.84375 53.953125 99.082031 53.847656 C 99.628906 53.722656 100.160156 53.609375 100.679688 53.515625 Z M 100.679688 53.515625 "/>
</g>
<mask id="mask29">
  <g filter="url(#alpha)">
<rect x="0" y="0" width="254" height="93" style="fill:rgb(0%,0%,0%);fill-opacity:0.921569;stroke:none;"/>
  </g>
</mask>
<clipPath id="clip30">
  <rect x="0" y="0" width="254" height="93"/>
</clipPath>
<g id="surface92" clip-path="url(#clip30)">
<path style=" stroke:none;fill-rule:evenodd;fill:rgb(67.843139%,67.058825%,67.058825%);fill-opacity:1;" d="M 160.117188 62.335938 C 160.515625 62.335938 160.914062 62.335938 161.316406 62.335938 C 161.316406 65.140625 161.316406 67.945312 161.316406 70.753906 C 160.960938 70.753906 160.605469 70.753906 160.25 70.753906 C 160.269531 70.480469 160.25 70.214844 160.183594 69.949219 C 159.238281 70.980469 158.148438 71.136719 156.917969 70.417969 C 155.695312 69 155.539062 67.464844 156.453125 65.808594 C 157.21875 64.933594 158.171875 64.644531 159.316406 64.941406 C 159.59375 65.046875 159.839844 65.203125 160.050781 65.40625 C 160.117188 64.382812 160.136719 63.359375 160.117188 62.335938 Z M 158.117188 65.808594 C 159 65.636719 159.644531 65.949219 160.050781 66.742188 C 160.164062 67.554688 160.121094 68.359375 159.917969 69.148438 C 159.054688 70.035156 158.210938 70.035156 157.382812 69.148438 C 156.777344 67.824219 157.019531 66.710938 158.117188 65.808594 Z M 158.117188 65.808594 "/>
</g>
<mask id="mask30">
  <g filter="url(#alpha)">
<rect x="0" y="0" width="254" height="93" style="fill:rgb(0%,0%,0%);fill-opacity:0.921569;stroke:none;"/>
  </g>
</mask>
<clipPath id="clip31">
  <rect x="0" y="0" width="254" height="93"/>
</clipPath>
<g id="surface95" clip-path="url(#clip31)">
<path style=" stroke:none;fill-rule:evenodd;fill:rgb(67.843139%,67.058825%,67.058825%);fill-opacity:1;" d="M 74.828125 62.601562 C 75.777344 62.558594 76.710938 62.648438 77.625 62.867188 C 77.597656 63.253906 77.484375 63.613281 77.292969 63.9375 C 76.128906 63.367188 74.996094 63.433594 73.894531 64.136719 C 72.769531 65.3125 72.480469 66.671875 73.027344 68.214844 C 73.5625 69.328125 74.453125 69.863281 75.695312 69.816406 C 76.304688 69.800781 76.90625 69.714844 77.492188 69.550781 C 77.566406 69.875 77.566406 70.1875 77.492188 70.484375 C 75.585938 71.191406 73.875 70.882812 72.363281 69.550781 C 71.414062 68.015625 71.28125 66.414062 71.960938 64.738281 C 72.625 63.617188 73.578125 62.90625 74.828125 62.601562 Z M 74.828125 62.601562 "/>
</g>
<mask id="mask31">
  <g filter="url(#alpha)">
<rect x="0" y="0" width="254" height="93" style="fill:rgb(0%,0%,0%);fill-opacity:0.898039;stroke:none;"/>
  </g>
</mask>
<clipPath id="clip32">
  <rect x="0" y="0" width="254" height="93"/>
</clipPath>
<g id="surface98" clip-path="url(#clip32)">
<path style=" stroke:none;fill-rule:evenodd;fill:rgb(67.843139%,67.058825%,67.058825%);fill-opacity:1;" d="M 115.605469 62.734375 C 116.003906 62.734375 116.40625 62.734375 116.804688 62.734375 C 116.863281 64.96875 116.796875 67.195312 116.605469 69.414062 C 116.210938 70.429688 115.457031 70.921875 114.339844 70.886719 C 113.273438 71 112.984375 70.597656 113.472656 69.683594 C 114.210938 69.949219 114.855469 69.816406 115.40625 69.28125 C 115.449219 69.148438 115.496094 69.015625 115.539062 68.882812 C 115.605469 66.832031 115.628906 64.785156 115.605469 62.734375 Z M 115.605469 62.734375 "/>
</g>
<mask id="mask32">
  <g filter="url(#alpha)">
<rect x="0" y="0" width="254" height="93" style="fill:rgb(0%,0%,0%);fill-opacity:0.898039;stroke:none;"/>
  </g>
</mask>
<clipPath id="clip33">
  <rect x="0" y="0" width="254" height="93"/>
</clipPath>
<g id="surface101" clip-path="url(#clip33)">
<path style=" stroke:none;fill-rule:evenodd;fill:rgb(67.843139%,67.058825%,67.058825%);fill-opacity:1;" d="M 141.191406 62.734375 C 142.152344 62.628906 142.464844 63.027344 142.125 63.9375 C 140.964844 64.199219 140.652344 63.796875 141.191406 62.734375 Z M 141.191406 62.734375 "/>
</g>
<mask id="mask33">
  <g filter="url(#alpha)">
<rect x="0" y="0" width="254" height="93" style="fill:rgb(0%,0%,0%);fill-opacity:0.909804;stroke:none;"/>
  </g>
</mask>
<clipPath id="clip34">
  <rect x="0" y="0" width="254" height="93"/>
</clipPath>
<g id="surface104" clip-path="url(#clip34)">
<path style=" stroke:none;fill-rule:evenodd;fill:rgb(67.843139%,67.058825%,67.058825%);fill-opacity:1;" d="M 171.710938 62.734375 C 172.164062 62.691406 172.605469 62.734375 173.042969 62.867188 C 174.332031 64.828125 175.554688 66.832031 176.707031 68.882812 C 176.648438 66.839844 176.628906 64.789062 176.640625 62.734375 C 176.996094 62.734375 177.351562 62.734375 177.707031 62.734375 C 177.707031 65.40625 177.707031 68.078125 177.707031 70.753906 C 177.238281 70.820312 176.816406 70.730469 176.441406 70.484375 C 175.140625 68.546875 173.941406 66.542969 172.84375 64.472656 C 172.777344 66.566406 172.753906 68.660156 172.777344 70.753906 C 172.421875 70.753906 172.066406 70.753906 171.710938 70.753906 C 171.710938 68.078125 171.710938 65.40625 171.710938 62.734375 Z M 171.710938 62.734375 "/>
</g>
<mask id="mask34">
  <g filter="url(#alpha)">
<rect x="0" y="0" width="254" height="93" style="fill:rgb(0%,0%,0%);fill-opacity:0.929412;stroke:none;"/>
  </g>
</mask>
<clipPath id="clip35">
  <rect x="0" y="0" width="254" height="93"/>
</clipPath>
<g id="surface107" clip-path="url(#clip35)">
<path style=" stroke:none;fill-rule:evenodd;fill:rgb(67.843139%,67.058825%,67.058825%);fill-opacity:1;" d="M 191.03125 63.269531 C 191.164062 63.820312 191.207031 64.402344 191.167969 65.007812 C 191.65625 65.007812 192.144531 65.007812 192.632812 65.007812 C 192.632812 65.273438 192.632812 65.539062 192.632812 65.808594 C 192.144531 65.808594 191.65625 65.808594 191.167969 65.808594 C 191.144531 66.964844 191.167969 68.125 191.234375 69.28125 C 191.273438 69.453125 191.339844 69.605469 191.433594 69.75 C 191.785156 69.816406 192.140625 69.839844 192.5 69.816406 C 192.476562 70.097656 192.519531 70.363281 192.632812 70.617188 C 191.75 71.042969 190.972656 70.910156 190.300781 70.21875 C 190.105469 68.761719 190.039062 67.292969 190.101562 65.808594 C 189.789062 65.808594 189.476562 65.808594 189.167969 65.808594 C 189.167969 65.539062 189.167969 65.273438 189.167969 65.007812 C 189.476562 65.007812 189.789062 65.007812 190.101562 65.007812 C 190.101562 64.515625 190.101562 64.027344 190.101562 63.535156 C 190.441406 63.507812 190.753906 63.417969 191.03125 63.269531 Z M 191.03125 63.269531 "/>
</g>
<mask id="mask35">
  <g filter="url(#alpha)">
<rect x="0" y="0" width="254" height="93" style="fill:rgb(0%,0%,0%);fill-opacity:0.921569;stroke:none;"/>
  </g>
</mask>
<clipPath id="clip36">
  <rect x="0" y="0" width="254" height="93"/>
</clipPath>
<g id="surface110" clip-path="url(#clip36)">
<path style=" stroke:none;fill-rule:evenodd;fill:rgb(67.843139%,67.058825%,67.058825%);fill-opacity:1;" d="M 79.492188 64.871094 C 80.160156 64.851562 80.824219 64.871094 81.492188 64.941406 C 82.136719 65.183594 82.511719 65.652344 82.625 66.34375 C 82.65625 67.816406 82.722656 69.285156 82.824219 70.753906 C 82.46875 70.753906 82.113281 70.753906 81.757812 70.753906 C 81.792969 70.554688 81.746094 70.375 81.625 70.21875 C 80.761719 70.941406 79.828125 71.054688 78.824219 70.550781 C 77.773438 69.078125 78.085938 67.964844 79.757812 67.210938 C 80.378906 67.105469 81.003906 66.992188 81.625 66.878906 C 81.578125 66.277344 81.269531 65.894531 80.691406 65.742188 C 80.050781 65.746094 79.425781 65.835938 78.824219 66.007812 C 78.722656 65.816406 78.632812 65.617188 78.558594 65.40625 C 78.859375 65.191406 79.171875 65.011719 79.492188 64.871094 Z M 80.824219 67.8125 C 81.089844 67.8125 81.355469 67.8125 81.625 67.8125 C 81.847656 68.96875 81.40625 69.679688 80.292969 69.949219 C 79.546875 69.886719 79.257812 69.484375 79.425781 68.746094 C 79.746094 68.203125 80.210938 67.894531 80.824219 67.8125 Z M 80.824219 67.8125 "/>
</g>
<mask id="mask36">
  <g filter="url(#alpha)">
<rect x="0" y="0" width="254" height="93" style="fill:rgb(0%,0%,0%);fill-opacity:0.909804;stroke:none;"/>
  </g>
</mask>
<clipPath id="clip37">
  <rect x="0" y="0" width="254" height="93"/>
</clipPath>
<g id="surface113" clip-path="url(#clip37)">
<path style=" stroke:none;fill-rule:evenodd;fill:rgb(67.843139%,67.058825%,67.058825%);fill-opacity:1;" d="M 86.15625 64.871094 C 86.6875 64.851562 87.222656 64.871094 87.753906 64.941406 C 88.132812 65.140625 88.421875 65.429688 88.621094 65.808594 C 89.382812 64.859375 90.339844 64.617188 91.484375 65.074219 C 91.964844 65.476562 92.253906 65.988281 92.351562 66.609375 C 92.417969 67.988281 92.441406 69.371094 92.417969 70.753906 C 92.019531 70.753906 91.617188 70.753906 91.21875 70.753906 C 91.242188 69.371094 91.21875 67.988281 91.152344 66.609375 C 90.820312 65.816406 90.265625 65.613281 89.488281 66.007812 C 89.28125 66.171875 89.125 66.371094 89.019531 66.609375 C 88.953125 67.988281 88.929688 69.371094 88.953125 70.753906 C 88.554688 70.753906 88.152344 70.753906 87.753906 70.753906 C 87.777344 69.414062 87.753906 68.078125 87.6875 66.742188 C 87.425781 65.828125 86.871094 65.582031 86.023438 66.007812 C 85.738281 66.238281 85.539062 66.53125 85.421875 66.878906 C 85.355469 68.167969 85.332031 69.460938 85.355469 70.753906 C 85 70.753906 84.644531 70.753906 84.289062 70.753906 C 84.324219 68.832031 84.277344 66.917969 84.15625 65.007812 C 84.511719 65.007812 84.867188 65.007812 85.222656 65.007812 C 85.199219 65.234375 85.222656 65.457031 85.289062 65.675781 C 85.5625 65.375 85.851562 65.109375 86.15625 64.871094 Z M 86.15625 64.871094 "/>
</g>
<mask id="mask37">
  <g filter="url(#alpha)">
<rect x="0" y="0" width="254" height="93" style="fill:rgb(0%,0%,0%);fill-opacity:0.929412;stroke:none;"/>
  </g>
</mask>
<clipPath id="clip38">
  <rect x="0" y="0" width="254" height="93"/>
</clipPath>
<g id="surface116" clip-path="url(#clip38)">
<path style=" stroke:none;fill-rule:evenodd;fill:rgb(67.843139%,67.058825%,67.058825%);fill-opacity:1;" d="M 96.015625 64.871094 C 98.6875 64.769531 99.777344 66.0625 99.28125 68.746094 C 98.921875 70.269531 97.964844 70.957031 96.417969 70.820312 C 95.933594 70.742188 95.511719 70.542969 95.148438 70.21875 C 95.082031 71.152344 95.0625 72.085938 95.082031 73.023438 C 94.683594 73.023438 94.285156 73.023438 93.882812 73.023438 C 93.882812 70.351562 93.882812 67.679688 93.882812 65.007812 C 94.238281 65.007812 94.59375 65.007812 94.949219 65.007812 C 94.929688 65.234375 94.953125 65.457031 95.015625 65.675781 C 95.296875 65.324219 95.632812 65.058594 96.015625 64.871094 Z M 96.148438 65.808594 C 97.535156 65.726562 98.246094 66.394531 98.28125 67.8125 C 98.265625 68.964844 97.710938 69.675781 96.617188 69.949219 C 95.144531 69.496094 94.65625 68.515625 95.148438 67.011719 C 95.320312 66.464844 95.652344 66.0625 96.148438 65.808594 Z M 96.148438 65.808594 "/>
</g>
<mask id="mask38">
  <g filter="url(#alpha)">
<rect x="0" y="0" width="254" height="93" style="fill:rgb(0%,0%,0%);fill-opacity:0.909804;stroke:none;"/>
  </g>
</mask>
<clipPath id="clip39">
  <rect x="0" y="0" width="254" height="93"/>
</clipPath>
<g id="surface119" clip-path="url(#clip39)">
<path style=" stroke:none;fill-rule:evenodd;fill:rgb(67.843139%,67.058825%,67.058825%);fill-opacity:1;" d="M 107.875 64.871094 C 108.636719 64.808594 109.371094 64.898438 110.074219 65.140625 C 110.125 65.484375 110.035156 65.796875 109.808594 66.074219 C 109.28125 65.714844 108.726562 65.648438 108.144531 65.875 C 107.789062 66.230469 107.789062 66.585938 108.144531 66.945312 C 108.839844 67.238281 109.488281 67.617188 110.074219 68.078125 C 110.699219 69.8125 110.074219 70.746094 108.210938 70.886719 C 107.597656 70.855469 107.046875 70.675781 106.542969 70.351562 C 106.625 70.054688 106.761719 69.789062 106.945312 69.550781 C 107.695312 70.058594 108.425781 70.058594 109.144531 69.550781 C 109.230469 69.28125 109.230469 69.015625 109.144531 68.746094 C 108.628906 68.382812 108.074219 68.09375 107.476562 67.878906 C 106.355469 66.714844 106.488281 65.710938 107.875 64.871094 Z M 107.875 64.871094 "/>
</g>
<mask id="mask39">
  <g filter="url(#alpha)">
<rect x="0" y="0" width="254" height="93" style="fill:rgb(0%,0%,0%);fill-opacity:0.909804;stroke:none;"/>
  </g>
</mask>
<clipPath id="clip40">
  <rect x="0" y="0" width="254" height="93"/>
</clipPath>
<g id="surface122" clip-path="url(#clip40)">
<path style=" stroke:none;fill-rule:evenodd;fill:rgb(67.843139%,67.058825%,67.058825%);fill-opacity:1;" d="M 125.601562 64.871094 C 126.222656 64.851562 126.847656 64.871094 127.464844 64.941406 C 128.121094 65.195312 128.542969 65.660156 128.734375 66.34375 C 128.761719 67.816406 128.828125 69.285156 128.933594 70.753906 C 128.578125 70.753906 128.222656 70.753906 127.867188 70.753906 C 127.890625 70.539062 127.824219 70.359375 127.667969 70.21875 C 126.636719 71.105469 125.617188 71.105469 124.601562 70.21875 C 123.953125 68.414062 124.597656 67.363281 126.535156 67.078125 C 126.886719 67.011719 127.242188 66.988281 127.601562 67.011719 C 127.683594 66.359375 127.417969 65.933594 126.800781 65.742188 C 126.199219 65.703125 125.621094 65.8125 125.066406 66.074219 C 124.859375 65.90625 124.726562 65.683594 124.667969 65.40625 C 124.96875 65.191406 125.28125 65.011719 125.601562 64.871094 Z M 126.933594 67.8125 C 127.199219 67.8125 127.464844 67.8125 127.734375 67.8125 C 127.945312 68.964844 127.503906 69.675781 126.398438 69.949219 C 125.613281 69.847656 125.324219 69.402344 125.535156 68.613281 C 125.90625 68.152344 126.371094 67.882812 126.933594 67.8125 Z M 126.933594 67.8125 "/>
</g>
<mask id="mask40">
  <g filter="url(#alpha)">
<rect x="0" y="0" width="254" height="93" style="fill:rgb(0%,0%,0%);fill-opacity:0.909804;stroke:none;"/>
  </g>
</mask>
<clipPath id="clip41">
  <rect x="0" y="0" width="254" height="93"/>
</clipPath>
<g id="surface125" clip-path="url(#clip41)">
<path style=" stroke:none;fill-rule:evenodd;fill:rgb(67.843139%,67.058825%,67.058825%);fill-opacity:1;" d="M 136.660156 64.871094 C 139.003906 64.640625 140.070312 65.710938 139.859375 68.078125 C 138.570312 68.078125 137.285156 68.078125 135.996094 68.078125 C 136.035156 69.277344 136.65625 69.902344 137.859375 69.949219 C 138.394531 69.84375 138.925781 69.753906 139.460938 69.683594 C 139.570312 69.984375 139.570312 70.273438 139.460938 70.550781 C 135.992188 71.4375 134.507812 70.121094 134.996094 66.609375 C 135.3125 65.78125 135.867188 65.203125 136.660156 64.871094 Z M 137.0625 65.675781 C 138.148438 65.652344 138.726562 66.1875 138.792969 67.277344 C 137.859375 67.277344 136.929688 67.277344 135.996094 67.277344 C 136.085938 66.554688 136.441406 66.023438 137.0625 65.675781 Z M 137.0625 65.675781 "/>
</g>
<mask id="mask41">
  <g filter="url(#alpha)">
<rect x="0" y="0" width="254" height="93" style="fill:rgb(0%,0%,0%);fill-opacity:0.878431;stroke:none;"/>
  </g>
</mask>
<clipPath id="clip42">
  <rect x="0" y="0" width="254" height="93"/>
</clipPath>
<g id="surface128" clip-path="url(#clip42)">
<path style=" stroke:none;fill-rule:evenodd;fill:rgb(67.843139%,67.058825%,67.058825%);fill-opacity:1;" d="M 145.722656 64.871094 C 146.035156 64.871094 146.347656 64.871094 146.65625 64.871094 C 146.65625 65.230469 146.65625 65.585938 146.65625 65.941406 C 145.8125 65.839844 145.253906 66.199219 144.992188 67.011719 C 144.925781 68.257812 144.902344 69.503906 144.925781 70.753906 C 144.523438 70.753906 144.125 70.753906 143.722656 70.753906 C 143.722656 68.835938 143.722656 66.921875 143.722656 65.007812 C 144.082031 65.007812 144.433594 65.007812 144.789062 65.007812 C 144.769531 65.234375 144.792969 65.457031 144.855469 65.675781 C 145.054688 65.300781 145.34375 65.03125 145.722656 64.871094 Z M 145.722656 64.871094 "/>
</g>
<mask id="mask42">
  <g filter="url(#alpha)">
<rect x="0" y="0" width="254" height="93" style="fill:rgb(0%,0%,0%);fill-opacity:0.921569;stroke:none;"/>
  </g>
</mask>
<clipPath id="clip43">
  <rect x="0" y="0" width="254" height="93"/>
</clipPath>
<g id="surface131" clip-path="url(#clip43)">
<path style=" stroke:none;fill-rule:evenodd;fill:rgb(67.843139%,67.058825%,67.058825%);fill-opacity:1;" d="M 148.921875 64.871094 C 151.953125 64.730469 153.128906 66.152344 152.453125 69.148438 C 151.644531 70.621094 150.421875 71.132812 148.789062 70.683594 C 147.605469 70.140625 147.027344 69.207031 147.054688 67.878906 C 147.054688 66.476562 147.679688 65.472656 148.921875 64.871094 Z M 149.589844 65.675781 C 150.90625 65.789062 151.527344 66.523438 151.453125 67.878906 C 151.476562 69.023438 150.941406 69.710938 149.855469 69.949219 C 148.746094 69.6875 148.210938 68.976562 148.253906 67.8125 C 148.234375 66.78125 148.679688 66.066406 149.589844 65.675781 Z M 149.589844 65.675781 "/>
</g>
<mask id="mask43">
  <g filter="url(#alpha)">
<rect x="0" y="0" width="254" height="93" style="fill:rgb(0%,0%,0%);fill-opacity:0.929412;stroke:none;"/>
  </g>
</mask>
<clipPath id="clip44">
  <rect x="0" y="0" width="254" height="93"/>
</clipPath>
<g id="surface134" clip-path="url(#clip44)">
<path style=" stroke:none;fill-rule:evenodd;fill:rgb(67.843139%,67.058825%,67.058825%);fill-opacity:1;" d="M 164.378906 64.871094 C 167.339844 64.703125 168.519531 66.082031 167.910156 69.015625 C 167.027344 70.734375 165.671875 71.246094 163.847656 70.550781 C 162.910156 69.921875 162.421875 69.03125 162.382812 67.878906 C 162.4375 66.445312 163.105469 65.445312 164.378906 64.871094 Z M 165.046875 65.675781 C 166.273438 65.835938 166.894531 66.550781 166.914062 67.8125 C 166.816406 69.40625 166.015625 70.050781 164.511719 69.75 C 163.496094 68.734375 163.34375 67.601562 164.046875 66.34375 C 164.335938 66.03125 164.667969 65.808594 165.046875 65.675781 Z M 165.046875 65.675781 "/>
</g>
<mask id="mask44">
  <g filter="url(#alpha)">
<rect x="0" y="0" width="254" height="93" style="fill:rgb(0%,0%,0%);fill-opacity:0.929412;stroke:none;"/>
  </g>
</mask>
<clipPath id="clip45">
  <rect x="0" y="0" width="254" height="93"/>
</clipPath>
<g id="surface137" clip-path="url(#clip45)">
<path style=" stroke:none;fill-rule:evenodd;fill:rgb(67.843139%,67.058825%,67.058825%);fill-opacity:1;" d="M 180.90625 64.871094 C 182.617188 64.539062 183.792969 65.164062 184.4375 66.742188 C 184.882812 69.761719 183.617188 71.074219 180.636719 70.683594 C 179.515625 70.09375 178.9375 69.15625 178.90625 67.878906 C 178.929688 66.414062 179.59375 65.414062 180.90625 64.871094 Z M 181.570312 65.675781 C 182.796875 65.835938 183.417969 66.550781 183.4375 67.8125 C 183.34375 69.402344 182.542969 70.050781 181.039062 69.75 C 180.046875 68.816406 179.84375 67.726562 180.4375 66.476562 C 180.746094 66.089844 181.125 65.824219 181.570312 65.675781 Z M 181.570312 65.675781 "/>
</g>
<mask id="mask45">
  <g filter="url(#alpha)">
<rect x="0" y="0" width="254" height="93" style="fill:rgb(0%,0%,0%);fill-opacity:0.909804;stroke:none;"/>
  </g>
</mask>
<clipPath id="clip46">
  <rect x="0" y="0" width="254" height="93"/>
</clipPath>
<g id="surface140" clip-path="url(#clip46)">
<path style=" stroke:none;fill-rule:evenodd;fill:rgb(67.843139%,67.058825%,67.058825%);fill-opacity:1;" d="M 187.703125 64.871094 C 188.011719 64.871094 188.324219 64.871094 188.632812 64.871094 C 188.632812 65.230469 188.632812 65.585938 188.632812 65.941406 C 187.988281 65.855469 187.476562 66.078125 187.101562 66.609375 C 186.910156 67.980469 186.84375 69.359375 186.902344 70.753906 C 186.503906 70.753906 186.101562 70.753906 185.703125 70.753906 C 185.703125 68.835938 185.703125 66.921875 185.703125 65.007812 C 186.058594 65.007812 186.414062 65.007812 186.769531 65.007812 C 186.746094 65.234375 186.769531 65.457031 186.835938 65.675781 C 187.035156 65.300781 187.324219 65.03125 187.703125 64.871094 Z M 187.703125 64.871094 "/>
</g>
<mask id="mask46">
  <g filter="url(#alpha)">
<rect x="0" y="0" width="254" height="93" style="fill:rgb(0%,0%,0%);fill-opacity:0.921569;stroke:none;"/>
  </g>
</mask>
<clipPath id="clip47">
  <rect x="0" y="0" width="254" height="93"/>
</clipPath>
<g id="surface143" clip-path="url(#clip47)">
<path style=" stroke:none;fill-rule:evenodd;fill:rgb(67.843139%,67.058825%,67.058825%);fill-opacity:1;" d="M 195.03125 64.871094 C 197.375 64.640625 198.441406 65.710938 198.230469 68.078125 C 196.894531 68.058594 195.5625 68.078125 194.230469 68.148438 C 194.414062 69.289062 195.082031 69.890625 196.230469 69.949219 C 196.761719 69.84375 197.296875 69.753906 197.828125 69.683594 C 197.894531 69.992188 197.894531 70.28125 197.828125 70.550781 C 194.367188 71.4375 192.878906 70.121094 193.363281 66.609375 C 193.683594 65.78125 194.238281 65.203125 195.03125 64.871094 Z M 195.429688 65.675781 C 196.515625 65.648438 197.09375 66.183594 197.164062 67.277344 C 196.230469 67.277344 195.296875 67.277344 194.363281 67.277344 C 194.457031 66.554688 194.8125 66.023438 195.429688 65.675781 Z M 195.429688 65.675781 "/>
</g>
<mask id="mask47">
  <g filter="url(#alpha)">
<rect x="0" y="0" width="254" height="93" style="fill:rgb(0%,0%,0%);fill-opacity:0.941176;stroke:none;"/>
  </g>
</mask>
<clipPath id="clip48">
  <rect x="0" y="0" width="254" height="93"/>
</clipPath>
<g id="surface146" clip-path="url(#clip48)">
<path style=" stroke:none;fill-rule:evenodd;fill:rgb(67.843139%,67.058825%,67.058825%);fill-opacity:1;" d="M 100.546875 65.007812 C 100.902344 65.007812 101.257812 65.007812 101.613281 65.007812 C 101.5625 66.394531 101.628906 67.773438 101.8125 69.148438 C 102.261719 69.832031 102.863281 69.988281 103.613281 69.617188 C 103.929688 69.355469 104.128906 69.023438 104.210938 68.613281 C 104.277344 67.414062 104.300781 66.210938 104.277344 65.007812 C 104.632812 65.007812 104.988281 65.007812 105.34375 65.007812 C 105.308594 66.925781 105.355469 68.839844 105.476562 70.753906 C 105.121094 70.753906 104.769531 70.753906 104.410156 70.753906 C 104.433594 70.480469 104.410156 70.214844 104.34375 69.949219 C 103.308594 71.066406 102.199219 71.15625 101.011719 70.21875 C 100.84375 69.921875 100.710938 69.609375 100.613281 69.28125 C 100.546875 67.859375 100.523438 66.433594 100.546875 65.007812 Z M 100.546875 65.007812 "/>
</g>
<mask id="mask48">
  <g filter="url(#alpha)">
<rect x="0" y="0" width="254" height="93" style="fill:rgb(0%,0%,0%);fill-opacity:0.921569;stroke:none;"/>
  </g>
</mask>
<clipPath id="clip49">
  <rect x="0" y="0" width="254" height="93"/>
</clipPath>
<g id="surface149" clip-path="url(#clip49)">
<path style=" stroke:none;fill-rule:evenodd;fill:rgb(67.843139%,67.058825%,67.058825%);fill-opacity:1;" d="M 118.269531 65.007812 C 118.671875 65.007812 119.070312 65.007812 119.46875 65.007812 C 119.449219 66.34375 119.46875 67.679688 119.539062 69.015625 C 119.914062 69.820312 120.515625 70.023438 121.335938 69.617188 C 121.585938 69.410156 121.785156 69.164062 121.9375 68.882812 C 122.003906 67.589844 122.023438 66.296875 122.003906 65.007812 C 122.402344 65.007812 122.800781 65.007812 123.203125 65.007812 C 123.203125 66.921875 123.203125 68.835938 123.203125 70.753906 C 122.847656 70.753906 122.492188 70.753906 122.136719 70.753906 C 122.15625 70.480469 122.136719 70.214844 122.070312 69.949219 C 121.132812 70.996094 120.066406 71.132812 118.871094 70.351562 C 118.589844 69.953125 118.414062 69.503906 118.335938 69.015625 C 118.269531 67.679688 118.25 66.34375 118.269531 65.007812 Z M 118.269531 65.007812 "/>
</g>
<mask id="mask49">
  <g filter="url(#alpha)">
<rect x="0" y="0" width="254" height="93" style="fill:rgb(0%,0%,0%);fill-opacity:0.898039;stroke:none;"/>
  </g>
</mask>
<clipPath id="clip50">
  <rect x="0" y="0" width="254" height="93"/>
</clipPath>
<g id="surface152" clip-path="url(#clip50)">
<path style=" stroke:none;fill-rule:evenodd;fill:rgb(67.843139%,67.058825%,67.058825%);fill-opacity:1;" d="M 129.863281 65.007812 C 131.375 65.007812 132.886719 65.007812 134.394531 65.007812 C 134.421875 65.339844 134.355469 65.652344 134.195312 65.941406 C 133.195312 67.210938 132.199219 68.480469 131.199219 69.75 C 132.261719 69.816406 133.328125 69.839844 134.394531 69.816406 C 134.394531 70.128906 134.394531 70.441406 134.394531 70.753906 C 132.839844 70.753906 131.285156 70.753906 129.730469 70.753906 C 129.710938 70.4375 129.730469 70.125 129.796875 69.816406 C 130.796875 68.546875 131.796875 67.277344 132.796875 66.007812 C 131.820312 65.941406 130.84375 65.917969 129.863281 65.941406 C 129.863281 65.628906 129.863281 65.316406 129.863281 65.007812 Z M 129.863281 65.007812 "/>
</g>
<mask id="mask50">
  <g filter="url(#alpha)">
<rect x="0" y="0" width="254" height="93" style="fill:rgb(0%,0%,0%);fill-opacity:0.941176;stroke:none;"/>
  </g>
</mask>
<clipPath id="clip51">
  <rect x="0" y="0" width="254" height="93"/>
</clipPath>
<g id="surface155" clip-path="url(#clip51)">
<path style=" stroke:none;fill-rule:evenodd;fill:rgb(67.843139%,67.058825%,67.058825%);fill-opacity:1;" d="M 141.058594 65.007812 C 141.460938 65.007812 141.859375 65.007812 142.257812 65.007812 C 142.257812 66.921875 142.257812 68.835938 142.257812 70.753906 C 141.859375 70.753906 141.460938 70.753906 141.058594 70.753906 C 141.058594 68.835938 141.058594 66.921875 141.058594 65.007812 Z M 141.058594 65.007812 "/>
</g>
</defs>
<g id="surface1">
<use xlink:href="#surface5" mask="url(#mask0)"/>
<use xlink:href="#surface8" mask="url(#mask1)"/>
<path style=" stroke:none;fill-rule:evenodd;fill:rgb(67.843139%,67.058825%,67.058825%);fill-opacity:1;" d="M 52.839844 17.035156 C 56.082031 17.015625 59.324219 17.035156 62.566406 17.101562 C 62.925781 17.195312 63.214844 17.394531 63.433594 17.703125 C 63.523438 21.222656 63.523438 24.742188 63.433594 28.261719 C 63.371094 28.453125 63.261719 28.609375 63.101562 28.726562 C 59.601562 28.949219 56.09375 28.992188 52.574219 28.863281 C 52.152344 28.664062 51.90625 28.332031 51.839844 27.859375 C 51.75 24.652344 51.75 21.445312 51.839844 18.238281 C 51.960938 17.648438 52.292969 17.25 52.839844 17.035156 Z M 52.839844 17.035156 "/>
<use xlink:href="#surface11" mask="url(#mask2)"/>
<use xlink:href="#surface14" mask="url(#mask3)"/>
<use xlink:href="#surface17" mask="url(#mask4)"/>
<use xlink:href="#surface20" mask="url(#mask5)"/>
<use xlink:href="#surface23" mask="url(#mask6)"/>
<use xlink:href="#surface26" mask="url(#mask7)"/>
<use xlink:href="#surface29" mask="url(#mask8)"/>
<use xlink:href="#surface32" mask="url(#mask9)"/>
<use xlink:href="#surface35" mask="url(#mask10)"/>
<use xlink:href="#surface38" mask="url(#mask11)"/>
<path style=" stroke:none;fill-rule:evenodd;fill:rgb(67.843139%,67.058825%,67.058825%);fill-opacity:1;" d="M 71.496094 30.800781 C 72.382812 30.800781 73.273438 30.800781 74.160156 30.800781 C 74.160156 34.71875 74.160156 38.640625 74.160156 42.558594 C 73.273438 42.558594 72.382812 42.558594 71.496094 42.558594 C 71.496094 38.640625 71.496094 34.71875 71.496094 30.800781 Z M 71.496094 30.800781 "/>
<use xlink:href="#surface41" mask="url(#mask12)"/>
<use xlink:href="#surface44" mask="url(#mask13)"/>
<use xlink:href="#surface47" mask="url(#mask14)"/>
<use xlink:href="#surface50" mask="url(#mask15)"/>
<use xlink:href="#surface53" mask="url(#mask16)"/>
<use xlink:href="#surface56" mask="url(#mask17)"/>
<use xlink:href="#surface59" mask="url(#mask18)"/>
<use xlink:href="#surface62" mask="url(#mask19)"/>
<use xlink:href="#surface65" mask="url(#mask20)"/>
<use xlink:href="#surface68" mask="url(#mask21)"/>
<use xlink:href="#surface71" mask="url(#mask22)"/>
<use xlink:href="#surface74" mask="url(#mask23)"/>
<use xlink:href="#surface77" mask="url(#mask24)"/>
<use xlink:href="#surface80" mask="url(#mask25)"/>
<use xlink:href="#surface83" mask="url(#mask26)"/>
<use xlink:href="#surface86" mask="url(#mask27)"/>
<use xlink:href="#surface89" mask="url(#mask28)"/>
<use xlink:href="#surface92" mask="url(#mask29)"/>
<use xlink:href="#surface95" mask="url(#mask30)"/>
<use xlink:href="#surface98" mask="url(#mask31)"/>
<use xlink:href="#surface101" mask="url(#mask32)"/>
<use xlink:href="#surface104" mask="url(#mask33)"/>
<use xlink:href="#surface107" mask="url(#mask34)"/>
<use xlink:href="#surface110" mask="url(#mask35)"/>
<use xlink:href="#surface113" mask="url(#mask36)"/>
<use xlink:href="#surface116" mask="url(#mask37)"/>
<use xlink:href="#surface119" mask="url(#mask38)"/>
<use xlink:href="#surface122" mask="url(#mask39)"/>
<use xlink:href="#surface125" mask="url(#mask40)"/>
<use xlink:href="#surface128" mask="url(#mask41)"/>
<use xlink:href="#surface131" mask="url(#mask42)"/>
<use xlink:href="#surface134" mask="url(#mask43)"/>
<use xlink:href="#surface137" mask="url(#mask44)"/>
<use xlink:href="#surface140" mask="url(#mask45)"/>
<use xlink:href="#surface143" mask="url(#mask46)"/>
<use xlink:href="#surface146" mask="url(#mask47)"/>
<use xlink:href="#surface149" mask="url(#mask48)"/>
<use xlink:href="#surface152" mask="url(#mask49)"/>
<use xlink:href="#surface155" mask="url(#mask50)"/>
</g>
</svg>
