<?xml version="1.0" encoding="UTF-8"?>
<svg xmlns="http://www.w3.org/2000/svg" xmlns:xlink="http://www.w3.org/1999/xlink" width="256px" height="97px" viewBox="0 0 254 97" version="1.1">
<defs>
<filter id="alpha" filterUnits="objectBoundingBox" x="0%" y="0%" width="100%" height="100%">
  <feColorMatrix type="matrix" in="SourceGraphic" values="0 0 0 0 1 0 0 0 0 1 0 0 0 0 1 0 0 0 1 0"/>
</filter>
<mask id="mask0">
  <g filter="url(#alpha)">
<rect x="0" y="0" width="254" height="97" style="fill:rgb(0%,0%,0%);fill-opacity:0.968627;stroke:none;"/>
  </g>
</mask>
<clipPath id="clip1">
  <rect x="0" y="0" width="254" height="97"/>
</clipPath>
<g id="surface5" clip-path="url(#clip1)">
<path style=" stroke:none;fill-rule:evenodd;fill:rgb(99.607843%,100%,99.607843%);fill-opacity:1;" d="M 117.167969 7.527344 C 123.277344 7.527344 129.390625 7.527344 135.5 7.527344 C 135.5 9.53125 135.5 11.539062 135.5 13.546875 C 134.054688 13.546875 132.609375 13.546875 131.167969 13.546875 C 131.167969 12.988281 131.167969 12.429688 131.167969 11.875 C 130.722656 11.875 130.277344 11.875 129.832031 11.875 C 129.886719 14.996094 129.832031 18.121094 129.667969 21.238281 C 128.679688 22.566406 127.566406 23.792969 126.332031 24.917969 C 125.300781 23.628906 124.1875 22.402344 123 21.238281 C 122.832031 18.121094 122.777344 14.996094 122.832031 11.875 C 122.390625 11.875 121.945312 11.875 121.5 11.875 C 121.5 12.429688 121.5 12.988281 121.5 13.546875 C 120.054688 13.546875 118.609375 13.546875 117.167969 13.546875 C 117.167969 11.539062 117.167969 9.53125 117.167969 7.527344 Z M 117.167969 7.527344 "/>
</g>
<mask id="mask1">
  <g filter="url(#alpha)">
<rect x="0" y="0" width="254" height="97" style="fill:rgb(0%,0%,0%);fill-opacity:0.898039;stroke:none;"/>
  </g>
</mask>
<clipPath id="clip2">
  <rect x="0" y="0" width="254" height="97"/>
</clipPath>
<g id="surface8" clip-path="url(#clip2)">
<path style=" stroke:none;fill-rule:evenodd;fill:rgb(99.607843%,100%,99.607843%);fill-opacity:1;" d="M 126.832031 26.257812 C 126.832031 26.480469 126.945312 26.589844 127.167969 26.589844 C 127.167969 26.8125 127.277344 26.925781 127.5 26.925781 C 127.5 27.148438 127.609375 27.261719 127.832031 27.261719 C 127.832031 27.484375 127.945312 27.59375 128.167969 27.59375 C 128.820312 28.417969 129.542969 29.199219 130.332031 29.9375 C 130.929688 32.070312 130.207031 32.738281 128.167969 31.941406 C 127.714844 30.820312 126.9375 30.039062 125.832031 29.601562 C 125.832031 29.378906 125.722656 29.265625 125.5 29.265625 C 125.5 29.042969 125.390625 28.933594 125.167969 28.933594 C 125.167969 28.710938 125.054688 28.597656 124.832031 28.597656 C 124.832031 28.375 124.722656 28.265625 124.5 28.265625 C 123.660156 26.804688 122.660156 25.464844 121.5 24.25 C 120.765625 25.105469 119.988281 25.941406 119.167969 26.757812 C 118.832031 26.980469 118.5 26.980469 118.167969 26.757812 C 115.332031 23.691406 112.5 20.625 109.667969 17.558594 C 109.4375 17.28125 109.492188 17.058594 109.832031 16.890625 C 111.277344 15.945312 112.722656 14.996094 114.167969 14.046875 C 114.746094 13.832031 115.300781 13.886719 115.832031 14.214844 C 118.796875 18.863281 122.464844 22.878906 126.832031 26.257812 Z M 126.832031 26.257812 "/>
</g>
<mask id="mask2">
  <g filter="url(#alpha)">
<rect x="0" y="0" width="254" height="97" style="fill:rgb(0%,0%,0%);fill-opacity:0.909804;stroke:none;"/>
  </g>
</mask>
<clipPath id="clip3">
  <rect x="0" y="0" width="254" height="97"/>
</clipPath>
<g id="surface11" clip-path="url(#clip3)">
<path style=" stroke:none;fill-rule:evenodd;fill:rgb(99.607843%,100%,99.607843%);fill-opacity:1;" d="M 128.167969 27.59375 C 127.945312 27.59375 127.832031 27.484375 127.832031 27.261719 C 127.609375 27.261719 127.5 27.148438 127.5 26.925781 C 127.277344 26.925781 127.167969 26.8125 127.167969 26.589844 C 126.945312 26.589844 126.832031 26.480469 126.832031 26.257812 C 127.78125 24.355469 129.171875 22.792969 131 21.574219 C 133.070312 19.160156 135.015625 16.652344 136.832031 14.046875 C 137.390625 13.824219 137.945312 13.824219 138.5 14.046875 C 139.664062 14.914062 140.886719 15.691406 142.167969 16.390625 C 142.667969 16.667969 142.835938 17.058594 142.667969 17.558594 C 139.832031 20.625 137 23.691406 134.167969 26.757812 C 132.957031 26.28125 131.957031 25.445312 131.167969 24.25 C 130.160156 25.371094 129.160156 26.488281 128.167969 27.59375 Z M 128.167969 27.59375 "/>
</g>
<mask id="mask3">
  <g filter="url(#alpha)">
<rect x="0" y="0" width="254" height="97" style="fill:rgb(0%,0%,0%);fill-opacity:0.858824;stroke:none;"/>
  </g>
</mask>
<clipPath id="clip4">
  <rect x="0" y="0" width="254" height="97"/>
</clipPath>
<g id="surface14" clip-path="url(#clip4)">
<path style=" stroke:none;fill-rule:evenodd;fill:rgb(99.607843%,100%,99.607843%);fill-opacity:1;" d="M 71.832031 16.558594 C 73.980469 16.871094 75.371094 18.097656 76 20.234375 C 76.441406 21.667969 76.664062 23.117188 76.667969 24.585938 C 76.410156 22.335938 75.355469 20.609375 73.5 19.398438 C 70.59375 19.300781 69.039062 20.75 68.832031 23.75 C 69.054688 26.757812 70.609375 28.652344 73.5 29.433594 C 75.414062 29.699219 77.300781 29.585938 79.167969 29.101562 C 82.136719 27.832031 85.027344 26.382812 87.832031 24.75 C 95.628906 21.519531 102.628906 22.691406 108.832031 28.265625 C 108.777344 28.375 108.722656 28.488281 108.667969 28.597656 C 104.394531 25.367188 99.671875 24.527344 94.5 26.089844 C 91.011719 27.171875 87.679688 28.621094 84.5 30.4375 C 81.113281 32.214844 77.558594 32.769531 73.832031 32.109375 C 67.867188 29.753906 66.03125 25.574219 68.332031 19.566406 C 69.164062 18.117188 70.328125 17.113281 71.832031 16.558594 Z M 71.832031 16.558594 "/>
</g>
<mask id="mask4">
  <g filter="url(#alpha)">
<rect x="0" y="0" width="254" height="97" style="fill:rgb(0%,0%,0%);fill-opacity:0.858824;stroke:none;"/>
  </g>
</mask>
<clipPath id="clip5">
  <rect x="0" y="0" width="254" height="97"/>
</clipPath>
<g id="surface17" clip-path="url(#clip5)">
<path style=" stroke:none;fill-rule:evenodd;fill:rgb(99.607843%,100%,99.607843%);fill-opacity:1;" d="M 180.5 16.558594 C 184.070312 17.53125 185.847656 19.929688 185.832031 23.75 C 185.3125 29.285156 182.257812 32.242188 176.667969 32.613281 C 175.617188 32.414062 174.5625 32.246094 173.5 32.109375 C 169.496094 30.714844 165.605469 29.042969 161.832031 27.09375 C 157.59375 25.304688 153.261719 24.972656 148.832031 26.089844 C 147.257812 26.878906 145.816406 27.605469 144.5 28.265625 C 147.894531 24.765625 152.0625 22.980469 157 22.910156 C 159.582031 23.011719 162.082031 23.511719 164.5 24.417969 C 167.648438 26.125 170.871094 27.6875 174.167969 29.101562 C 176.933594 29.933594 179.601562 29.710938 182.167969 28.429688 C 184.71875 25.898438 184.996094 23.164062 183 20.234375 C 181.113281 18.761719 179.449219 18.988281 178 20.90625 C 177.359375 22.058594 176.914062 23.285156 176.667969 24.585938 C 176.582031 21.945312 177.300781 19.546875 178.832031 17.394531 C 179.4375 17.140625 179.992188 16.859375 180.5 16.558594 Z M 180.5 16.558594 "/>
</g>
<mask id="mask5">
  <g filter="url(#alpha)">
<rect x="0" y="0" width="254" height="97" style="fill:rgb(0%,0%,0%);fill-opacity:0.823529;stroke:none;"/>
  </g>
</mask>
<clipPath id="clip6">
  <rect x="0" y="0" width="254" height="97"/>
</clipPath>
<g id="surface20" clip-path="url(#clip6)">
<path style=" stroke:none;fill-rule:evenodd;fill:rgb(99.607843%,100%,99.607843%);fill-opacity:1;" d="M 124.5 28.265625 C 124.722656 28.265625 124.832031 28.375 124.832031 28.597656 C 125.054688 28.597656 125.167969 28.710938 125.167969 28.933594 C 125.390625 28.933594 125.5 29.042969 125.5 29.265625 C 125.722656 29.265625 125.832031 29.378906 125.832031 29.601562 C 125.292969 30.484375 124.738281 31.375 124.167969 32.277344 C 122.285156 32.523438 121.675781 31.742188 122.332031 29.9375 C 122.925781 29.171875 123.648438 28.613281 124.5 28.265625 Z M 124.5 28.265625 "/>
</g>
<mask id="mask6">
  <g filter="url(#alpha)">
<rect x="0" y="0" width="254" height="97" style="fill:rgb(0%,0%,0%);fill-opacity:0.941176;stroke:none;"/>
  </g>
</mask>
<clipPath id="clip7">
  <rect x="0" y="0" width="254" height="97"/>
</clipPath>
<g id="surface23" clip-path="url(#clip7)">
<path style=" stroke:none;fill-rule:evenodd;fill:rgb(99.607843%,100%,99.607843%);fill-opacity:1;" d="M 126.167969 37.964844 C 129.269531 38.195312 132.382812 38.359375 135.5 38.464844 C 138.492188 39.722656 139.824219 42.007812 139.5 45.324219 C 139.953125 49.496094 138.175781 52.007812 134.167969 52.847656 C 131.503906 53.015625 128.835938 53.070312 126.167969 53.015625 C 126.167969 51.789062 126.167969 50.5625 126.167969 49.335938 C 126.5 49.335938 126.832031 49.335938 127.167969 49.335938 C 127.167969 46.773438 127.167969 44.207031 127.167969 41.644531 C 126.832031 41.644531 126.5 41.644531 126.167969 41.644531 C 126.167969 40.417969 126.167969 39.191406 126.167969 37.964844 Z M 132.167969 41.644531 C 132.714844 41.570312 133.214844 41.683594 133.667969 41.976562 C 133.890625 44.320312 133.890625 46.660156 133.667969 49 C 133.214844 49.296875 132.714844 49.40625 132.167969 49.335938 C 132.167969 46.773438 132.167969 44.207031 132.167969 41.644531 Z M 132.167969 41.644531 "/>
</g>
<mask id="mask7">
  <g filter="url(#alpha)">
<rect x="0" y="0" width="254" height="97" style="fill:rgb(0%,0%,0%);fill-opacity:0.933333;stroke:none;"/>
  </g>
</mask>
<clipPath id="clip8">
  <rect x="0" y="0" width="254" height="97"/>
</clipPath>
<g id="surface26" clip-path="url(#clip8)">
<path style=" stroke:none;fill-rule:evenodd;fill:rgb(99.607843%,100%,99.607843%);fill-opacity:1;" d="M 100.167969 38.296875 C 101.390625 38.296875 102.609375 38.296875 103.832031 38.296875 C 103.832031 39.414062 103.832031 40.527344 103.832031 41.644531 C 103.5 41.644531 103.167969 41.644531 102.832031 41.644531 C 102.742188 45.445312 102.855469 49.238281 103.167969 53.015625 C 101.378906 53.289062 99.601562 53.289062 97.832031 53.015625 C 96.332031 50.675781 94.832031 48.332031 93.332031 45.992188 C 93.167969 47.324219 93.113281 48.664062 93.167969 50.003906 C 93.5 50.003906 93.832031 50.003906 94.167969 50.003906 C 94.207031 51.128906 94.316406 52.242188 94.5 53.351562 C 92.382812 53.34375 90.269531 53.453125 88.167969 53.683594 C 88.167969 52.570312 88.167969 51.453125 88.167969 50.339844 C 88.558594 50.414062 88.890625 50.300781 89.167969 50.003906 C 88.84375 47.460938 88.734375 44.894531 88.832031 42.3125 C 88.5 42.3125 88.167969 42.3125 87.832031 42.3125 C 87.597656 41.214844 87.488281 40.097656 87.5 38.96875 C 89.835938 38.609375 92.167969 38.609375 94.5 38.96875 C 95.710938 41.019531 96.988281 43.027344 98.332031 44.988281 C 98.5 43.992188 98.554688 42.988281 98.5 41.976562 C 98.167969 41.976562 97.832031 41.976562 97.5 41.976562 C 97.5 40.863281 97.5 39.746094 97.5 38.632812 C 98.460938 38.734375 99.351562 38.625 100.167969 38.296875 Z M 100.167969 38.296875 "/>
</g>
<mask id="mask8">
  <g filter="url(#alpha)">
<rect x="0" y="0" width="254" height="97" style="fill:rgb(0%,0%,0%);fill-opacity:0.933333;stroke:none;"/>
  </g>
</mask>
<clipPath id="clip9">
  <rect x="0" y="0" width="254" height="97"/>
</clipPath>
<g id="surface29" clip-path="url(#clip9)">
<path style=" stroke:none;fill-rule:evenodd;fill:rgb(99.607843%,100%,99.607843%);fill-opacity:1;" d="M 107.832031 38.296875 C 110.066406 38.1875 112.289062 38.300781 114.5 38.632812 C 115.992188 43.398438 117.214844 48.191406 118.167969 53.015625 C 115.832031 53.015625 113.5 53.015625 111.167969 53.015625 C 111.167969 51.902344 111.167969 50.785156 111.167969 49.671875 C 112.066406 49.710938 112.289062 49.375 111.832031 48.667969 C 111.203125 48.34375 110.535156 48.234375 109.832031 48.332031 C 109.832031 48.777344 109.832031 49.226562 109.832031 49.671875 C 110.167969 49.671875 110.5 49.671875 110.832031 49.671875 C 110.832031 50.785156 110.832031 51.902344 110.832031 53.015625 C 108.832031 53.015625 106.832031 53.015625 104.832031 53.015625 C 104.597656 51.917969 104.488281 50.800781 104.5 49.671875 C 104.832031 49.671875 105.167969 49.671875 105.5 49.671875 C 106.191406 45.863281 106.96875 42.070312 107.832031 38.296875 Z M 110.832031 43.984375 C 111.09375 44.601562 111.316406 45.269531 111.5 45.992188 C 111.226562 46.289062 110.890625 46.398438 110.5 46.324219 C 110.433594 45.507812 110.542969 44.726562 110.832031 43.984375 Z M 110.832031 43.984375 "/>
</g>
<mask id="mask9">
  <g filter="url(#alpha)">
<rect x="0" y="0" width="254" height="97" style="fill:rgb(0%,0%,0%);fill-opacity:0.933333;stroke:none;"/>
  </g>
</mask>
<clipPath id="clip10">
  <rect x="0" y="0" width="254" height="97"/>
</clipPath>
<g id="surface32" clip-path="url(#clip10)">
<path style=" stroke:none;fill-rule:evenodd;fill:rgb(99.607843%,100%,99.607843%);fill-opacity:1;" d="M 144.167969 38.296875 C 146.390625 38.296875 148.609375 38.296875 150.832031 38.296875 C 151.949219 43.351562 153.0625 48.367188 154.167969 53.351562 C 151.839844 53.128906 149.507812 53.015625 147.167969 53.015625 C 147.167969 51.902344 147.167969 50.785156 147.167969 49.671875 C 147.980469 49.796875 148.203125 49.574219 147.832031 49 C 147.203125 48.679688 146.535156 48.566406 145.832031 48.667969 C 146.355469 50.054688 146.574219 51.503906 146.5 53.015625 C 144.5 53.015625 142.5 53.015625 140.5 53.015625 C 141.601562 48.144531 142.824219 43.242188 144.167969 38.296875 Z M 146.832031 43.648438 C 147.257812 44.453125 147.476562 45.347656 147.5 46.324219 C 147.167969 46.324219 146.832031 46.324219 146.5 46.324219 C 146.609375 45.433594 146.722656 44.542969 146.832031 43.648438 Z M 146.832031 43.648438 "/>
</g>
<mask id="mask10">
  <g filter="url(#alpha)">
<rect x="0" y="0" width="254" height="97" style="fill:rgb(0%,0%,0%);fill-opacity:0.921569;stroke:none;"/>
  </g>
</mask>
<clipPath id="clip11">
  <rect x="0" y="0" width="254" height="97"/>
</clipPath>
<g id="surface35" clip-path="url(#clip11)">
<path style=" stroke:none;fill-rule:evenodd;fill:rgb(99.607843%,100%,99.607843%);fill-opacity:1;" d="M 167.5 38.632812 C 169.730469 38.65625 171.839844 39.160156 173.832031 40.136719 C 174.15625 41.835938 174.269531 43.5625 174.167969 45.324219 C 172.609375 45.324219 171.054688 45.324219 169.5 45.324219 C 169.605469 44.402344 169.492188 43.511719 169.167969 42.648438 C 168.832031 42.199219 168.5 42.199219 168.167969 42.648438 C 167.664062 44.042969 167.441406 45.492188 167.5 46.996094 C 167.507812 48.082031 167.617188 49.140625 167.832031 50.171875 C 168.316406 50.433594 168.757812 50.378906 169.167969 50.003906 C 169.457031 49.253906 169.570312 48.472656 169.5 47.664062 C 170.945312 47.664062 172.390625 47.664062 173.832031 47.664062 C 173.886719 49.230469 173.832031 50.789062 173.667969 52.347656 C 173.542969 52.652344 173.375 52.933594 173.167969 53.183594 C 163.558594 55.359375 160.058594 51.625 162.667969 41.976562 C 163.769531 40.0625 165.378906 38.949219 167.5 38.632812 Z M 167.5 38.632812 "/>
</g>
<mask id="mask11">
  <g filter="url(#alpha)">
<rect x="0" y="0" width="254" height="97" style="fill:rgb(0%,0%,0%);fill-opacity:0.941176;stroke:none;"/>
  </g>
</mask>
<clipPath id="clip12">
  <rect x="0" y="0" width="254" height="97"/>
</clipPath>
<g id="surface38" clip-path="url(#clip12)">
<path style=" stroke:none;fill-rule:evenodd;fill:rgb(99.607843%,100%,99.607843%);fill-opacity:1;" d="M 74.5 39.300781 C 77.390625 39.246094 80.28125 39.300781 83.167969 39.46875 C 84.867188 40.222656 85.644531 41.558594 85.5 43.484375 C 85.574219 44.820312 85.128906 45.9375 84.167969 46.828125 C 84.644531 46.984375 85.03125 47.261719 85.332031 47.664062 C 86.125 49.570312 86.511719 51.578125 86.5 53.683594 C 84.597656 53.644531 82.710938 53.753906 80.832031 54.019531 C 80.886719 52.34375 80.832031 50.671875 80.667969 49 C 80.46875 48.210938 79.96875 47.875 79.167969 48 C 79.167969 48.890625 79.167969 49.78125 79.167969 50.675781 C 79.5 50.675781 79.832031 50.675781 80.167969 50.675781 C 80.351562 51.78125 80.460938 52.894531 80.5 54.019531 C 78.046875 53.992188 75.601562 54.101562 73.167969 54.351562 C 73.167969 53.238281 73.167969 52.125 73.167969 51.007812 C 73.5 51.007812 73.832031 51.007812 74.167969 51.007812 C 73.890625 48.34375 73.78125 45.667969 73.832031 42.980469 C 73.390625 42.980469 72.945312 42.980469 72.5 42.980469 C 72.5 41.867188 72.5 40.75 72.5 39.636719 C 73.246094 39.734375 73.910156 39.625 74.5 39.300781 Z M 78.832031 42.648438 C 80.550781 42.902344 80.882812 43.738281 79.832031 45.15625 C 79.515625 45.316406 79.183594 45.371094 78.832031 45.324219 C 78.832031 44.429688 78.832031 43.539062 78.832031 42.648438 Z M 78.832031 42.648438 "/>
</g>
<mask id="mask12">
  <g filter="url(#alpha)">
<rect x="0" y="0" width="254" height="97" style="fill:rgb(0%,0%,0%);fill-opacity:0.929412;stroke:none;"/>
  </g>
</mask>
<clipPath id="clip13">
  <rect x="0" y="0" width="254" height="97"/>
</clipPath>
<g id="surface41" clip-path="url(#clip13)">
<path style=" stroke:none;fill-rule:evenodd;fill:rgb(99.607843%,100%,99.607843%);fill-opacity:1;" d="M 68.5 39.636719 C 69.277344 39.636719 70.054688 39.636719 70.832031 39.636719 C 70.832031 41.644531 70.832031 43.648438 70.832031 45.65625 C 69.519531 45.558594 68.242188 45.671875 67 45.992188 C 66.835938 45.105469 66.777344 44.214844 66.832031 43.316406 C 66.277344 43.316406 65.722656 43.316406 65.167969 43.316406 C 65.167969 44.207031 65.167969 45.097656 65.167969 45.992188 C 65.714844 45.917969 66.214844 46.03125 66.667969 46.324219 C 66.832031 46.984375 66.886719 47.65625 66.832031 48.332031 C 66.265625 48.277344 65.710938 48.335938 65.167969 48.5 C 65.480469 49.410156 65.59375 50.355469 65.5 51.34375 C 66.054688 51.34375 66.609375 51.34375 67.167969 51.34375 C 67.167969 50.339844 67.167969 49.335938 67.167969 48.332031 C 68.511719 48.332031 69.84375 48.21875 71.167969 48 C 71.253906 50.117188 71.367188 52.238281 71.5 54.351562 C 67.503906 54.660156 63.503906 54.882812 59.5 55.023438 C 59.5 53.90625 59.5 52.792969 59.5 51.675781 C 59.832031 51.675781 60.167969 51.675781 60.5 51.675781 C 60.261719 49.003906 60.039062 46.328125 59.832031 43.648438 C 59.5 43.648438 59.167969 43.648438 58.832031 43.648438 C 58.914062 42.621094 58.800781 41.617188 58.5 40.640625 C 61.878906 40.253906 65.210938 39.917969 68.5 39.636719 Z M 68.5 39.636719 "/>
</g>
<mask id="mask13">
  <g filter="url(#alpha)">
<rect x="0" y="0" width="254" height="97" style="fill:rgb(0%,0%,0%);fill-opacity:0.933333;stroke:none;"/>
  </g>
</mask>
<clipPath id="clip14">
  <rect x="0" y="0" width="254" height="97"/>
</clipPath>
<g id="surface44" clip-path="url(#clip14)">
<path style=" stroke:none;fill-rule:evenodd;fill:rgb(99.607843%,100%,99.607843%);fill-opacity:1;" d="M 179.5 39.636719 C 181.730469 39.621094 183.953125 39.734375 186.167969 39.96875 C 186.960938 43.738281 187.628906 47.53125 188.167969 51.34375 C 188.558594 51.269531 188.890625 51.382812 189.167969 51.675781 C 188.863281 52.65625 188.753906 53.65625 188.832031 54.6875 C 186.488281 54.746094 184.15625 54.632812 181.832031 54.351562 C 181.804688 52.804688 182.136719 51.355469 182.832031 50.003906 C 182.167969 50.003906 181.5 50.003906 180.832031 50.003906 C 181.355469 51.394531 181.574219 52.84375 181.5 54.351562 C 179.371094 54.417969 177.257812 54.25 175.167969 53.851562 C 176.691406 49.199219 178.136719 44.460938 179.5 39.636719 Z M 181.832031 45.65625 C 182.4375 46.132812 182.660156 46.800781 182.5 47.664062 C 182.109375 47.738281 181.773438 47.625 181.5 47.328125 C 181.769531 46.804688 181.882812 46.246094 181.832031 45.65625 Z M 181.832031 45.65625 "/>
</g>
<mask id="mask14">
  <g filter="url(#alpha)">
<rect x="0" y="0" width="254" height="97" style="fill:rgb(0%,0%,0%);fill-opacity:0.933333;stroke:none;"/>
  </g>
</mask>
<clipPath id="clip15">
  <rect x="0" y="0" width="254" height="97"/>
</clipPath>
<g id="surface47" clip-path="url(#clip15)">
<path style=" stroke:none;fill-rule:evenodd;fill:rgb(99.607843%,100%,99.607843%);fill-opacity:1;" d="M 191.167969 40.304688 C 194.515625 40.410156 197.847656 40.6875 201.167969 41.140625 C 203.457031 42.109375 204.289062 43.839844 203.667969 46.324219 C 203.5 47.503906 202.886719 48.339844 201.832031 48.835938 C 202.308594 48.988281 202.699219 49.269531 203 49.671875 C 203.089844 51.183594 203.367188 52.632812 203.832031 54.019531 C 203.878906 54.789062 203.65625 55.460938 203.167969 56.027344 C 201.628906 55.765625 200.074219 55.597656 198.5 55.523438 C 198.230469 55.421875 198.007812 55.253906 197.832031 55.023438 C 198.203125 53.367188 198.261719 51.695312 198 50.003906 C 197.507812 49.210938 197.121094 49.210938 196.832031 50.003906 C 196.613281 50.660156 196.503906 51.328125 196.5 52.011719 C 196.832031 52.011719 197.167969 52.011719 197.5 52.011719 C 197.5 53.125 197.5 54.242188 197.5 55.355469 C 195.054688 55.246094 192.609375 55.132812 190.167969 55.023438 C 190.351562 53.917969 190.460938 52.800781 190.5 51.675781 C 190.832031 51.675781 191.167969 51.675781 191.5 51.675781 C 191.613281 49.03125 191.835938 46.410156 192.167969 43.816406 C 191.851562 43.65625 191.515625 43.601562 191.167969 43.648438 C 191.167969 42.535156 191.167969 41.421875 191.167969 40.304688 Z M 197.167969 43.984375 C 197.527344 43.996094 197.859375 44.109375 198.167969 44.320312 C 198.589844 45.054688 198.589844 45.777344 198.167969 46.492188 C 197.683594 46.753906 197.242188 46.699219 196.832031 46.324219 C 197.125 45.574219 197.234375 44.792969 197.167969 43.984375 Z M 197.167969 43.984375 "/>
</g>
<mask id="mask15">
  <g filter="url(#alpha)">
<rect x="0" y="0" width="254" height="97" style="fill:rgb(0%,0%,0%);fill-opacity:0.933333;stroke:none;"/>
  </g>
</mask>
<clipPath id="clip16">
  <rect x="0" y="0" width="254" height="97"/>
</clipPath>
<g id="surface50" clip-path="url(#clip16)">
<path style=" stroke:none;fill-rule:evenodd;fill:rgb(99.607843%,100%,99.607843%);fill-opacity:1;" d="M 48.832031 40.972656 C 50.726562 40.917969 52.613281 40.972656 54.5 41.140625 C 55.28125 41.257812 55.894531 41.648438 56.332031 42.3125 C 57.292969 44.535156 56.90625 46.429688 55.167969 48 C 57.617188 49.179688 58.339844 51.074219 57.332031 53.683594 C 56.378906 54.691406 55.210938 55.304688 53.832031 55.523438 C 50.972656 55.71875 48.140625 55.996094 45.332031 56.359375 C 44.863281 55.203125 44.695312 53.976562 44.832031 52.679688 C 45.226562 52.753906 45.558594 52.644531 45.832031 52.347656 C 45.492188 49.910156 45.269531 47.457031 45.167969 44.988281 C 44.832031 44.988281 44.5 44.988281 44.167969 44.988281 C 43.816406 43.867188 43.816406 42.75 44.167969 41.644531 C 45.765625 41.4375 47.320312 41.214844 48.832031 40.972656 Z M 50.167969 44.320312 C 51.601562 44.433594 52.101562 45.214844 51.667969 46.660156 C 51.328125 46.941406 50.941406 47.050781 50.5 46.996094 C 50.300781 46.117188 50.191406 45.222656 50.167969 44.320312 Z M 51.167969 49.335938 C 52.574219 50.019531 52.796875 50.964844 51.832031 52.179688 C 51.515625 52.339844 51.183594 52.394531 50.832031 52.347656 C 50.902344 51.535156 50.792969 50.757812 50.5 50.003906 C 50.746094 49.777344 50.96875 49.554688 51.167969 49.335938 Z M 51.167969 49.335938 "/>
</g>
<mask id="mask16">
  <g filter="url(#alpha)">
<rect x="0" y="0" width="254" height="97" style="fill:rgb(0%,0%,0%);fill-opacity:0.933333;stroke:none;"/>
  </g>
</mask>
<clipPath id="clip17">
  <rect x="0" y="0" width="254" height="97"/>
</clipPath>
<g id="surface53" clip-path="url(#clip17)">
<path style=" stroke:none;fill-rule:evenodd;fill:rgb(99.607843%,100%,99.607843%);fill-opacity:1;" d="M 206.167969 41.308594 C 208.546875 41.40625 210.878906 41.738281 213.167969 42.3125 C 214.222656 44.429688 215.277344 46.550781 216.332031 48.667969 C 216.652344 47.6875 216.816406 46.683594 216.832031 45.65625 C 216.5 45.65625 216.167969 45.65625 215.832031 45.65625 C 215.820312 44.527344 215.929688 43.410156 216.167969 42.3125 C 218.277344 42.445312 220.386719 42.558594 222.5 42.648438 C 222.265625 43.746094 222.152344 44.859375 222.167969 45.992188 C 221.625 45.945312 221.238281 46.167969 221 46.660156 C 220.613281 50.222656 220.335938 53.789062 220.167969 57.363281 C 218.375 57.273438 216.597656 57.050781 214.832031 56.695312 C 213.730469 54.035156 212.453125 51.472656 211 49 C 210.816406 50.976562 210.984375 52.925781 211.5 54.855469 C 211.390625 55.46875 211.277344 56.082031 211.167969 56.695312 C 209.179688 56.398438 207.179688 56.175781 205.167969 56.027344 C 205.113281 55.128906 205.167969 54.234375 205.332031 53.351562 C 205.570312 52.855469 205.957031 52.632812 206.5 52.679688 C 206.613281 49.992188 206.835938 47.316406 207.167969 44.652344 C 206.832031 44.652344 206.5 44.652344 206.167969 44.652344 C 206.167969 43.539062 206.167969 42.421875 206.167969 41.308594 Z M 206.167969 41.308594 "/>
</g>
<mask id="mask17">
  <g filter="url(#alpha)">
<rect x="0" y="0" width="254" height="97" style="fill:rgb(0%,0%,0%);fill-opacity:0.933333;stroke:none;"/>
  </g>
</mask>
<clipPath id="clip18">
  <rect x="0" y="0" width="254" height="97"/>
</clipPath>
<g id="surface56" clip-path="url(#clip18)">
<path style=" stroke:none;fill-rule:evenodd;fill:rgb(99.607843%,100%,99.607843%);fill-opacity:1;" d="M 36.832031 41.976562 C 37.691406 41.839844 38.414062 42.0625 39 42.648438 C 40.6875 47.222656 42.1875 51.796875 43.5 56.359375 C 41.160156 56.542969 38.828125 56.765625 36.5 57.03125 C 36.480469 55.523438 36.648438 54.074219 37 52.679688 C 36.324219 52.519531 35.601562 52.519531 34.832031 52.679688 C 34.832031 53.015625 34.832031 53.351562 34.832031 53.683594 C 35.167969 53.683594 35.5 53.683594 35.832031 53.683594 C 36.015625 54.789062 36.128906 55.90625 36.167969 57.03125 C 34.261719 57.140625 32.371094 57.367188 30.5 57.699219 C 29.882812 56.65625 29.714844 55.542969 30 54.351562 C 30.371094 53.867188 30.59375 53.3125 30.667969 52.679688 C 31.203125 49.339844 31.703125 45.992188 32.167969 42.648438 C 33.773438 42.480469 35.328125 42.257812 36.832031 41.976562 Z M 35.5 48 C 35.976562 48.671875 36.195312 49.453125 36.167969 50.339844 C 35.832031 50.339844 35.5 50.339844 35.167969 50.339844 C 35.226562 49.550781 35.335938 48.769531 35.5 48 Z M 35.5 48 "/>
</g>
<mask id="mask18">
  <g filter="url(#alpha)">
<rect x="0" y="0" width="254" height="97" style="fill:rgb(0%,0%,0%);fill-opacity:0.92549;stroke:none;"/>
  </g>
</mask>
<clipPath id="clip19">
  <rect x="0" y="0" width="254" height="97"/>
</clipPath>
<g id="surface59" clip-path="url(#clip19)">
<path style=" stroke:none;fill-rule:evenodd;fill:rgb(99.607843%,100%,99.607843%);fill-opacity:1;" d="M 26.167969 42.980469 C 27.390625 42.980469 28.609375 42.980469 29.832031 42.980469 C 30 44.535156 30.109375 46.097656 30.167969 47.664062 C 29.054688 47.773438 27.945312 47.886719 26.832031 48 C 26.683594 46.390625 26.460938 46.335938 26.167969 47.832031 C 26.472656 50 26.695312 52.171875 26.832031 54.351562 C 27.277344 54.351562 27.722656 54.351562 28.167969 54.351562 C 28.085938 55.382812 28.199219 56.386719 28.5 57.363281 C 28.332031 57.476562 28.167969 57.585938 28 57.699219 C 25.628906 58.109375 23.242188 58.332031 20.832031 58.367188 C 20.832031 57.253906 20.832031 56.136719 20.832031 55.023438 C 21.167969 55.023438 21.5 55.023438 21.832031 55.023438 C 21.648438 52.289062 21.261719 49.613281 20.667969 46.996094 C 20.5 47.160156 20.332031 47.328125 20.167969 47.496094 C 20.445312 47.835938 20.558594 48.226562 20.5 48.667969 C 19.390625 48.777344 18.277344 48.890625 17.167969 49 C 17.027344 47.472656 16.804688 45.964844 16.5 44.484375 C 16.609375 44.375 16.722656 44.261719 16.832031 44.152344 C 20.007812 43.867188 23.117188 43.476562 26.167969 42.980469 Z M 26.167969 42.980469 "/>
</g>
<mask id="mask19">
  <g filter="url(#alpha)">
<rect x="0" y="0" width="254" height="97" style="fill:rgb(0%,0%,0%);fill-opacity:0.929412;stroke:none;"/>
  </g>
</mask>
<clipPath id="clip20">
  <rect x="0" y="0" width="254" height="97"/>
</clipPath>
<g id="surface62" clip-path="url(#clip20)">
<path style=" stroke:none;fill-rule:evenodd;fill:rgb(99.607843%,100%,99.607843%);fill-opacity:1;" d="M 223.832031 42.980469 C 227.730469 43.285156 231.617188 43.675781 235.5 44.152344 C 235.699219 44.507812 235.808594 44.898438 235.832031 45.324219 C 235.660156 46.785156 235.4375 48.234375 235.167969 49.671875 C 233.84375 49.960938 232.511719 49.960938 231.167969 49.671875 C 231.078125 48.792969 231.1875 47.957031 231.5 47.160156 C 230.84375 46.996094 230.175781 46.941406 229.5 46.996094 C 229.445312 47.785156 229.5 48.5625 229.667969 49.335938 C 230.003906 49.617188 230.394531 49.726562 230.832031 49.671875 C 230.886719 50.347656 230.832031 51.019531 230.667969 51.675781 C 230.214844 51.972656 229.714844 52.082031 229.167969 52.011719 C 228.996094 52.90625 228.941406 53.800781 229 54.6875 C 229.453125 54.980469 229.953125 55.09375 230.5 55.023438 C 230.550781 53.984375 230.773438 52.980469 231.167969 52.011719 C 232.257812 52.265625 233.371094 52.429688 234.5 52.515625 C 234.808594 54.53125 234.695312 56.539062 234.167969 58.535156 C 230.28125 58.34375 226.390625 58.066406 222.5 57.699219 C 222.488281 56.566406 222.597656 55.453125 222.832031 54.351562 C 223.167969 54.351562 223.5 54.351562 223.832031 54.351562 C 224.054688 51.675781 224.277344 49 224.5 46.324219 C 224.167969 46.324219 223.832031 46.324219 223.5 46.324219 C 223.683594 45.21875 223.792969 44.105469 223.832031 42.980469 Z M 223.832031 42.980469 "/>
</g>
<mask id="mask20">
  <g filter="url(#alpha)">
<rect x="0" y="0" width="254" height="97" style="fill:rgb(0%,0%,0%);fill-opacity:0.882353;stroke:none;"/>
  </g>
</mask>
<clipPath id="clip21">
  <rect x="0" y="0" width="254" height="97"/>
</clipPath>
<g id="surface65" clip-path="url(#clip21)">
<path style=" stroke:none;fill-rule:evenodd;fill:rgb(99.607843%,100%,99.607843%);fill-opacity:1;" d="M 8.5 49.671875 C 10.140625 50.269531 11.695312 51.050781 13.167969 52.011719 C 11.953125 53.179688 10.621094 54.183594 9.167969 55.023438 C 7.59375 54.425781 6.148438 53.644531 4.832031 52.679688 C 6.140625 51.75 7.363281 50.746094 8.5 49.671875 Z M 8.5 49.671875 "/>
</g>
<mask id="mask21">
  <g filter="url(#alpha)">
<rect x="0" y="0" width="254" height="97" style="fill:rgb(0%,0%,0%);fill-opacity:0.882353;stroke:none;"/>
  </g>
</mask>
<clipPath id="clip22">
  <rect x="0" y="0" width="254" height="97"/>
</clipPath>
<g id="surface68" clip-path="url(#clip22)">
<path style=" stroke:none;fill-rule:evenodd;fill:rgb(99.607843%,100%,99.607843%);fill-opacity:1;" d="M 244.167969 49.671875 C 245.691406 50.527344 247.136719 51.53125 248.5 52.679688 C 248.445312 52.792969 248.390625 52.902344 248.332031 53.015625 C 246.964844 53.714844 245.574219 54.382812 244.167969 55.023438 C 242.714844 54.183594 241.378906 53.179688 240.167969 52.011719 C 241.519531 51.222656 242.855469 50.441406 244.167969 49.671875 Z M 244.167969 49.671875 "/>
</g>
<mask id="mask22">
  <g filter="url(#alpha)">
<rect x="0" y="0" width="254" height="97" style="fill:rgb(0%,0%,0%);fill-opacity:0.819608;stroke:none;"/>
  </g>
</mask>
<clipPath id="clip23">
  <rect x="0" y="0" width="254" height="97"/>
</clipPath>
<g id="surface71" clip-path="url(#clip23)">
<path style=" stroke:none;fill-rule:evenodd;fill:rgb(99.607843%,100%,99.607843%);fill-opacity:1;" d="M 96.5 63.050781 C 97.507812 62.996094 98.507812 63.050781 99.5 63.21875 C 100.699219 64.3125 100.808594 65.539062 99.832031 66.898438 C 100.394531 67.96875 100.726562 69.140625 100.832031 70.410156 C 100.316406 70.726562 99.761719 70.839844 99.167969 70.742188 C 99.222656 69.734375 99.164062 68.730469 99 67.734375 C 98.863281 67.578125 98.695312 67.46875 98.5 67.398438 C 98.085938 68.402344 98.085938 69.40625 98.5 70.410156 C 97.832031 70.855469 97.167969 70.855469 96.5 70.410156 C 96.933594 67.957031 96.933594 65.503906 96.5 63.050781 Z M 98.167969 63.71875 C 98.582031 63.996094 98.804688 64.445312 98.832031 65.058594 C 98.855469 65.6875 98.6875 66.246094 98.332031 66.730469 C 98.167969 65.730469 98.113281 64.726562 98.167969 63.71875 Z M 98.167969 63.71875 "/>
</g>
<mask id="mask23">
  <g filter="url(#alpha)">
<rect x="0" y="0" width="254" height="97" style="fill:rgb(0%,0%,0%);fill-opacity:0.74902;stroke:none;"/>
  </g>
</mask>
<clipPath id="clip24">
  <rect x="0" y="0" width="254" height="97"/>
</clipPath>
<g id="surface74" clip-path="url(#clip24)">
<path style=" stroke:none;fill-rule:evenodd;fill:rgb(99.607843%,100%,99.607843%);fill-opacity:1;" d="M 102.167969 63.050781 C 103.277344 63.050781 104.390625 63.050781 105.5 63.050781 C 105.554688 63.726562 105.5 64.398438 105.332031 65.058594 C 105.171875 64.625 105.113281 64.179688 105.167969 63.71875 C 104.722656 63.71875 104.277344 63.71875 103.832031 63.71875 C 103.832031 64.722656 103.832031 65.726562 103.832031 66.730469 C 104.484375 66.820312 104.984375 66.597656 105.332031 66.058594 C 105.554688 66.617188 105.554688 67.175781 105.332031 67.734375 C 104.882812 67.4375 104.382812 67.328125 103.832031 67.398438 C 103.832031 68.289062 103.832031 69.183594 103.832031 70.074219 C 104.277344 70.074219 104.722656 70.074219 105.167969 70.074219 C 105.117188 69.722656 105.171875 69.386719 105.332031 69.070312 C 105.496094 69.617188 105.554688 70.175781 105.5 70.742188 C 104.367188 70.851562 103.257812 70.738281 102.167969 70.410156 C 102.597656 67.957031 102.597656 65.503906 102.167969 63.050781 Z M 102.167969 63.050781 "/>
</g>
<mask id="mask24">
  <g filter="url(#alpha)">
<rect x="0" y="0" width="254" height="97" style="fill:rgb(0%,0%,0%);fill-opacity:0.752941;stroke:none;"/>
  </g>
</mask>
<clipPath id="clip25">
  <rect x="0" y="0" width="254" height="97"/>
</clipPath>
<g id="surface77" clip-path="url(#clip25)">
<path style=" stroke:none;fill-rule:evenodd;fill:rgb(99.607843%,100%,99.607843%);fill-opacity:1;" d="M 108.167969 63.050781 C 110.070312 62.953125 110.960938 63.847656 110.832031 65.726562 C 110.277344 65.726562 109.722656 65.726562 109.167969 65.726562 C 109.21875 65.046875 109.164062 64.378906 109 63.71875 C 108.542969 64.535156 108.375 65.425781 108.5 66.394531 C 110.757812 66.652344 111.425781 67.878906 110.5 70.074219 C 108.429688 71.347656 107.210938 70.789062 106.832031 68.402344 C 107.390625 68.402344 107.945312 68.402344 108.5 68.402344 C 108.40625 69 108.515625 69.558594 108.832031 70.074219 C 109.160156 69.09375 109.273438 68.089844 109.167969 67.0625 C 107.273438 67.179688 106.550781 66.285156 107 64.386719 C 107.230469 63.769531 107.617188 63.324219 108.167969 63.050781 Z M 108.167969 63.050781 "/>
</g>
<mask id="mask25">
  <g filter="url(#alpha)">
<rect x="0" y="0" width="254" height="97" style="fill:rgb(0%,0%,0%);fill-opacity:0.772549;stroke:none;"/>
  </g>
</mask>
<clipPath id="clip26">
  <rect x="0" y="0" width="254" height="97"/>
</clipPath>
<g id="surface80" clip-path="url(#clip26)">
<path style=" stroke:none;fill-rule:evenodd;fill:rgb(99.607843%,100%,99.607843%);fill-opacity:1;" d="M 111.832031 63.050781 C 113.167969 63.050781 114.5 63.050781 115.832031 63.050781 C 115.886719 63.726562 115.832031 64.398438 115.667969 65.058594 C 115.503906 64.625 115.449219 64.179688 115.5 63.71875 C 115.167969 63.71875 114.832031 63.71875 114.5 63.71875 C 114.402344 65.96875 114.511719 68.199219 114.832031 70.410156 C 114.167969 70.855469 113.5 70.855469 112.832031 70.410156 C 113.152344 68.199219 113.265625 65.96875 113.167969 63.71875 C 112.832031 63.71875 112.5 63.71875 112.167969 63.71875 C 112.21875 64.179688 112.164062 64.625 112 65.058594 C 111.835938 64.398438 111.78125 63.726562 111.832031 63.050781 Z M 111.832031 63.050781 "/>
</g>
<mask id="mask26">
  <g filter="url(#alpha)">
<rect x="0" y="0" width="254" height="97" style="fill:rgb(0%,0%,0%);fill-opacity:0.721569;stroke:none;"/>
  </g>
</mask>
<clipPath id="clip27">
  <rect x="0" y="0" width="254" height="97"/>
</clipPath>
<g id="surface83" clip-path="url(#clip27)">
<path style=" stroke:none;fill-rule:evenodd;fill:rgb(99.607843%,100%,99.607843%);fill-opacity:1;" d="M 118.5 63.050781 C 119.167969 63.050781 119.832031 63.050781 120.5 63.050781 C 120.558594 65.582031 121.003906 68.03125 121.832031 70.410156 C 121.203125 70.730469 120.535156 70.84375 119.832031 70.742188 C 119.832031 70.074219 119.832031 69.40625 119.832031 68.734375 C 118.367188 68.53125 117.921875 69.089844 118.5 70.410156 C 118.054688 70.855469 117.609375 70.855469 117.167969 70.410156 C 117.910156 68.011719 118.355469 65.558594 118.5 63.050781 Z M 118.832031 65.726562 C 119.308594 66.398438 119.53125 67.179688 119.5 68.066406 C 119.109375 68.140625 118.773438 68.027344 118.5 67.734375 C 118.78125 67.09375 118.894531 66.425781 118.832031 65.726562 Z M 118.832031 65.726562 "/>
</g>
<mask id="mask27">
  <g filter="url(#alpha)">
<rect x="0" y="0" width="254" height="97" style="fill:rgb(0%,0%,0%);fill-opacity:0.788235;stroke:none;"/>
  </g>
</mask>
<clipPath id="clip28">
  <rect x="0" y="0" width="254" height="97"/>
</clipPath>
<g id="surface86" clip-path="url(#clip28)">
<path style=" stroke:none;fill-rule:evenodd;fill:rgb(99.607843%,100%,99.607843%);fill-opacity:1;" d="M 123.167969 63.050781 C 124.5 63.050781 125.832031 63.050781 127.167969 63.050781 C 127.222656 65.28125 127.167969 67.511719 127 69.738281 C 126.277344 70.671875 125.332031 70.949219 124.167969 70.574219 C 123.765625 70.273438 123.488281 69.882812 123.332031 69.40625 C 123.167969 67.289062 123.113281 65.171875 123.167969 63.050781 Z M 124.832031 63.71875 C 125.273438 64.640625 125.496094 65.699219 125.5 66.898438 C 125.390625 67.957031 125.277344 69.015625 125.167969 70.074219 C 124.835938 67.96875 124.722656 65.847656 124.832031 63.71875 Z M 124.832031 63.71875 "/>
</g>
<mask id="mask28">
  <g filter="url(#alpha)">
<rect x="0" y="0" width="254" height="97" style="fill:rgb(0%,0%,0%);fill-opacity:0.803922;stroke:none;"/>
  </g>
</mask>
<clipPath id="clip29">
  <rect x="0" y="0" width="254" height="97"/>
</clipPath>
<g id="surface89" clip-path="url(#clip29)">
<path style=" stroke:none;fill-rule:evenodd;fill:rgb(99.607843%,100%,99.607843%);fill-opacity:1;" d="M 128.832031 63.050781 C 129.839844 62.996094 130.839844 63.050781 131.832031 63.21875 C 133.03125 64.3125 133.144531 65.539062 132.167969 66.898438 C 132.726562 67.96875 133.058594 69.140625 133.167969 70.410156 C 132.652344 70.726562 132.097656 70.839844 131.5 70.742188 C 131.554688 69.84375 131.5 68.953125 131.332031 68.066406 C 131.230469 67.796875 131.0625 67.574219 130.832031 67.398438 C 130.417969 68.402344 130.417969 69.40625 130.832031 70.410156 C 130.167969 70.855469 129.5 70.855469 128.832031 70.410156 C 129.265625 67.957031 129.265625 65.503906 128.832031 63.050781 Z M 130.5 63.71875 C 130.914062 63.996094 131.136719 64.445312 131.167969 65.058594 C 131.1875 65.6875 131.019531 66.246094 130.667969 66.730469 C 130.5 65.730469 130.445312 64.726562 130.5 63.71875 Z M 130.5 63.71875 "/>
</g>
<mask id="mask29">
  <g filter="url(#alpha)">
<rect x="0" y="0" width="254" height="97" style="fill:rgb(0%,0%,0%);fill-opacity:0.72549;stroke:none;"/>
  </g>
</mask>
<clipPath id="clip30">
  <rect x="0" y="0" width="254" height="97"/>
</clipPath>
<g id="surface92" clip-path="url(#clip30)">
<path style=" stroke:none;fill-rule:evenodd;fill:rgb(99.607843%,100%,99.607843%);fill-opacity:1;" d="M 135.5 63.050781 C 136.308594 62.945312 137.085938 63.058594 137.832031 63.382812 C 137.722656 63.609375 137.609375 63.832031 137.5 64.054688 C 137.878906 66.238281 138.433594 68.359375 139.167969 70.410156 C 138.390625 70.855469 137.609375 70.855469 136.832031 70.410156 C 137.101562 69.882812 137.214844 69.324219 137.167969 68.734375 C 136.609375 68.734375 136.054688 68.734375 135.5 68.734375 C 135.5 69.40625 135.5 70.074219 135.5 70.742188 C 135.167969 70.742188 134.832031 70.742188 134.5 70.742188 C 134.890625 68.617188 135.335938 66.5 135.832031 64.386719 C 135.71875 63.9375 135.605469 63.492188 135.5 63.050781 Z M 136.167969 65.390625 C 136.511719 66.214844 136.734375 67.105469 136.832031 68.066406 C 136.5 68.066406 136.167969 68.066406 135.832031 68.066406 C 136.03125 67.1875 136.140625 66.296875 136.167969 65.390625 Z M 136.167969 65.390625 "/>
</g>
<mask id="mask30">
  <g filter="url(#alpha)">
<rect x="0" y="0" width="254" height="97" style="fill:rgb(0%,0%,0%);fill-opacity:0.705882;stroke:none;"/>
  </g>
</mask>
<clipPath id="clip31">
  <rect x="0" y="0" width="254" height="97"/>
</clipPath>
<g id="surface95" clip-path="url(#clip31)">
<path style=" stroke:none;fill-rule:evenodd;fill:rgb(99.607843%,100%,99.607843%);fill-opacity:1;" d="M 140.167969 63.050781 C 140.832031 63.050781 141.5 63.050781 142.167969 63.050781 C 142.339844 64.296875 142.617188 65.519531 143 66.730469 C 143.25 65.59375 143.195312 64.480469 142.832031 63.382812 C 143.277344 62.9375 143.722656 62.9375 144.167969 63.382812 C 143.84375 65.816406 143.734375 68.269531 143.832031 70.742188 C 143.339844 70.832031 142.894531 70.71875 142.5 70.410156 C 142.113281 69.074219 141.722656 67.734375 141.332031 66.394531 C 141.078125 67.753906 141.132812 69.089844 141.5 70.410156 C 141.054688 70.855469 140.609375 70.855469 140.167969 70.410156 C 140.597656 67.957031 140.597656 65.503906 140.167969 63.050781 Z M 140.167969 63.050781 "/>
</g>
<mask id="mask31">
  <g filter="url(#alpha)">
<rect x="0" y="0" width="254" height="97" style="fill:rgb(0%,0%,0%);fill-opacity:0.654902;stroke:none;"/>
  </g>
</mask>
<clipPath id="clip32">
  <rect x="0" y="0" width="254" height="97"/>
</clipPath>
<g id="surface98" clip-path="url(#clip32)">
<path style=" stroke:none;fill-rule:evenodd;fill:rgb(99.607843%,100%,99.607843%);fill-opacity:1;" d="M 145.5 63.050781 C 146.945312 63.050781 148.390625 63.050781 149.832031 63.050781 C 149.890625 65.121094 149.558594 65.34375 148.832031 63.71875 C 148.402344 65.957031 148.402344 68.1875 148.832031 70.410156 C 148.054688 70.855469 147.277344 70.855469 146.5 70.410156 C 146.933594 68.1875 146.933594 65.957031 146.5 63.71875 C 145.773438 65.34375 145.441406 65.121094 145.5 63.050781 Z M 145.5 63.050781 "/>
</g>
<mask id="mask32">
  <g filter="url(#alpha)">
<rect x="0" y="0" width="254" height="97" style="fill:rgb(0%,0%,0%);fill-opacity:0.701961;stroke:none;"/>
  </g>
</mask>
<clipPath id="clip33">
  <rect x="0" y="0" width="254" height="97"/>
</clipPath>
<g id="surface101" clip-path="url(#clip33)">
<path style=" stroke:none;fill-rule:evenodd;fill:rgb(99.607843%,100%,99.607843%);fill-opacity:1;" d="M 151.167969 63.050781 C 152.277344 63.050781 153.390625 63.050781 154.5 63.050781 C 154.601562 63.753906 154.488281 64.421875 154.167969 65.058594 C 153.855469 64.660156 153.746094 64.214844 153.832031 63.71875 C 153.5 63.71875 153.167969 63.71875 152.832031 63.71875 C 152.832031 64.722656 152.832031 65.726562 152.832031 66.730469 C 153.382812 66.734375 153.824219 66.511719 154.167969 66.058594 C 154.609375 66.617188 154.609375 67.175781 154.167969 67.734375 C 153.753906 67.484375 153.308594 67.371094 152.832031 67.398438 C 152.832031 68.289062 152.832031 69.183594 152.832031 70.074219 C 153.167969 70.074219 153.5 70.074219 153.832031 70.074219 C 153.761719 69.679688 153.871094 69.347656 154.167969 69.070312 C 154.484375 69.585938 154.59375 70.144531 154.5 70.742188 C 153.367188 70.851562 152.257812 70.738281 151.167969 70.410156 C 151.597656 67.957031 151.597656 65.503906 151.167969 63.050781 Z M 151.167969 63.050781 "/>
</g>
<mask id="mask33">
  <g filter="url(#alpha)">
<rect x="0" y="0" width="254" height="97" style="fill:rgb(0%,0%,0%);fill-opacity:0.580392;stroke:none;"/>
  </g>
</mask>
<clipPath id="clip34">
  <rect x="0" y="0" width="254" height="97"/>
</clipPath>
<g id="surface104" clip-path="url(#clip34)">
<path style=" stroke:none;fill-rule:evenodd;fill:rgb(99.607843%,100%,99.607843%);fill-opacity:1;" d="M 101.167969 81.78125 C 101.753906 82.035156 102.367188 82.257812 103 82.449219 C 103.609375 82.914062 103.5 83.25 102.667969 83.453125 C 102.167969 83.285156 101.667969 83.117188 101.167969 82.953125 C 100.941406 82.621094 100.941406 82.230469 101.167969 81.78125 Z M 101.167969 81.78125 "/>
</g>
<mask id="mask34">
  <g filter="url(#alpha)">
<rect x="0" y="0" width="254" height="97" style="fill:rgb(0%,0%,0%);fill-opacity:0.717647;stroke:none;"/>
  </g>
</mask>
<clipPath id="clip35">
  <rect x="0" y="0" width="254" height="97"/>
</clipPath>
<g id="surface107" clip-path="url(#clip35)">
<path style=" stroke:none;fill-rule:evenodd;fill:rgb(99.607843%,100%,99.607843%);fill-opacity:1;" d="M 108.167969 82.117188 C 109.421875 81.960938 110.199219 82.460938 110.5 83.621094 C 110.300781 84.699219 110.023438 85.761719 109.667969 86.796875 C 108.871094 87.109375 108.039062 87.222656 107.167969 87.132812 C 107.554688 85.472656 107.886719 83.796875 108.167969 82.117188 Z M 108.832031 83.453125 C 109.164062 83.445312 109.386719 83.609375 109.5 83.957031 C 109.296875 84.820312 109.019531 85.65625 108.667969 86.464844 C 108.566406 85.457031 108.621094 84.453125 108.832031 83.453125 Z M 108.832031 83.453125 "/>
</g>
<mask id="mask35">
  <g filter="url(#alpha)">
<rect x="0" y="0" width="254" height="97" style="fill:rgb(0%,0%,0%);fill-opacity:0.698039;stroke:none;"/>
  </g>
</mask>
<clipPath id="clip36">
  <rect x="0" y="0" width="254" height="97"/>
</clipPath>
<g id="surface110" clip-path="url(#clip36)">
<path style=" stroke:none;fill-rule:evenodd;fill:rgb(99.607843%,100%,99.607843%);fill-opacity:1;" d="M 141.5 82.449219 C 141.945312 82.449219 142.390625 82.449219 142.832031 82.449219 C 142.855469 84.160156 142.632812 85.832031 142.167969 87.46875 C 141.832031 87.914062 141.5 87.914062 141.167969 87.46875 C 141.496094 86.261719 141.71875 85.035156 141.832031 83.789062 C 141.277344 83.789062 140.722656 83.789062 140.167969 83.789062 C 140.167969 83.453125 140.167969 83.117188 140.167969 82.785156 C 140.699219 82.875 141.144531 82.761719 141.5 82.449219 Z M 141.5 82.449219 "/>
</g>
<mask id="mask36">
  <g filter="url(#alpha)">
<rect x="0" y="0" width="254" height="97" style="fill:rgb(0%,0%,0%);fill-opacity:0.623529;stroke:none;"/>
  </g>
</mask>
<clipPath id="clip37">
  <rect x="0" y="0" width="254" height="97"/>
</clipPath>
<g id="surface113" clip-path="url(#clip37)">
<path style=" stroke:none;fill-rule:evenodd;fill:rgb(99.607843%,100%,99.607843%);fill-opacity:1;" d="M 149.167969 82.449219 C 149.820312 82.601562 149.933594 82.933594 149.5 83.453125 C 148.972656 83.835938 148.417969 84.003906 147.832031 83.957031 C 147.679688 83.816406 147.570312 83.648438 147.5 83.453125 C 148.046875 83.054688 148.605469 82.71875 149.167969 82.449219 Z M 149.167969 82.449219 "/>
</g>
<mask id="mask37">
  <g filter="url(#alpha)">
<rect x="0" y="0" width="254" height="97" style="fill:rgb(0%,0%,0%);fill-opacity:0.694118;stroke:none;"/>
  </g>
</mask>
<clipPath id="clip38">
  <rect x="0" y="0" width="254" height="97"/>
</clipPath>
<g id="surface116" clip-path="url(#clip38)">
<path style=" stroke:none;fill-rule:evenodd;fill:rgb(99.607843%,100%,99.607843%);fill-opacity:1;" d="M 111.832031 82.785156 C 112.589844 83.023438 113.367188 83.136719 114.167969 83.117188 C 114.167969 83.453125 114.167969 83.789062 114.167969 84.121094 C 113.609375 84.121094 113.054688 84.121094 112.5 84.121094 C 112.5 84.457031 112.5 84.792969 112.5 85.125 C 113.117188 85.03125 113.558594 85.257812 113.832031 85.792969 C 113.316406 86.113281 112.761719 86.226562 112.167969 86.128906 C 112.167969 86.464844 112.167969 86.796875 112.167969 87.132812 C 112.699219 87.070312 113.144531 87.238281 113.5 87.632812 C 112.800781 88.085938 112.023438 88.253906 111.167969 88.136719 C 111.257812 86.335938 111.480469 84.550781 111.832031 82.785156 Z M 111.832031 82.785156 "/>
</g>
<mask id="mask38">
  <g filter="url(#alpha)">
<rect x="0" y="0" width="254" height="97" style="fill:rgb(0%,0%,0%);fill-opacity:0.694118;stroke:none;"/>
  </g>
</mask>
<clipPath id="clip39">
  <rect x="0" y="0" width="254" height="97"/>
</clipPath>
<g id="surface119" clip-path="url(#clip39)">
<path style=" stroke:none;fill-rule:evenodd;fill:rgb(99.607843%,100%,99.607843%);fill-opacity:1;" d="M 137.167969 83.453125 C 137.90625 83.347656 138.519531 83.570312 139 84.121094 C 139.472656 85.523438 139.527344 86.917969 139.167969 88.304688 C 138.417969 88.59375 137.804688 88.425781 137.332031 87.800781 C 136.804688 86.347656 136.746094 84.898438 137.167969 83.453125 Z M 137.832031 84.457031 C 138.273438 85.386719 138.441406 86.390625 138.332031 87.46875 C 137.949219 86.5 137.785156 85.496094 137.832031 84.457031 Z M 137.832031 84.457031 "/>
</g>
<mask id="mask39">
  <g filter="url(#alpha)">
<rect x="0" y="0" width="254" height="97" style="fill:rgb(0%,0%,0%);fill-opacity:0.686275;stroke:none;"/>
  </g>
</mask>
<clipPath id="clip40">
  <rect x="0" y="0" width="254" height="97"/>
</clipPath>
<g id="surface122" clip-path="url(#clip40)">
<path style=" stroke:none;fill-rule:evenodd;fill:rgb(99.607843%,100%,99.607843%);fill-opacity:1;" d="M 116.832031 85.792969 C 117.699219 86.742188 117.699219 87.691406 116.832031 88.636719 C 115.386719 88.917969 114.722656 88.304688 114.832031 86.796875 C 115.167969 86.796875 115.5 86.796875 115.832031 86.796875 C 114.582031 84.742188 115.136719 83.796875 117.5 83.957031 C 117.800781 84.523438 117.914062 85.136719 117.832031 85.792969 C 117.5 85.792969 117.167969 85.792969 116.832031 85.792969 Z M 116.832031 85.792969 C 116.222656 85.582031 116.113281 85.246094 116.5 84.792969 C 116.796875 85.066406 116.90625 85.402344 116.832031 85.792969 Z M 115.832031 86.796875 C 116.488281 86.949219 116.597656 87.28125 116.167969 87.800781 C 115.871094 87.527344 115.761719 87.191406 115.832031 86.796875 Z M 115.832031 86.796875 "/>
</g>
<mask id="mask40">
  <g filter="url(#alpha)">
<rect x="0" y="0" width="254" height="97" style="fill:rgb(0%,0%,0%);fill-opacity:0.694118;stroke:none;"/>
  </g>
</mask>
<clipPath id="clip41">
  <rect x="0" y="0" width="254" height="97"/>
</clipPath>
<g id="surface125" clip-path="url(#clip41)">
<path style=" stroke:none;fill-rule:evenodd;fill:rgb(99.607843%,100%,99.607843%);fill-opacity:1;" d="M 133.832031 83.789062 C 134.464844 83.71875 134.964844 83.941406 135.332031 84.457031 C 135.605469 85.792969 135.714844 87.132812 135.667969 88.46875 C 134.238281 89.394531 133.460938 88.949219 133.332031 87.132812 C 133.011719 85.914062 133.179688 84.796875 133.832031 83.789062 Z M 134.167969 85.125 C 134.5625 85.953125 134.730469 86.84375 134.667969 87.800781 C 134.207031 86.988281 134.042969 86.09375 134.167969 85.125 Z M 134.167969 85.125 "/>
</g>
<mask id="mask41">
  <g filter="url(#alpha)">
<rect x="0" y="0" width="254" height="97" style="fill:rgb(0%,0%,0%);fill-opacity:0.745098;stroke:none;"/>
  </g>
</mask>
<clipPath id="clip42">
  <rect x="0" y="0" width="254" height="97"/>
</clipPath>
<g id="surface128" clip-path="url(#clip42)">
<path style=" stroke:none;fill-rule:evenodd;fill:rgb(99.607843%,100%,99.607843%);fill-opacity:1;" d="M 119.167969 84.121094 C 120.777344 83.84375 121.554688 84.511719 121.5 86.128906 C 121.4375 87.042969 121.273438 87.933594 121 88.804688 C 120.320312 89.113281 119.597656 89.226562 118.832031 89.140625 C 118.804688 87.453125 118.914062 85.78125 119.167969 84.121094 Z M 119.832031 85.125 C 120.25 85.40625 120.472656 85.851562 120.5 86.464844 C 120.519531 87.09375 120.355469 87.652344 120 88.136719 C 119.835938 87.140625 119.777344 86.136719 119.832031 85.125 Z M 119.832031 85.125 "/>
</g>
<mask id="mask42">
  <g filter="url(#alpha)">
<rect x="0" y="0" width="254" height="97" style="fill:rgb(0%,0%,0%);fill-opacity:0.694118;stroke:none;"/>
  </g>
</mask>
<clipPath id="clip43">
  <rect x="0" y="0" width="254" height="97"/>
</clipPath>
<g id="surface131" clip-path="url(#clip43)">
<path style=" stroke:none;fill-rule:evenodd;fill:rgb(99.607843%,100%,99.607843%);fill-opacity:1;" d="M 130.167969 84.121094 C 131.71875 84.371094 132.21875 85.261719 131.667969 86.796875 C 131.453125 87.289062 131.175781 87.734375 130.832031 88.136719 C 131.277344 88.359375 131.722656 88.582031 132.167969 88.804688 C 131.464844 89.289062 130.6875 89.511719 129.832031 89.472656 C 130.191406 87.664062 130.414062 86.546875 130.5 86.128906 C 130.167969 86.128906 129.832031 86.128906 129.5 86.128906 C 129.417969 85.339844 129.640625 84.671875 130.167969 84.121094 Z M 130.167969 84.121094 "/>
</g>
<mask id="mask43">
  <g filter="url(#alpha)">
<rect x="0" y="0" width="254" height="97" style="fill:rgb(0%,0%,0%);fill-opacity:0.713725;stroke:none;"/>
  </g>
</mask>
<clipPath id="clip44">
  <rect x="0" y="0" width="254" height="97"/>
</clipPath>
<g id="surface134" clip-path="url(#clip44)">
<path style=" stroke:none;fill-rule:evenodd;fill:rgb(99.607843%,100%,99.607843%);fill-opacity:1;" d="M 122.832031 84.457031 C 123.609375 84.457031 124.390625 84.457031 125.167969 84.457031 C 125.167969 84.792969 125.167969 85.125 125.167969 85.460938 C 124.722656 85.460938 124.277344 85.460938 123.832031 85.460938 C 123.832031 85.792969 123.832031 86.128906 123.832031 86.464844 C 124.324219 86.375 124.769531 86.488281 125.167969 86.796875 C 124.777344 87.371094 124.222656 87.59375 123.5 87.46875 C 123.5 87.800781 123.5 88.136719 123.5 88.46875 C 123.945312 88.46875 124.390625 88.46875 124.832031 88.46875 C 124.832031 88.804688 124.832031 89.140625 124.832031 89.472656 C 124.054688 89.472656 123.277344 89.472656 122.5 89.472656 C 122.75 87.8125 122.863281 86.140625 122.832031 84.457031 Z M 122.832031 84.457031 "/>
</g>
</defs>
<g id="surface1">
<use xlink:href="#surface5" mask="url(#mask0)"/>
<use xlink:href="#surface8" mask="url(#mask1)"/>
<use xlink:href="#surface11" mask="url(#mask2)"/>
<use xlink:href="#surface14" mask="url(#mask3)"/>
<use xlink:href="#surface17" mask="url(#mask4)"/>
<use xlink:href="#surface20" mask="url(#mask5)"/>
<use xlink:href="#surface23" mask="url(#mask6)"/>
<use xlink:href="#surface26" mask="url(#mask7)"/>
<use xlink:href="#surface29" mask="url(#mask8)"/>
<use xlink:href="#surface32" mask="url(#mask9)"/>
<use xlink:href="#surface35" mask="url(#mask10)"/>
<use xlink:href="#surface38" mask="url(#mask11)"/>
<use xlink:href="#surface41" mask="url(#mask12)"/>
<use xlink:href="#surface44" mask="url(#mask13)"/>
<use xlink:href="#surface47" mask="url(#mask14)"/>
<use xlink:href="#surface50" mask="url(#mask15)"/>
<use xlink:href="#surface53" mask="url(#mask16)"/>
<use xlink:href="#surface56" mask="url(#mask17)"/>
<use xlink:href="#surface59" mask="url(#mask18)"/>
<use xlink:href="#surface62" mask="url(#mask19)"/>
<use xlink:href="#surface65" mask="url(#mask20)"/>
<use xlink:href="#surface68" mask="url(#mask21)"/>
<use xlink:href="#surface71" mask="url(#mask22)"/>
<use xlink:href="#surface74" mask="url(#mask23)"/>
<use xlink:href="#surface77" mask="url(#mask24)"/>
<use xlink:href="#surface80" mask="url(#mask25)"/>
<use xlink:href="#surface83" mask="url(#mask26)"/>
<use xlink:href="#surface86" mask="url(#mask27)"/>
<use xlink:href="#surface89" mask="url(#mask28)"/>
<use xlink:href="#surface92" mask="url(#mask29)"/>
<use xlink:href="#surface95" mask="url(#mask30)"/>
<use xlink:href="#surface98" mask="url(#mask31)"/>
<use xlink:href="#surface101" mask="url(#mask32)"/>
<use xlink:href="#surface104" mask="url(#mask33)"/>
<use xlink:href="#surface107" mask="url(#mask34)"/>
<use xlink:href="#surface110" mask="url(#mask35)"/>
<use xlink:href="#surface113" mask="url(#mask36)"/>
<use xlink:href="#surface116" mask="url(#mask37)"/>
<use xlink:href="#surface119" mask="url(#mask38)"/>
<use xlink:href="#surface122" mask="url(#mask39)"/>
<use xlink:href="#surface125" mask="url(#mask40)"/>
<use xlink:href="#surface128" mask="url(#mask41)"/>
<use xlink:href="#surface131" mask="url(#mask42)"/>
<use xlink:href="#surface134" mask="url(#mask43)"/>
</g>
</svg>
