<?xml version="1.0" encoding="UTF-8"?>
<svg xmlns="http://www.w3.org/2000/svg" xmlns:xlink="http://www.w3.org/1999/xlink" width="256px" height="97px" viewBox="0 0 256 97" version="1.1">
<defs>
<filter id="alpha" filterUnits="objectBoundingBox" x="0%" y="0%" width="100%" height="100%">
  <feColorMatrix type="matrix" in="SourceGraphic" values="0 0 0 0 1 0 0 0 0 1 0 0 0 0 1 0 0 0 1 0"/>
</filter>
<mask id="mask0">
  <g filter="url(#alpha)">
<rect x="0" y="0" width="256" height="97" style="fill:rgb(0%,0%,0%);fill-opacity:0.968627;stroke:none;"/>
  </g>
</mask>
<clipPath id="clip1">
  <rect x="0" y="0" width="256" height="97"/>
</clipPath>
<g id="surface5" clip-path="url(#clip1)">
<path style=" stroke:none;fill-rule:evenodd;fill:rgb(0%,0%,0%);fill-opacity:1;" d="M 118.089844 7.527344 C 124.246094 7.527344 130.410156 7.527344 136.566406 7.527344 C 136.566406 9.53125 136.566406 11.539062 136.566406 13.546875 C 135.113281 13.546875 133.652344 13.546875 132.199219 13.546875 C 132.199219 12.988281 132.199219 12.433594 132.199219 11.875 C 131.753906 11.875 131.300781 11.875 130.855469 11.875 C 130.914062 15 130.855469 18.117188 130.6875 21.238281 C 129.691406 22.566406 128.570312 23.792969 127.328125 24.917969 C 126.285156 23.628906 125.167969 22.402344 123.96875 21.238281 C 123.800781 18.117188 123.742188 15 123.800781 11.875 C 123.355469 11.875 122.902344 11.875 122.457031 11.875 C 122.457031 12.433594 122.457031 12.988281 122.457031 13.546875 C 121.003906 13.546875 119.542969 13.546875 118.089844 13.546875 C 118.089844 11.539062 118.089844 9.53125 118.089844 7.527344 Z M 118.089844 7.527344 "/>
</g>
<mask id="mask1">
  <g filter="url(#alpha)">
<rect x="0" y="0" width="256" height="97" style="fill:rgb(0%,0%,0%);fill-opacity:0.898039;stroke:none;"/>
  </g>
</mask>
<clipPath id="clip2">
  <rect x="0" y="0" width="256" height="97"/>
</clipPath>
<g id="surface8" clip-path="url(#clip2)">
<path style=" stroke:none;fill-rule:evenodd;fill:rgb(0%,0%,0%);fill-opacity:1;" d="M 127.832031 26.257812 C 127.832031 26.480469 127.941406 26.589844 128.167969 26.589844 C 128.167969 26.816406 128.277344 26.925781 128.503906 26.925781 C 128.503906 27.148438 128.613281 27.261719 128.839844 27.261719 C 128.839844 27.484375 128.949219 27.59375 129.175781 27.59375 C 129.835938 28.417969 130.5625 29.199219 131.359375 29.9375 C 131.960938 32.070312 131.234375 32.738281 129.175781 31.941406 C 128.71875 30.820312 127.9375 30.039062 126.824219 29.601562 C 126.824219 29.378906 126.714844 29.265625 126.488281 29.265625 C 126.488281 29.042969 126.378906 28.933594 126.152344 28.933594 C 126.152344 28.707031 126.042969 28.597656 125.816406 28.597656 C 125.816406 28.375 125.707031 28.265625 125.480469 28.265625 C 124.632812 26.800781 123.625 25.464844 122.457031 24.25 C 121.714844 25.101562 120.929688 25.9375 120.105469 26.757812 C 119.769531 26.984375 119.433594 26.984375 119.097656 26.757812 C 116.242188 23.691406 113.386719 20.628906 110.53125 17.558594 C 110.296875 17.28125 110.355469 17.058594 110.699219 16.890625 C 112.152344 15.945312 113.609375 14.996094 115.066406 14.046875 C 115.648438 13.832031 116.207031 13.886719 116.746094 14.214844 C 119.734375 18.863281 123.429688 22.878906 127.832031 26.257812 Z M 127.832031 26.257812 "/>
</g>
<mask id="mask2">
  <g filter="url(#alpha)">
<rect x="0" y="0" width="256" height="97" style="fill:rgb(0%,0%,0%);fill-opacity:0.909804;stroke:none;"/>
  </g>
</mask>
<clipPath id="clip3">
  <rect x="0" y="0" width="256" height="97"/>
</clipPath>
<g id="surface11" clip-path="url(#clip3)">
<path style=" stroke:none;fill-rule:evenodd;fill:rgb(0%,0%,0%);fill-opacity:1;" d="M 129.175781 27.59375 C 128.949219 27.59375 128.839844 27.484375 128.839844 27.261719 C 128.613281 27.261719 128.503906 27.148438 128.503906 26.925781 C 128.277344 26.925781 128.167969 26.816406 128.167969 26.589844 C 127.941406 26.589844 127.832031 26.480469 127.832031 26.257812 C 128.789062 24.355469 130.1875 22.796875 132.03125 21.574219 C 134.117188 19.164062 136.078125 16.652344 137.910156 14.046875 C 138.472656 13.824219 139.03125 13.824219 139.589844 14.046875 C 140.765625 14.910156 141.996094 15.695312 143.285156 16.390625 C 143.792969 16.671875 143.960938 17.058594 143.789062 17.558594 C 140.933594 20.628906 138.078125 23.691406 135.222656 26.757812 C 134.007812 26.28125 133 25.445312 132.199219 24.25 C 131.183594 25.371094 130.175781 26.488281 129.175781 27.59375 Z M 129.175781 27.59375 "/>
</g>
<mask id="mask3">
  <g filter="url(#alpha)">
<rect x="0" y="0" width="256" height="97" style="fill:rgb(0%,0%,0%);fill-opacity:0.858824;stroke:none;"/>
  </g>
</mask>
<clipPath id="clip4">
  <rect x="0" y="0" width="256" height="97"/>
</clipPath>
<g id="surface14" clip-path="url(#clip4)">
<path style=" stroke:none;fill-rule:evenodd;fill:rgb(0%,0%,0%);fill-opacity:1;" d="M 72.398438 16.558594 C 74.5625 16.871094 75.964844 18.09375 76.597656 20.234375 C 77.046875 21.667969 77.265625 23.121094 77.269531 24.585938 C 77.011719 22.335938 75.945312 20.609375 74.078125 19.398438 C 71.152344 19.304688 69.582031 20.75 69.375 23.75 C 69.597656 26.757812 71.164062 28.652344 74.078125 29.433594 C 76.007812 29.699219 77.910156 29.589844 79.789062 29.101562 C 82.785156 27.832031 85.695312 26.382812 88.523438 24.75 C 96.382812 21.519531 103.4375 22.691406 109.691406 28.265625 C 109.632812 28.375 109.578125 28.488281 109.523438 28.597656 C 105.214844 25.363281 100.453125 24.527344 95.242188 26.089844 C 91.726562 27.171875 88.367188 28.621094 85.164062 30.4375 C 81.753906 32.214844 78.167969 32.769531 74.414062 32.109375 C 68.402344 29.753906 66.554688 25.574219 68.871094 19.566406 C 69.707031 18.117188 70.882812 17.117188 72.398438 16.558594 Z M 72.398438 16.558594 "/>
</g>
<mask id="mask4">
  <g filter="url(#alpha)">
<rect x="0" y="0" width="256" height="97" style="fill:rgb(0%,0%,0%);fill-opacity:0.858824;stroke:none;"/>
  </g>
</mask>
<clipPath id="clip5">
  <rect x="0" y="0" width="256" height="97"/>
</clipPath>
<g id="surface17" clip-path="url(#clip5)">
<path style=" stroke:none;fill-rule:evenodd;fill:rgb(0%,0%,0%);fill-opacity:1;" d="M 181.921875 16.558594 C 185.523438 17.53125 187.3125 19.929688 187.296875 23.75 C 186.773438 29.289062 183.691406 32.242188 178.058594 32.613281 C 177 32.414062 175.933594 32.246094 174.867188 32.109375 C 170.832031 30.714844 166.910156 29.042969 163.109375 27.09375 C 158.835938 25.308594 154.464844 24.972656 150.003906 26.089844 C 148.417969 26.878906 146.964844 27.605469 145.636719 28.265625 C 149.058594 24.765625 153.257812 22.980469 158.234375 22.910156 C 160.839844 23.011719 163.359375 23.515625 165.796875 24.417969 C 168.964844 26.125 172.214844 27.683594 175.539062 29.101562 C 178.328125 29.933594 181.015625 29.707031 183.601562 28.429688 C 186.175781 25.898438 186.453125 23.167969 184.441406 20.234375 C 182.539062 18.765625 180.859375 18.984375 179.402344 20.90625 C 178.753906 22.058594 178.304688 23.285156 178.058594 24.585938 C 177.96875 21.945312 178.699219 19.546875 180.242188 17.394531 C 180.851562 17.140625 181.410156 16.859375 181.921875 16.558594 Z M 181.921875 16.558594 "/>
</g>
<mask id="mask5">
  <g filter="url(#alpha)">
<rect x="0" y="0" width="256" height="97" style="fill:rgb(0%,0%,0%);fill-opacity:0.819608;stroke:none;"/>
  </g>
</mask>
<clipPath id="clip6">
  <rect x="0" y="0" width="256" height="97"/>
</clipPath>
<g id="surface20" clip-path="url(#clip6)">
<path style=" stroke:none;fill-rule:evenodd;fill:rgb(0%,0%,0%);fill-opacity:1;" d="M 125.480469 28.265625 C 125.707031 28.265625 125.816406 28.375 125.816406 28.597656 C 126.042969 28.597656 126.152344 28.707031 126.152344 28.933594 C 126.378906 28.933594 126.488281 29.042969 126.488281 29.265625 C 126.714844 29.265625 126.824219 29.378906 126.824219 29.601562 C 126.28125 30.484375 125.71875 31.375 125.144531 32.277344 C 123.25 32.523438 122.632812 31.742188 123.296875 29.9375 C 123.894531 29.171875 124.621094 28.613281 125.480469 28.265625 Z M 125.480469 28.265625 "/>
</g>
<mask id="mask6">
  <g filter="url(#alpha)">
<rect x="0" y="0" width="256" height="97" style="fill:rgb(0%,0%,0%);fill-opacity:0.941176;stroke:none;"/>
  </g>
</mask>
<clipPath id="clip7">
  <rect x="0" y="0" width="256" height="97"/>
</clipPath>
<g id="surface23" clip-path="url(#clip7)">
<path style=" stroke:none;fill-rule:evenodd;fill:rgb(0%,0%,0%);fill-opacity:1;" d="M 127.160156 37.964844 C 130.289062 38.195312 133.425781 38.363281 136.566406 38.464844 C 139.582031 39.722656 140.925781 42.007812 140.597656 45.324219 C 141.054688 49.496094 139.265625 52.003906 135.222656 52.847656 C 132.539062 53.015625 129.851562 53.074219 127.160156 53.015625 C 127.160156 51.789062 127.160156 50.5625 127.160156 49.335938 C 127.496094 49.335938 127.832031 49.335938 128.167969 49.335938 C 128.167969 46.769531 128.167969 44.207031 128.167969 41.644531 C 127.832031 41.644531 127.496094 41.644531 127.160156 41.644531 C 127.160156 40.414062 127.160156 39.191406 127.160156 37.964844 Z M 133.207031 41.644531 C 133.757812 41.574219 134.261719 41.683594 134.71875 41.976562 C 134.945312 44.320312 134.945312 46.660156 134.71875 49 C 134.261719 49.296875 133.757812 49.40625 133.207031 49.335938 C 133.207031 46.769531 133.207031 44.207031 133.207031 41.644531 Z M 133.207031 41.644531 "/>
</g>
<mask id="mask7">
  <g filter="url(#alpha)">
<rect x="0" y="0" width="256" height="97" style="fill:rgb(0%,0%,0%);fill-opacity:0.941176;stroke:none;"/>
  </g>
</mask>
<clipPath id="clip8">
  <rect x="0" y="0" width="256" height="97"/>
</clipPath>
<g id="surface26" clip-path="url(#clip8)">
<path style=" stroke:none;fill-rule:evenodd;fill:rgb(0%,0%,0%);fill-opacity:1;" d="M 100.957031 38.296875 C 102.1875 38.296875 103.417969 38.296875 104.652344 38.296875 C 104.652344 39.410156 104.652344 40.527344 104.652344 41.644531 C 104.316406 41.644531 103.980469 41.644531 103.644531 41.644531 C 103.550781 45.445312 103.667969 49.238281 103.980469 53.015625 C 102.179688 53.289062 100.382812 53.289062 98.605469 53.015625 C 97.09375 50.675781 95.578125 48.332031 94.066406 45.992188 C 93.898438 47.324219 93.84375 48.664062 93.898438 50.003906 C 94.234375 50.003906 94.570312 50.003906 94.90625 50.003906 C 94.949219 51.128906 95.058594 52.242188 95.242188 53.351562 C 93.105469 53.34375 90.980469 53.453125 88.859375 53.683594 C 88.859375 52.570312 88.859375 51.453125 88.859375 50.339844 C 89.257812 50.414062 89.59375 50.304688 89.867188 50.003906 C 89.542969 47.460938 89.433594 44.894531 89.53125 42.3125 C 89.195312 42.3125 88.859375 42.3125 88.523438 42.3125 C 88.285156 41.210938 88.175781 40.097656 88.1875 38.96875 C 90.542969 38.609375 92.894531 38.609375 95.242188 38.96875 C 96.46875 41.019531 97.753906 43.023438 99.109375 44.988281 C 99.277344 43.992188 99.332031 42.988281 99.277344 41.976562 C 98.941406 41.976562 98.605469 41.976562 98.269531 41.976562 C 98.269531 40.863281 98.269531 39.746094 98.269531 38.632812 C 99.234375 38.738281 100.132812 38.621094 100.957031 38.296875 Z M 100.957031 38.296875 "/>
</g>
<mask id="mask8">
  <g filter="url(#alpha)">
<rect x="0" y="0" width="256" height="97" style="fill:rgb(0%,0%,0%);fill-opacity:0.929412;stroke:none;"/>
  </g>
</mask>
<clipPath id="clip9">
  <rect x="0" y="0" width="256" height="97"/>
</clipPath>
<g id="surface29" clip-path="url(#clip9)">
<path style=" stroke:none;fill-rule:evenodd;fill:rgb(0%,0%,0%);fill-opacity:1;" d="M 108.683594 38.296875 C 110.933594 38.1875 113.175781 38.296875 115.402344 38.632812 C 116.90625 43.398438 118.136719 48.191406 119.097656 53.015625 C 116.746094 53.015625 114.394531 53.015625 112.042969 53.015625 C 112.042969 51.902344 112.042969 50.785156 112.042969 49.671875 C 112.949219 49.710938 113.175781 49.375 112.714844 48.667969 C 112.074219 48.34375 111.402344 48.230469 110.699219 48.332031 C 110.699219 48.777344 110.699219 49.226562 110.699219 49.671875 C 111.035156 49.671875 111.371094 49.671875 111.707031 49.671875 C 111.707031 50.785156 111.707031 51.902344 111.707031 53.015625 C 109.691406 53.015625 107.675781 53.015625 105.660156 53.015625 C 105.421875 51.914062 105.308594 50.800781 105.324219 49.671875 C 105.660156 49.671875 105.996094 49.671875 106.332031 49.671875 C 107.03125 45.863281 107.8125 42.070312 108.683594 38.296875 Z M 111.707031 43.984375 C 111.96875 44.601562 112.191406 45.269531 112.378906 45.992188 C 112.101562 46.289062 111.765625 46.398438 111.371094 46.324219 C 111.304688 45.507812 111.414062 44.726562 111.707031 43.984375 Z M 111.707031 43.984375 "/>
</g>
<mask id="mask9">
  <g filter="url(#alpha)">
<rect x="0" y="0" width="256" height="97" style="fill:rgb(0%,0%,0%);fill-opacity:0.929412;stroke:none;"/>
  </g>
</mask>
<clipPath id="clip10">
  <rect x="0" y="0" width="256" height="97"/>
</clipPath>
<g id="surface32" clip-path="url(#clip10)">
<path style=" stroke:none;fill-rule:evenodd;fill:rgb(0%,0%,0%);fill-opacity:1;" d="M 145.300781 38.296875 C 147.542969 38.296875 149.78125 38.296875 152.019531 38.296875 C 153.144531 43.351562 154.269531 48.371094 155.378906 53.351562 C 153.035156 53.128906 150.683594 53.015625 148.324219 53.015625 C 148.324219 51.902344 148.324219 50.785156 148.324219 49.671875 C 149.144531 49.796875 149.371094 49.574219 148.996094 49 C 148.359375 48.675781 147.6875 48.566406 146.980469 48.667969 C 147.503906 50.054688 147.730469 51.507812 147.652344 53.015625 C 145.636719 53.015625 143.621094 53.015625 141.605469 53.015625 C 142.71875 48.144531 143.949219 43.242188 145.300781 38.296875 Z M 147.988281 43.648438 C 148.417969 44.457031 148.640625 45.347656 148.660156 46.324219 C 148.324219 46.324219 147.988281 46.324219 147.652344 46.324219 C 147.765625 45.433594 147.878906 44.542969 147.988281 43.648438 Z M 147.988281 43.648438 "/>
</g>
<mask id="mask10">
  <g filter="url(#alpha)">
<rect x="0" y="0" width="256" height="97" style="fill:rgb(0%,0%,0%);fill-opacity:0.921569;stroke:none;"/>
  </g>
</mask>
<clipPath id="clip11">
  <rect x="0" y="0" width="256" height="97"/>
</clipPath>
<g id="surface35" clip-path="url(#clip11)">
<path style=" stroke:none;fill-rule:evenodd;fill:rgb(0%,0%,0%);fill-opacity:1;" d="M 168.820312 38.632812 C 171.066406 38.65625 173.191406 39.15625 175.203125 40.136719 C 175.527344 41.832031 175.640625 43.5625 175.539062 45.324219 C 173.96875 45.324219 172.402344 45.324219 170.835938 45.324219 C 170.9375 44.402344 170.828125 43.511719 170.5 42.648438 C 170.164062 42.203125 169.828125 42.203125 169.492188 42.648438 C 168.984375 44.042969 168.757812 45.488281 168.820312 46.996094 C 168.824219 48.082031 168.9375 49.140625 169.15625 50.171875 C 169.636719 50.433594 170.089844 50.375 170.5 50.003906 C 170.789062 49.253906 170.90625 48.472656 170.835938 47.664062 C 172.289062 47.664062 173.746094 47.664062 175.203125 47.664062 C 175.257812 49.230469 175.203125 50.789062 175.035156 52.347656 C 174.910156 52.652344 174.742188 52.933594 174.53125 53.183594 C 164.847656 55.355469 161.320312 51.625 163.949219 41.976562 C 165.058594 40.0625 166.683594 38.945312 168.820312 38.632812 Z M 168.820312 38.632812 "/>
</g>
<mask id="mask11">
  <g filter="url(#alpha)">
<rect x="0" y="0" width="256" height="97" style="fill:rgb(0%,0%,0%);fill-opacity:0.941176;stroke:none;"/>
  </g>
</mask>
<clipPath id="clip12">
  <rect x="0" y="0" width="256" height="97"/>
</clipPath>
<g id="surface38" clip-path="url(#clip12)">
<path style=" stroke:none;fill-rule:evenodd;fill:rgb(0%,0%,0%);fill-opacity:1;" d="M 75.085938 39.300781 C 78 39.246094 80.914062 39.300781 83.820312 39.46875 C 85.535156 40.222656 86.320312 41.558594 86.171875 43.484375 C 86.246094 44.820312 85.800781 45.9375 84.828125 46.828125 C 85.308594 46.984375 85.703125 47.261719 86.003906 47.664062 C 86.800781 49.570312 87.195312 51.578125 87.179688 53.683594 C 85.265625 53.644531 83.359375 53.753906 81.46875 54.019531 C 81.527344 52.34375 81.46875 50.671875 81.300781 49 C 81.105469 48.210938 80.601562 47.878906 79.789062 48 C 79.789062 48.890625 79.789062 49.78125 79.789062 50.675781 C 80.125 50.675781 80.460938 50.675781 80.796875 50.675781 C 80.984375 51.78125 81.09375 52.894531 81.132812 54.019531 C 78.660156 53.992188 76.199219 54.101562 73.742188 54.351562 C 73.742188 53.238281 73.742188 52.121094 73.742188 51.007812 C 74.078125 51.007812 74.414062 51.007812 74.75 51.007812 C 74.476562 48.34375 74.359375 45.667969 74.414062 42.980469 C 73.96875 42.980469 73.519531 42.980469 73.070312 42.980469 C 73.070312 41.867188 73.070312 40.75 73.070312 39.636719 C 73.824219 39.738281 74.496094 39.621094 75.085938 39.300781 Z M 79.453125 42.648438 C 81.183594 42.902344 81.519531 43.742188 80.460938 45.15625 C 80.144531 45.316406 79.808594 45.371094 79.453125 45.324219 C 79.453125 44.429688 79.453125 43.539062 79.453125 42.648438 Z M 79.453125 42.648438 "/>
</g>
<mask id="mask12">
  <g filter="url(#alpha)">
<rect x="0" y="0" width="256" height="97" style="fill:rgb(0%,0%,0%);fill-opacity:0.929412;stroke:none;"/>
  </g>
</mask>
<clipPath id="clip13">
  <rect x="0" y="0" width="256" height="97"/>
</clipPath>
<g id="surface41" clip-path="url(#clip13)">
<path style=" stroke:none;fill-rule:evenodd;fill:rgb(0%,0%,0%);fill-opacity:1;" d="M 69.039062 39.636719 C 69.820312 39.636719 70.609375 39.636719 71.390625 39.636719 C 71.390625 41.644531 71.390625 43.648438 71.390625 45.65625 C 70.066406 45.558594 68.78125 45.671875 67.527344 45.992188 C 67.359375 45.105469 67.304688 44.214844 67.359375 43.316406 C 66.796875 43.316406 66.242188 43.316406 65.679688 43.316406 C 65.679688 44.207031 65.679688 45.097656 65.679688 45.992188 C 66.230469 45.921875 66.734375 46.03125 67.191406 46.324219 C 67.359375 46.984375 67.414062 47.652344 67.359375 48.332031 C 66.789062 48.277344 66.226562 48.335938 65.679688 48.5 C 65.996094 49.410156 66.109375 50.355469 66.015625 51.34375 C 66.578125 51.34375 67.132812 51.34375 67.695312 51.34375 C 67.695312 50.339844 67.695312 49.335938 67.695312 48.332031 C 69.050781 48.332031 70.394531 48.21875 71.726562 48 C 71.816406 50.117188 71.929688 52.234375 72.0625 54.351562 C 68.039062 54.660156 64.007812 54.882812 59.96875 55.023438 C 59.96875 53.910156 59.96875 52.792969 59.96875 51.675781 C 60.304688 51.675781 60.640625 51.675781 60.976562 51.675781 C 60.738281 49.003906 60.511719 46.328125 60.304688 43.648438 C 59.96875 43.648438 59.632812 43.648438 59.296875 43.648438 C 59.378906 42.621094 59.265625 41.617188 58.960938 40.640625 C 62.363281 40.25 65.722656 39.917969 69.039062 39.636719 Z M 69.039062 39.636719 "/>
</g>
<mask id="mask13">
  <g filter="url(#alpha)">
<rect x="0" y="0" width="256" height="97" style="fill:rgb(0%,0%,0%);fill-opacity:0.929412;stroke:none;"/>
  </g>
</mask>
<clipPath id="clip14">
  <rect x="0" y="0" width="256" height="97"/>
</clipPath>
<g id="surface44" clip-path="url(#clip14)">
<path style=" stroke:none;fill-rule:evenodd;fill:rgb(0%,0%,0%);fill-opacity:1;" d="M 180.914062 39.636719 C 183.160156 39.621094 185.402344 39.734375 187.632812 39.96875 C 188.433594 43.738281 189.105469 47.53125 189.648438 51.34375 C 190.042969 51.269531 190.378906 51.378906 190.65625 51.675781 C 190.351562 52.652344 190.238281 53.65625 190.320312 54.6875 C 187.957031 54.746094 185.605469 54.632812 183.265625 54.351562 C 183.234375 52.804688 183.570312 51.351562 184.273438 50.003906 C 183.601562 50.003906 182.929688 50.003906 182.257812 50.003906 C 182.78125 51.394531 183.007812 52.84375 182.929688 54.351562 C 180.78125 54.417969 178.65625 54.25 176.546875 53.851562 C 178.085938 49.199219 179.539062 44.460938 180.914062 39.636719 Z M 183.265625 45.65625 C 183.875 46.132812 184.097656 46.800781 183.9375 47.664062 C 183.542969 47.738281 183.207031 47.628906 182.929688 47.328125 C 183.203125 46.804688 183.3125 46.246094 183.265625 45.65625 Z M 183.265625 45.65625 "/>
</g>
<mask id="mask14">
  <g filter="url(#alpha)">
<rect x="0" y="0" width="256" height="97" style="fill:rgb(0%,0%,0%);fill-opacity:0.929412;stroke:none;"/>
  </g>
</mask>
<clipPath id="clip15">
  <rect x="0" y="0" width="256" height="97"/>
</clipPath>
<g id="surface47" clip-path="url(#clip15)">
<path style=" stroke:none;fill-rule:evenodd;fill:rgb(0%,0%,0%);fill-opacity:1;" d="M 192.671875 40.304688 C 196.046875 40.410156 199.40625 40.691406 202.75 41.140625 C 205.058594 42.109375 205.898438 43.835938 205.269531 46.324219 C 205.101562 47.503906 204.484375 48.339844 203.421875 48.835938 C 203.902344 48.992188 204.296875 49.269531 204.597656 49.671875 C 204.6875 51.183594 204.96875 52.632812 205.4375 54.019531 C 205.480469 54.792969 205.261719 55.460938 204.765625 56.027344 C 203.21875 55.765625 201.648438 55.597656 200.0625 55.523438 C 199.789062 55.421875 199.566406 55.253906 199.390625 55.023438 C 199.765625 53.367188 199.820312 51.695312 199.558594 50.003906 C 199.066406 49.210938 198.671875 49.210938 198.382812 50.003906 C 198.160156 50.65625 198.050781 51.328125 198.046875 52.011719 C 198.382812 52.011719 198.71875 52.011719 199.054688 52.011719 C 199.054688 53.125 199.054688 54.242188 199.054688 55.355469 C 196.59375 55.246094 194.125 55.132812 191.664062 55.023438 C 191.847656 53.914062 191.960938 52.800781 192 51.675781 C 192.335938 51.675781 192.671875 51.675781 193.007812 51.675781 C 193.121094 49.03125 193.34375 46.410156 193.679688 43.816406 C 193.359375 43.65625 193.023438 43.601562 192.671875 43.648438 C 192.671875 42.535156 192.671875 41.417969 192.671875 40.304688 Z M 198.71875 43.984375 C 199.082031 43.996094 199.417969 44.109375 199.726562 44.320312 C 200.152344 45.050781 200.152344 45.777344 199.726562 46.492188 C 199.242188 46.753906 198.792969 46.695312 198.382812 46.324219 C 198.675781 45.574219 198.789062 44.792969 198.71875 43.984375 Z M 198.71875 43.984375 "/>
</g>
<mask id="mask15">
  <g filter="url(#alpha)">
<rect x="0" y="0" width="256" height="97" style="fill:rgb(0%,0%,0%);fill-opacity:0.929412;stroke:none;"/>
  </g>
</mask>
<clipPath id="clip16">
  <rect x="0" y="0" width="256" height="97"/>
</clipPath>
<g id="surface50" clip-path="url(#clip16)">
<path style=" stroke:none;fill-rule:evenodd;fill:rgb(0%,0%,0%);fill-opacity:1;" d="M 49.21875 40.972656 C 51.125 40.917969 53.027344 40.972656 54.929688 41.140625 C 55.71875 41.257812 56.332031 41.644531 56.777344 42.3125 C 57.746094 44.53125 57.351562 46.429688 55.601562 48 C 58.070312 49.179688 58.796875 51.070312 57.785156 53.683594 C 56.824219 54.691406 55.648438 55.308594 54.257812 55.523438 C 51.375 55.71875 48.519531 55.996094 45.691406 56.359375 C 45.214844 55.203125 45.046875 53.980469 45.1875 52.679688 C 45.582031 52.753906 45.917969 52.644531 46.195312 52.347656 C 45.851562 49.910156 45.625 47.457031 45.523438 44.988281 C 45.1875 44.988281 44.851562 44.988281 44.515625 44.988281 C 44.160156 43.867188 44.160156 42.75 44.515625 41.644531 C 46.128906 41.4375 47.695312 41.214844 49.21875 40.972656 Z M 50.5625 44.320312 C 52.007812 44.433594 52.511719 45.214844 52.074219 46.660156 C 51.734375 46.941406 51.339844 47.050781 50.898438 46.996094 C 50.699219 46.113281 50.585938 45.226562 50.5625 44.320312 Z M 51.570312 49.335938 C 52.988281 50.019531 53.210938 50.964844 52.242188 52.179688 C 51.921875 52.339844 51.585938 52.398438 51.234375 52.347656 C 51.304688 51.535156 51.191406 50.757812 50.898438 50.003906 C 51.144531 49.777344 51.371094 49.554688 51.570312 49.335938 Z M 51.570312 49.335938 "/>
</g>
<mask id="mask16">
  <g filter="url(#alpha)">
<rect x="0" y="0" width="256" height="97" style="fill:rgb(0%,0%,0%);fill-opacity:0.929412;stroke:none;"/>
  </g>
</mask>
<clipPath id="clip17">
  <rect x="0" y="0" width="256" height="97"/>
</clipPath>
<g id="surface53" clip-path="url(#clip17)">
<path style=" stroke:none;fill-rule:evenodd;fill:rgb(0%,0%,0%);fill-opacity:1;" d="M 207.789062 41.308594 C 210.183594 41.40625 212.539062 41.738281 214.84375 42.3125 C 215.910156 44.429688 216.972656 46.550781 218.035156 48.667969 C 218.355469 47.6875 218.523438 46.683594 218.539062 45.65625 C 218.203125 45.65625 217.867188 45.65625 217.53125 45.65625 C 217.519531 44.527344 217.628906 43.414062 217.867188 42.3125 C 219.996094 42.445312 222.121094 42.554688 224.253906 42.648438 C 224.011719 43.746094 223.902344 44.859375 223.914062 45.992188 C 223.371094 45.945312 222.980469 46.167969 222.738281 46.660156 C 222.351562 50.222656 222.066406 53.789062 221.898438 57.363281 C 220.09375 57.273438 218.300781 57.050781 216.523438 56.695312 C 215.414062 54.035156 214.125 51.472656 212.660156 49 C 212.476562 50.976562 212.644531 52.929688 213.164062 54.855469 C 213.054688 55.46875 212.941406 56.082031 212.828125 56.695312 C 210.828125 56.398438 208.8125 56.175781 206.78125 56.027344 C 206.726562 55.125 206.78125 54.238281 206.949219 53.351562 C 207.1875 52.859375 207.582031 52.632812 208.125 52.679688 C 208.238281 49.992188 208.460938 47.316406 208.796875 44.652344 C 208.460938 44.652344 208.125 44.652344 207.789062 44.652344 C 207.789062 43.539062 207.789062 42.421875 207.789062 41.308594 Z M 207.789062 41.308594 "/>
</g>
<mask id="mask17">
  <g filter="url(#alpha)">
<rect x="0" y="0" width="256" height="97" style="fill:rgb(0%,0%,0%);fill-opacity:0.929412;stroke:none;"/>
  </g>
</mask>
<clipPath id="clip18">
  <rect x="0" y="0" width="256" height="97"/>
</clipPath>
<g id="surface56" clip-path="url(#clip18)">
<path style=" stroke:none;fill-rule:evenodd;fill:rgb(0%,0%,0%);fill-opacity:1;" d="M 37.125 41.976562 C 37.988281 41.835938 38.71875 42.0625 39.308594 42.648438 C 41.007812 47.226562 42.519531 51.792969 43.84375 56.359375 C 41.484375 56.542969 39.132812 56.765625 36.789062 57.03125 C 36.765625 55.523438 36.933594 54.074219 37.292969 52.679688 C 36.609375 52.515625 35.882812 52.515625 35.109375 52.679688 C 35.109375 53.015625 35.109375 53.351562 35.109375 53.683594 C 35.445312 53.683594 35.78125 53.683594 36.117188 53.683594 C 36.300781 54.792969 36.410156 55.90625 36.453125 57.03125 C 34.53125 57.144531 32.625 57.363281 30.738281 57.699219 C 30.117188 56.65625 29.949219 55.539062 30.234375 54.351562 C 30.613281 53.867188 30.835938 53.308594 30.90625 52.679688 C 31.449219 49.339844 31.953125 45.996094 32.421875 42.648438 C 34.039062 42.484375 35.609375 42.257812 37.125 41.976562 Z M 35.78125 48 C 36.257812 48.671875 36.480469 49.453125 36.453125 50.339844 C 36.117188 50.339844 35.78125 50.339844 35.445312 50.339844 C 35.5 49.550781 35.613281 48.769531 35.78125 48 Z M 35.78125 48 "/>
</g>
<mask id="mask18">
  <g filter="url(#alpha)">
<rect x="0" y="0" width="256" height="97" style="fill:rgb(0%,0%,0%);fill-opacity:0.929412;stroke:none;"/>
  </g>
</mask>
<clipPath id="clip19">
  <rect x="0" y="0" width="256" height="97"/>
</clipPath>
<g id="surface59" clip-path="url(#clip19)">
<path style=" stroke:none;fill-rule:evenodd;fill:rgb(0%,0%,0%);fill-opacity:1;" d="M 26.371094 42.980469 C 27.605469 42.980469 28.835938 42.980469 30.066406 42.980469 C 30.234375 44.535156 30.347656 46.097656 30.402344 47.664062 C 29.285156 47.773438 28.164062 47.886719 27.042969 48 C 26.894531 46.390625 26.667969 46.335938 26.371094 47.832031 C 26.683594 50 26.90625 52.171875 27.042969 54.351562 C 27.492188 54.351562 27.941406 54.351562 28.386719 54.351562 C 28.308594 55.382812 28.417969 56.386719 28.722656 57.363281 C 28.554688 57.472656 28.386719 57.589844 28.21875 57.699219 C 25.832031 58.109375 23.425781 58.332031 20.996094 58.367188 C 20.996094 57.253906 20.996094 56.136719 20.996094 55.023438 C 21.332031 55.023438 21.667969 55.023438 22.003906 55.023438 C 21.820312 52.285156 21.425781 49.609375 20.828125 46.996094 C 20.660156 47.160156 20.492188 47.328125 20.324219 47.496094 C 20.609375 47.835938 20.71875 48.226562 20.660156 48.667969 C 19.542969 48.777344 18.421875 48.890625 17.300781 49 C 17.164062 47.472656 16.9375 45.96875 16.628906 44.484375 C 16.742188 44.375 16.855469 44.261719 16.964844 44.152344 C 20.164062 43.867188 23.296875 43.480469 26.371094 42.980469 Z M 26.371094 42.980469 "/>
</g>
<mask id="mask19">
  <g filter="url(#alpha)">
<rect x="0" y="0" width="256" height="97" style="fill:rgb(0%,0%,0%);fill-opacity:0.929412;stroke:none;"/>
  </g>
</mask>
<clipPath id="clip20">
  <rect x="0" y="0" width="256" height="97"/>
</clipPath>
<g id="surface62" clip-path="url(#clip20)">
<path style=" stroke:none;fill-rule:evenodd;fill:rgb(0%,0%,0%);fill-opacity:1;" d="M 225.597656 42.980469 C 229.523438 43.285156 233.441406 43.675781 237.355469 44.152344 C 237.554688 44.507812 237.667969 44.898438 237.691406 45.324219 C 237.515625 46.785156 237.289062 48.234375 237.019531 49.671875 C 235.683594 49.960938 234.339844 49.960938 232.988281 49.671875 C 232.894531 48.792969 233.011719 47.957031 233.324219 47.160156 C 232.660156 46.996094 231.988281 46.941406 231.308594 46.996094 C 231.253906 47.785156 231.308594 48.5625 231.476562 49.335938 C 231.8125 49.617188 232.207031 49.726562 232.652344 49.671875 C 232.703125 50.351562 232.652344 51.019531 232.484375 51.675781 C 232.027344 51.972656 231.523438 52.082031 230.972656 52.011719 C 230.800781 52.910156 230.746094 53.796875 230.804688 54.6875 C 231.261719 54.980469 231.765625 55.09375 232.316406 55.023438 C 232.367188 53.980469 232.589844 52.980469 232.988281 52.011719 C 234.089844 52.261719 235.207031 52.429688 236.347656 52.515625 C 236.65625 54.53125 236.542969 56.539062 236.011719 58.535156 C 232.09375 58.34375 228.171875 58.066406 224.253906 57.699219 C 224.238281 56.566406 224.347656 55.453125 224.589844 54.351562 C 224.925781 54.351562 225.261719 54.351562 225.597656 54.351562 C 225.820312 51.675781 226.042969 49 226.269531 46.324219 C 225.933594 46.324219 225.597656 46.324219 225.261719 46.324219 C 225.445312 45.21875 225.554688 44.105469 225.597656 42.980469 Z M 225.597656 42.980469 "/>
</g>
<mask id="mask20">
  <g filter="url(#alpha)">
<rect x="0" y="0" width="256" height="97" style="fill:rgb(0%,0%,0%);fill-opacity:0.878431;stroke:none;"/>
  </g>
</mask>
<clipPath id="clip21">
  <rect x="0" y="0" width="256" height="97"/>
</clipPath>
<g id="surface65" clip-path="url(#clip21)">
<path style=" stroke:none;fill-rule:evenodd;fill:rgb(0%,0%,0%);fill-opacity:1;" d="M 8.566406 49.671875 C 10.21875 50.269531 11.789062 51.050781 13.269531 52.011719 C 12.046875 53.179688 10.703125 54.183594 9.238281 55.023438 C 7.652344 54.425781 6.199219 53.648438 4.871094 52.679688 C 6.1875 51.75 7.421875 50.746094 8.566406 49.671875 Z M 8.566406 49.671875 "/>
</g>
<mask id="mask21">
  <g filter="url(#alpha)">
<rect x="0" y="0" width="256" height="97" style="fill:rgb(0%,0%,0%);fill-opacity:0.878431;stroke:none;"/>
  </g>
</mask>
<clipPath id="clip22">
  <rect x="0" y="0" width="256" height="97"/>
</clipPath>
<g id="surface68" clip-path="url(#clip22)">
<path style=" stroke:none;fill-rule:evenodd;fill:rgb(0%,0%,0%);fill-opacity:1;" d="M 246.089844 49.671875 C 247.625 50.527344 249.082031 51.53125 250.457031 52.679688 C 250.398438 52.792969 250.347656 52.90625 250.289062 53.015625 C 248.90625 53.714844 247.511719 54.382812 246.089844 55.023438 C 244.625 54.183594 243.28125 53.179688 242.058594 52.011719 C 243.421875 51.222656 244.765625 50.441406 246.089844 49.671875 Z M 246.089844 49.671875 "/>
</g>
<mask id="mask22">
  <g filter="url(#alpha)">
<rect x="0" y="0" width="256" height="97" style="fill:rgb(0%,0%,0%);fill-opacity:0.819608;stroke:none;"/>
  </g>
</mask>
<clipPath id="clip23">
  <rect x="0" y="0" width="256" height="97"/>
</clipPath>
<g id="surface71" clip-path="url(#clip23)">
<path style=" stroke:none;fill-rule:evenodd;fill:rgb(0%,0%,0%);fill-opacity:1;" d="M 97.261719 63.050781 C 98.273438 62.996094 99.28125 63.050781 100.285156 63.21875 C 101.492188 64.3125 101.605469 65.539062 100.621094 66.898438 C 101.183594 67.96875 101.519531 69.140625 101.628906 70.410156 C 101.105469 70.726562 100.550781 70.835938 99.949219 70.742188 C 100.003906 69.734375 99.949219 68.730469 99.78125 67.734375 C 99.640625 67.578125 99.472656 67.46875 99.277344 67.398438 C 98.855469 68.40625 98.855469 69.410156 99.277344 70.410156 C 98.605469 70.851562 97.933594 70.851562 97.261719 70.410156 C 97.695312 67.957031 97.695312 65.5 97.261719 63.050781 Z M 98.941406 63.71875 C 99.359375 63.996094 99.585938 64.445312 99.613281 65.058594 C 99.632812 65.6875 99.464844 66.246094 99.109375 66.730469 C 98.941406 65.734375 98.882812 64.730469 98.941406 63.71875 Z M 98.941406 63.71875 "/>
</g>
<mask id="mask23">
  <g filter="url(#alpha)">
<rect x="0" y="0" width="256" height="97" style="fill:rgb(0%,0%,0%);fill-opacity:0.74902;stroke:none;"/>
  </g>
</mask>
<clipPath id="clip24">
  <rect x="0" y="0" width="256" height="97"/>
</clipPath>
<g id="surface74" clip-path="url(#clip24)">
<path style=" stroke:none;fill-rule:evenodd;fill:rgb(0%,0%,0%);fill-opacity:1;" d="M 102.972656 63.050781 C 104.089844 63.050781 105.210938 63.050781 106.332031 63.050781 C 106.382812 63.730469 106.332031 64.398438 106.164062 65.058594 C 106 64.625 105.941406 64.175781 105.996094 63.71875 C 105.546875 63.71875 105.097656 63.71875 104.652344 63.71875 C 104.652344 64.722656 104.652344 65.726562 104.652344 66.730469 C 105.304688 66.820312 105.808594 66.597656 106.164062 66.058594 C 106.386719 66.617188 106.386719 67.175781 106.164062 67.734375 C 105.707031 67.4375 105.203125 67.328125 104.652344 67.398438 C 104.652344 68.292969 104.652344 69.179688 104.652344 70.074219 C 105.097656 70.074219 105.546875 70.074219 105.996094 70.074219 C 105.945312 69.722656 106 69.386719 106.164062 69.070312 C 106.328125 69.617188 106.382812 70.175781 106.332031 70.742188 C 105.1875 70.851562 104.070312 70.738281 102.972656 70.410156 C 103.40625 67.957031 103.40625 65.5 102.972656 63.050781 Z M 102.972656 63.050781 "/>
</g>
<mask id="mask24">
  <g filter="url(#alpha)">
<rect x="0" y="0" width="256" height="97" style="fill:rgb(0%,0%,0%);fill-opacity:0.74902;stroke:none;"/>
  </g>
</mask>
<clipPath id="clip25">
  <rect x="0" y="0" width="256" height="97"/>
</clipPath>
<g id="surface77" clip-path="url(#clip25)">
<path style=" stroke:none;fill-rule:evenodd;fill:rgb(0%,0%,0%);fill-opacity:1;" d="M 109.019531 63.050781 C 110.9375 62.957031 111.832031 63.847656 111.707031 65.726562 C 111.144531 65.726562 110.585938 65.726562 110.027344 65.726562 C 110.078125 65.046875 110.027344 64.378906 109.859375 63.71875 C 109.398438 64.535156 109.230469 65.425781 109.355469 66.394531 C 111.632812 66.652344 112.304688 67.875 111.371094 70.074219 C 109.285156 71.347656 108.054688 70.789062 107.675781 68.402344 C 108.234375 68.402344 108.792969 68.402344 109.355469 68.402344 C 109.257812 69 109.371094 69.558594 109.691406 70.074219 C 110.019531 69.09375 110.132812 68.089844 110.027344 67.0625 C 108.117188 67.175781 107.390625 66.289062 107.84375 64.386719 C 108.074219 63.769531 108.46875 63.324219 109.019531 63.050781 Z M 109.019531 63.050781 "/>
</g>
<mask id="mask25">
  <g filter="url(#alpha)">
<rect x="0" y="0" width="256" height="97" style="fill:rgb(0%,0%,0%);fill-opacity:0.768627;stroke:none;"/>
  </g>
</mask>
<clipPath id="clip26">
  <rect x="0" y="0" width="256" height="97"/>
</clipPath>
<g id="surface80" clip-path="url(#clip26)">
<path style=" stroke:none;fill-rule:evenodd;fill:rgb(0%,0%,0%);fill-opacity:1;" d="M 112.714844 63.050781 C 114.058594 63.050781 115.402344 63.050781 116.746094 63.050781 C 116.800781 63.730469 116.746094 64.398438 116.578125 65.058594 C 116.414062 64.625 116.355469 64.175781 116.410156 63.71875 C 116.074219 63.71875 115.738281 63.71875 115.402344 63.71875 C 115.300781 65.96875 115.414062 68.199219 115.738281 70.410156 C 115.066406 70.851562 114.394531 70.851562 113.722656 70.410156 C 114.042969 68.199219 114.160156 65.96875 114.058594 63.71875 C 113.722656 63.71875 113.386719 63.71875 113.050781 63.71875 C 113.105469 64.175781 113.046875 64.625 112.882812 65.058594 C 112.714844 64.398438 112.660156 63.730469 112.714844 63.050781 Z M 112.714844 63.050781 "/>
</g>
<mask id="mask26">
  <g filter="url(#alpha)">
<rect x="0" y="0" width="256" height="97" style="fill:rgb(0%,0%,0%);fill-opacity:0.721569;stroke:none;"/>
  </g>
</mask>
<clipPath id="clip27">
  <rect x="0" y="0" width="256" height="97"/>
</clipPath>
<g id="surface83" clip-path="url(#clip27)">
<path style=" stroke:none;fill-rule:evenodd;fill:rgb(0%,0%,0%);fill-opacity:1;" d="M 119.433594 63.050781 C 120.105469 63.050781 120.777344 63.050781 121.449219 63.050781 C 121.507812 65.578125 121.957031 68.035156 122.792969 70.410156 C 122.15625 70.734375 121.480469 70.84375 120.777344 70.742188 C 120.777344 70.074219 120.777344 69.40625 120.777344 68.734375 C 119.296875 68.53125 118.847656 69.089844 119.433594 70.410156 C 118.984375 70.851562 118.535156 70.851562 118.089844 70.410156 C 118.839844 68.011719 119.289062 65.558594 119.433594 63.050781 Z M 119.769531 65.726562 C 120.246094 66.398438 120.472656 67.179688 120.441406 68.066406 C 120.042969 68.140625 119.707031 68.03125 119.433594 67.734375 C 119.71875 67.09375 119.828125 66.425781 119.769531 65.726562 Z M 119.769531 65.726562 "/>
</g>
<mask id="mask27">
  <g filter="url(#alpha)">
<rect x="0" y="0" width="256" height="97" style="fill:rgb(0%,0%,0%);fill-opacity:0.788235;stroke:none;"/>
  </g>
</mask>
<clipPath id="clip28">
  <rect x="0" y="0" width="256" height="97"/>
</clipPath>
<g id="surface86" clip-path="url(#clip28)">
<path style=" stroke:none;fill-rule:evenodd;fill:rgb(0%,0%,0%);fill-opacity:1;" d="M 124.136719 63.050781 C 125.480469 63.050781 126.824219 63.050781 128.167969 63.050781 C 128.226562 65.285156 128.167969 67.511719 128 69.738281 C 127.269531 70.671875 126.320312 70.949219 125.144531 70.574219 C 124.742188 70.273438 124.460938 69.882812 124.304688 69.40625 C 124.136719 67.292969 124.078125 65.171875 124.136719 63.050781 Z M 125.816406 63.71875 C 126.257812 64.640625 126.484375 65.699219 126.488281 66.898438 C 126.378906 67.957031 126.261719 69.015625 126.152344 70.074219 C 125.816406 67.96875 125.707031 65.851562 125.816406 63.71875 Z M 125.816406 63.71875 "/>
</g>
<mask id="mask28">
  <g filter="url(#alpha)">
<rect x="0" y="0" width="256" height="97" style="fill:rgb(0%,0%,0%);fill-opacity:0.8;stroke:none;"/>
  </g>
</mask>
<clipPath id="clip29">
  <rect x="0" y="0" width="256" height="97"/>
</clipPath>
<g id="surface89" clip-path="url(#clip29)">
<path style=" stroke:none;fill-rule:evenodd;fill:rgb(0%,0%,0%);fill-opacity:1;" d="M 129.847656 63.050781 C 130.863281 62.996094 131.871094 63.050781 132.871094 63.21875 C 134.082031 64.3125 134.191406 65.539062 133.207031 66.898438 C 133.773438 67.96875 134.109375 69.140625 134.214844 70.410156 C 133.695312 70.726562 133.136719 70.835938 132.535156 70.742188 C 132.589844 69.84375 132.535156 68.953125 132.367188 68.066406 C 132.261719 67.796875 132.09375 67.574219 131.863281 67.398438 C 131.445312 68.40625 131.445312 69.410156 131.863281 70.410156 C 131.191406 70.851562 130.519531 70.851562 129.847656 70.410156 C 130.285156 67.957031 130.285156 65.5 129.847656 63.050781 Z M 131.527344 63.71875 C 131.949219 63.996094 132.171875 64.445312 132.199219 65.058594 C 132.21875 65.6875 132.050781 66.246094 131.695312 66.730469 C 131.527344 65.734375 131.46875 64.730469 131.527344 63.71875 Z M 131.527344 63.71875 "/>
</g>
<mask id="mask29">
  <g filter="url(#alpha)">
<rect x="0" y="0" width="256" height="97" style="fill:rgb(0%,0%,0%);fill-opacity:0.729412;stroke:none;"/>
  </g>
</mask>
<clipPath id="clip30">
  <rect x="0" y="0" width="256" height="97"/>
</clipPath>
<g id="surface92" clip-path="url(#clip30)">
<path style=" stroke:none;fill-rule:evenodd;fill:rgb(0%,0%,0%);fill-opacity:1;" d="M 136.566406 63.050781 C 137.378906 62.945312 138.167969 63.058594 138.917969 63.382812 C 138.808594 63.609375 138.695312 63.828125 138.582031 64.054688 C 138.964844 66.242188 139.527344 68.359375 140.261719 70.410156 C 139.480469 70.851562 138.695312 70.851562 137.910156 70.410156 C 138.183594 69.882812 138.292969 69.324219 138.246094 68.734375 C 137.6875 68.734375 137.128906 68.734375 136.566406 68.734375 C 136.566406 69.40625 136.566406 70.074219 136.566406 70.742188 C 136.230469 70.742188 135.894531 70.742188 135.558594 70.742188 C 135.953125 68.617188 136.398438 66.5 136.902344 64.386719 C 136.785156 63.9375 136.675781 63.492188 136.566406 63.050781 Z M 137.238281 65.390625 C 137.585938 66.214844 137.808594 67.105469 137.910156 68.066406 C 137.574219 68.066406 137.238281 68.066406 136.902344 68.066406 C 137.101562 67.1875 137.214844 66.296875 137.238281 65.390625 Z M 137.238281 65.390625 "/>
</g>
<mask id="mask30">
  <g filter="url(#alpha)">
<rect x="0" y="0" width="256" height="97" style="fill:rgb(0%,0%,0%);fill-opacity:0.709804;stroke:none;"/>
  </g>
</mask>
<clipPath id="clip31">
  <rect x="0" y="0" width="256" height="97"/>
</clipPath>
<g id="surface95" clip-path="url(#clip31)">
<path style=" stroke:none;fill-rule:evenodd;fill:rgb(0%,0%,0%);fill-opacity:1;" d="M 141.269531 63.050781 C 141.941406 63.050781 142.613281 63.050781 143.285156 63.050781 C 143.460938 64.292969 143.738281 65.523438 144.125 66.730469 C 144.378906 65.59375 144.320312 64.476562 143.957031 63.382812 C 144.40625 62.941406 144.855469 62.941406 145.300781 63.382812 C 144.980469 65.820312 144.863281 68.269531 144.964844 70.742188 C 144.46875 70.828125 144.023438 70.71875 143.621094 70.410156 C 143.230469 69.074219 142.839844 67.734375 142.445312 66.394531 C 142.1875 67.753906 142.246094 69.089844 142.613281 70.410156 C 142.167969 70.851562 141.71875 70.851562 141.269531 70.410156 C 141.707031 67.957031 141.707031 65.5 141.269531 63.050781 Z M 141.269531 63.050781 "/>
</g>
<mask id="mask31">
  <g filter="url(#alpha)">
<rect x="0" y="0" width="256" height="97" style="fill:rgb(0%,0%,0%);fill-opacity:0.65098;stroke:none;"/>
  </g>
</mask>
<clipPath id="clip32">
  <rect x="0" y="0" width="256" height="97"/>
</clipPath>
<g id="surface98" clip-path="url(#clip32)">
<path style=" stroke:none;fill-rule:evenodd;fill:rgb(0%,0%,0%);fill-opacity:1;" d="M 146.644531 63.050781 C 148.101562 63.050781 149.558594 63.050781 151.011719 63.050781 C 151.074219 65.125 150.738281 65.34375 150.003906 63.71875 C 149.570312 65.957031 149.570312 68.1875 150.003906 70.410156 C 149.222656 70.851562 148.4375 70.851562 147.652344 70.410156 C 148.089844 68.1875 148.089844 65.957031 147.652344 63.71875 C 146.921875 65.34375 146.585938 65.125 146.644531 63.050781 Z M 146.644531 63.050781 "/>
</g>
<mask id="mask32">
  <g filter="url(#alpha)">
<rect x="0" y="0" width="256" height="97" style="fill:rgb(0%,0%,0%);fill-opacity:0.698039;stroke:none;"/>
  </g>
</mask>
<clipPath id="clip33">
  <rect x="0" y="0" width="256" height="97"/>
</clipPath>
<g id="surface101" clip-path="url(#clip33)">
<path style=" stroke:none;fill-rule:evenodd;fill:rgb(0%,0%,0%);fill-opacity:1;" d="M 152.355469 63.050781 C 153.476562 63.050781 154.597656 63.050781 155.714844 63.050781 C 155.816406 63.753906 155.707031 64.421875 155.378906 65.058594 C 155.066406 64.660156 154.957031 64.214844 155.042969 63.71875 C 154.707031 63.71875 154.371094 63.71875 154.035156 63.71875 C 154.035156 64.722656 154.035156 65.726562 154.035156 66.730469 C 154.585938 66.734375 155.039062 66.511719 155.378906 66.058594 C 155.828125 66.617188 155.828125 67.175781 155.378906 67.734375 C 154.964844 67.480469 154.515625 67.371094 154.035156 67.398438 C 154.035156 68.292969 154.035156 69.179688 154.035156 70.074219 C 154.371094 70.074219 154.707031 70.074219 155.042969 70.074219 C 154.972656 69.679688 155.082031 69.34375 155.378906 69.070312 C 155.699219 69.585938 155.8125 70.144531 155.714844 70.742188 C 154.574219 70.851562 153.457031 70.738281 152.355469 70.410156 C 152.792969 67.957031 152.792969 65.5 152.355469 63.050781 Z M 152.355469 63.050781 "/>
</g>
<mask id="mask33">
  <g filter="url(#alpha)">
<rect x="0" y="0" width="256" height="97" style="fill:rgb(0%,0%,0%);fill-opacity:0.580392;stroke:none;"/>
  </g>
</mask>
<clipPath id="clip34">
  <rect x="0" y="0" width="256" height="97"/>
</clipPath>
<g id="surface104" clip-path="url(#clip34)">
<path style=" stroke:none;fill-rule:evenodd;fill:rgb(0%,0%,0%);fill-opacity:1;" d="M 101.964844 81.78125 C 102.558594 82.035156 103.171875 82.257812 103.8125 82.449219 C 104.425781 82.914062 104.316406 83.25 103.476562 83.453125 C 102.972656 83.285156 102.46875 83.117188 101.964844 82.953125 C 101.738281 82.621094 101.738281 82.234375 101.964844 81.78125 Z M 101.964844 81.78125 "/>
</g>
<mask id="mask34">
  <g filter="url(#alpha)">
<rect x="0" y="0" width="256" height="97" style="fill:rgb(0%,0%,0%);fill-opacity:0.721569;stroke:none;"/>
  </g>
</mask>
<clipPath id="clip35">
  <rect x="0" y="0" width="256" height="97"/>
</clipPath>
<g id="surface107" clip-path="url(#clip35)">
<path style=" stroke:none;fill-rule:evenodd;fill:rgb(0%,0%,0%);fill-opacity:1;" d="M 109.019531 82.117188 C 110.285156 81.960938 111.066406 82.464844 111.371094 83.621094 C 111.167969 84.699219 110.890625 85.761719 110.53125 86.796875 C 109.730469 87.113281 108.890625 87.222656 108.011719 87.132812 C 108.398438 85.46875 108.734375 83.796875 109.019531 82.117188 Z M 109.691406 83.453125 C 110.027344 83.445312 110.246094 83.609375 110.363281 83.957031 C 110.160156 84.816406 109.878906 85.65625 109.523438 86.464844 C 109.421875 85.457031 109.480469 84.453125 109.691406 83.453125 Z M 109.691406 83.453125 "/>
</g>
<mask id="mask35">
  <g filter="url(#alpha)">
<rect x="0" y="0" width="256" height="97" style="fill:rgb(0%,0%,0%);fill-opacity:0.698039;stroke:none;"/>
  </g>
</mask>
<clipPath id="clip36">
  <rect x="0" y="0" width="256" height="97"/>
</clipPath>
<g id="surface110" clip-path="url(#clip36)">
<path style=" stroke:none;fill-rule:evenodd;fill:rgb(0%,0%,0%);fill-opacity:1;" d="M 142.613281 82.449219 C 143.0625 82.449219 143.511719 82.449219 143.957031 82.449219 C 143.980469 84.160156 143.757812 85.832031 143.285156 87.46875 C 142.949219 87.910156 142.613281 87.910156 142.277344 87.46875 C 142.609375 86.257812 142.835938 85.035156 142.949219 83.789062 C 142.390625 83.789062 141.832031 83.789062 141.269531 83.789062 C 141.269531 83.453125 141.269531 83.117188 141.269531 82.785156 C 141.808594 82.875 142.253906 82.761719 142.613281 82.449219 Z M 142.613281 82.449219 "/>
</g>
<mask id="mask36">
  <g filter="url(#alpha)">
<rect x="0" y="0" width="256" height="97" style="fill:rgb(0%,0%,0%);fill-opacity:0.619608;stroke:none;"/>
  </g>
</mask>
<clipPath id="clip37">
  <rect x="0" y="0" width="256" height="97"/>
</clipPath>
<g id="surface113" clip-path="url(#clip37)">
<path style=" stroke:none;fill-rule:evenodd;fill:rgb(0%,0%,0%);fill-opacity:1;" d="M 150.339844 82.449219 C 151 82.601562 151.113281 82.933594 150.675781 83.453125 C 150.144531 83.835938 149.589844 84.003906 148.996094 83.957031 C 148.84375 83.816406 148.730469 83.652344 148.660156 83.453125 C 149.210938 83.050781 149.773438 82.71875 150.339844 82.449219 Z M 150.339844 82.449219 "/>
</g>
<mask id="mask37">
  <g filter="url(#alpha)">
<rect x="0" y="0" width="256" height="97" style="fill:rgb(0%,0%,0%);fill-opacity:0.690196;stroke:none;"/>
  </g>
</mask>
<clipPath id="clip38">
  <rect x="0" y="0" width="256" height="97"/>
</clipPath>
<g id="surface116" clip-path="url(#clip38)">
<path style=" stroke:none;fill-rule:evenodd;fill:rgb(0%,0%,0%);fill-opacity:1;" d="M 112.714844 82.785156 C 113.472656 83.023438 114.257812 83.136719 115.066406 83.117188 C 115.066406 83.453125 115.066406 83.789062 115.066406 84.121094 C 114.503906 84.121094 113.945312 84.121094 113.386719 84.121094 C 113.386719 84.457031 113.386719 84.792969 113.386719 85.125 C 114.007812 85.03125 114.453125 85.257812 114.730469 85.792969 C 114.207031 86.113281 113.652344 86.226562 113.050781 86.128906 C 113.050781 86.464844 113.050781 86.796875 113.050781 87.132812 C 113.585938 87.070312 114.039062 87.238281 114.394531 87.632812 C 113.691406 88.085938 112.90625 88.253906 112.042969 88.136719 C 112.136719 86.332031 112.359375 84.550781 112.714844 82.785156 Z M 112.714844 82.785156 "/>
</g>
<mask id="mask38">
  <g filter="url(#alpha)">
<rect x="0" y="0" width="256" height="97" style="fill:rgb(0%,0%,0%);fill-opacity:0.690196;stroke:none;"/>
  </g>
</mask>
<clipPath id="clip39">
  <rect x="0" y="0" width="256" height="97"/>
</clipPath>
<g id="surface119" clip-path="url(#clip39)">
<path style=" stroke:none;fill-rule:evenodd;fill:rgb(0%,0%,0%);fill-opacity:1;" d="M 138.246094 83.453125 C 138.992188 83.347656 139.609375 83.566406 140.09375 84.121094 C 140.570312 85.523438 140.625 86.917969 140.261719 88.304688 C 139.507812 88.589844 138.890625 88.425781 138.414062 87.800781 C 137.878906 86.351562 137.824219 84.898438 138.246094 83.453125 Z M 138.917969 84.457031 C 139.363281 85.386719 139.53125 86.390625 139.421875 87.46875 C 139.035156 86.5 138.867188 85.496094 138.917969 84.457031 Z M 138.917969 84.457031 "/>
</g>
<mask id="mask39">
  <g filter="url(#alpha)">
<rect x="0" y="0" width="256" height="97" style="fill:rgb(0%,0%,0%);fill-opacity:0.690196;stroke:none;"/>
  </g>
</mask>
<clipPath id="clip40">
  <rect x="0" y="0" width="256" height="97"/>
</clipPath>
<g id="surface122" clip-path="url(#clip40)">
<path style=" stroke:none;fill-rule:evenodd;fill:rgb(0%,0%,0%);fill-opacity:1;" d="M 117.753906 85.792969 C 118.625 86.746094 118.625 87.691406 117.753906 88.636719 C 116.296875 88.914062 115.625 88.304688 115.738281 86.796875 C 116.074219 86.796875 116.410156 86.796875 116.746094 86.796875 C 115.484375 84.746094 116.046875 83.796875 118.425781 83.957031 C 118.730469 84.523438 118.839844 85.136719 118.761719 85.792969 C 118.425781 85.792969 118.089844 85.792969 117.753906 85.792969 Z M 117.753906 85.792969 C 117.136719 85.582031 117.023438 85.246094 117.417969 84.792969 C 117.714844 85.066406 117.828125 85.398438 117.753906 85.792969 Z M 116.746094 86.796875 C 117.402344 86.949219 117.519531 87.285156 117.082031 87.800781 C 116.78125 87.527344 116.671875 87.191406 116.746094 86.796875 Z M 116.746094 86.796875 "/>
</g>
<mask id="mask40">
  <g filter="url(#alpha)">
<rect x="0" y="0" width="256" height="97" style="fill:rgb(0%,0%,0%);fill-opacity:0.690196;stroke:none;"/>
  </g>
</mask>
<clipPath id="clip41">
  <rect x="0" y="0" width="256" height="97"/>
</clipPath>
<g id="surface125" clip-path="url(#clip41)">
<path style=" stroke:none;fill-rule:evenodd;fill:rgb(0%,0%,0%);fill-opacity:1;" d="M 134.886719 83.789062 C 135.523438 83.722656 136.027344 83.941406 136.398438 84.457031 C 136.671875 85.792969 136.78125 87.132812 136.734375 88.46875 C 135.292969 89.394531 134.511719 88.949219 134.382812 87.132812 C 134.0625 85.910156 134.230469 84.796875 134.886719 83.789062 Z M 135.222656 85.125 C 135.621094 85.953125 135.789062 86.84375 135.726562 87.800781 C 135.265625 86.984375 135.097656 86.097656 135.222656 85.125 Z M 135.222656 85.125 "/>
</g>
<mask id="mask41">
  <g filter="url(#alpha)">
<rect x="0" y="0" width="256" height="97" style="fill:rgb(0%,0%,0%);fill-opacity:0.741176;stroke:none;"/>
  </g>
</mask>
<clipPath id="clip42">
  <rect x="0" y="0" width="256" height="97"/>
</clipPath>
<g id="surface128" clip-path="url(#clip42)">
<path style=" stroke:none;fill-rule:evenodd;fill:rgb(0%,0%,0%);fill-opacity:1;" d="M 120.105469 84.121094 C 121.726562 83.84375 122.511719 84.515625 122.457031 86.128906 C 122.394531 87.042969 122.226562 87.933594 121.953125 88.804688 C 121.265625 89.113281 120.539062 89.226562 119.769531 89.140625 C 119.738281 87.453125 119.851562 85.78125 120.105469 84.121094 Z M 120.777344 85.125 C 121.195312 85.402344 121.421875 85.851562 121.449219 86.464844 C 121.46875 87.097656 121.300781 87.65625 120.945312 88.136719 C 120.777344 87.140625 120.71875 86.136719 120.777344 85.125 Z M 120.777344 85.125 "/>
</g>
<mask id="mask42">
  <g filter="url(#alpha)">
<rect x="0" y="0" width="256" height="97" style="fill:rgb(0%,0%,0%);fill-opacity:0.690196;stroke:none;"/>
  </g>
</mask>
<clipPath id="clip43">
  <rect x="0" y="0" width="256" height="97"/>
</clipPath>
<g id="surface131" clip-path="url(#clip43)">
<path style=" stroke:none;fill-rule:evenodd;fill:rgb(0%,0%,0%);fill-opacity:1;" d="M 131.191406 84.121094 C 132.753906 84.371094 133.257812 85.261719 132.703125 86.796875 C 132.492188 87.289062 132.210938 87.734375 131.863281 88.136719 C 132.308594 88.359375 132.761719 88.582031 133.207031 88.804688 C 132.5 89.285156 131.714844 89.511719 130.855469 89.472656 C 131.21875 87.664062 131.441406 86.546875 131.527344 86.128906 C 131.191406 86.128906 130.855469 86.128906 130.519531 86.128906 C 130.4375 85.339844 130.660156 84.671875 131.191406 84.121094 Z M 131.191406 84.121094 "/>
</g>
<mask id="mask43">
  <g filter="url(#alpha)">
<rect x="0" y="0" width="256" height="97" style="fill:rgb(0%,0%,0%);fill-opacity:0.709804;stroke:none;"/>
  </g>
</mask>
<clipPath id="clip44">
  <rect x="0" y="0" width="256" height="97"/>
</clipPath>
<g id="surface134" clip-path="url(#clip44)">
<path style=" stroke:none;fill-rule:evenodd;fill:rgb(0%,0%,0%);fill-opacity:1;" d="M 123.800781 84.457031 C 124.582031 84.457031 125.371094 84.457031 126.152344 84.457031 C 126.152344 84.792969 126.152344 85.125 126.152344 85.460938 C 125.707031 85.460938 125.253906 85.460938 124.808594 85.460938 C 124.808594 85.792969 124.808594 86.128906 124.808594 86.464844 C 125.304688 86.375 125.753906 86.488281 126.152344 86.796875 C 125.757812 87.375 125.203125 87.59375 124.472656 87.46875 C 124.472656 87.800781 124.472656 88.136719 124.472656 88.46875 C 124.917969 88.46875 125.371094 88.46875 125.816406 88.46875 C 125.816406 88.804688 125.816406 89.140625 125.816406 89.472656 C 125.035156 89.472656 124.246094 89.472656 123.464844 89.472656 C 123.714844 87.816406 123.832031 86.144531 123.800781 84.457031 Z M 123.800781 84.457031 "/>
</g>
</defs>
<g id="surface1">
<use xlink:href="#surface5" mask="url(#mask0)"/>
<use xlink:href="#surface8" mask="url(#mask1)"/>
<use xlink:href="#surface11" mask="url(#mask2)"/>
<use xlink:href="#surface14" mask="url(#mask3)"/>
<use xlink:href="#surface17" mask="url(#mask4)"/>
<use xlink:href="#surface20" mask="url(#mask5)"/>
<use xlink:href="#surface23" mask="url(#mask6)"/>
<use xlink:href="#surface26" mask="url(#mask7)"/>
<use xlink:href="#surface29" mask="url(#mask8)"/>
<use xlink:href="#surface32" mask="url(#mask9)"/>
<use xlink:href="#surface35" mask="url(#mask10)"/>
<use xlink:href="#surface38" mask="url(#mask11)"/>
<use xlink:href="#surface41" mask="url(#mask12)"/>
<use xlink:href="#surface44" mask="url(#mask13)"/>
<use xlink:href="#surface47" mask="url(#mask14)"/>
<use xlink:href="#surface50" mask="url(#mask15)"/>
<use xlink:href="#surface53" mask="url(#mask16)"/>
<use xlink:href="#surface56" mask="url(#mask17)"/>
<use xlink:href="#surface59" mask="url(#mask18)"/>
<use xlink:href="#surface62" mask="url(#mask19)"/>
<use xlink:href="#surface65" mask="url(#mask20)"/>
<use xlink:href="#surface68" mask="url(#mask21)"/>
<use xlink:href="#surface71" mask="url(#mask22)"/>
<use xlink:href="#surface74" mask="url(#mask23)"/>
<use xlink:href="#surface77" mask="url(#mask24)"/>
<use xlink:href="#surface80" mask="url(#mask25)"/>
<use xlink:href="#surface83" mask="url(#mask26)"/>
<use xlink:href="#surface86" mask="url(#mask27)"/>
<use xlink:href="#surface89" mask="url(#mask28)"/>
<use xlink:href="#surface92" mask="url(#mask29)"/>
<use xlink:href="#surface95" mask="url(#mask30)"/>
<use xlink:href="#surface98" mask="url(#mask31)"/>
<use xlink:href="#surface101" mask="url(#mask32)"/>
<use xlink:href="#surface104" mask="url(#mask33)"/>
<use xlink:href="#surface107" mask="url(#mask34)"/>
<use xlink:href="#surface110" mask="url(#mask35)"/>
<use xlink:href="#surface113" mask="url(#mask36)"/>
<use xlink:href="#surface116" mask="url(#mask37)"/>
<use xlink:href="#surface119" mask="url(#mask38)"/>
<use xlink:href="#surface122" mask="url(#mask39)"/>
<use xlink:href="#surface125" mask="url(#mask40)"/>
<use xlink:href="#surface128" mask="url(#mask41)"/>
<use xlink:href="#surface131" mask="url(#mask42)"/>
<use xlink:href="#surface134" mask="url(#mask43)"/>
</g>
</svg>
