<?xml version="1.0" encoding="UTF-8"?>
<svg xmlns="http://www.w3.org/2000/svg" xmlns:xlink="http://www.w3.org/1999/xlink" width="256px" height="256px" viewBox="0 0 256 256" version="1.1">
<defs>
<filter id="alpha" filterUnits="objectBoundingBox" x="0%" y="0%" width="100%" height="100%">
  <feColorMatrix type="matrix" in="SourceGraphic" values="0 0 0 0 1 0 0 0 0 1 0 0 0 0 1 0 0 0 1 0"/>
</filter>
<mask id="mask0">
  <g filter="url(#alpha)">
<rect x="0" y="0" width="256" height="256" style="fill:rgb(0%,0%,0%);fill-opacity:0.964706;stroke:none;"/>
  </g>
</mask>
<clipPath id="clip1">
  <rect x="0" y="0" width="256" height="256"/>
</clipPath>
<g id="surface5" clip-path="url(#clip1)">
<path style=" stroke:none;fill-rule:evenodd;fill:rgb(0%,49.803922%,28.235295%);fill-opacity:1;" d="M 96.203125 82.109375 C 105.601562 82.054688 115 82.109375 124.394531 82.273438 C 127.800781 83.238281 129.167969 85.476562 128.492188 88.992188 C 127.800781 90.949219 126.433594 92.097656 124.394531 92.433594 C 121.335938 92.597656 118.277344 92.652344 115.214844 92.597656 C 115.269531 103.960938 115.214844 115.328125 115.050781 126.6875 C 113.285156 129.9375 110.714844 130.757812 107.347656 129.148438 C 106.097656 128.332031 105.386719 127.183594 105.21875 125.707031 C 105.054688 114.671875 105 103.636719 105.054688 92.597656 C 102.101562 92.652344 99.152344 92.597656 96.203125 92.433594 C 92.214844 91.28125 90.957031 88.714844 92.433594 84.730469 C 93.398438 83.378906 94.65625 82.503906 96.203125 82.109375 Z M 96.203125 82.109375 "/>
</g>
<mask id="mask1">
  <g filter="url(#alpha)">
<rect x="0" y="0" width="256" height="256" style="fill:rgb(0%,0%,0%);fill-opacity:0.984314;stroke:none;"/>
  </g>
</mask>
<clipPath id="clip2">
  <rect x="0" y="0" width="256" height="256"/>
</clipPath>
<g id="surface8" clip-path="url(#clip2)">
<path style=" stroke:none;fill-rule:evenodd;fill:rgb(0%,49.411765%,28.235295%);fill-opacity:1;" d="M 45.398438 125.050781 C 44.917969 125.363281 44.480469 125.746094 44.085938 126.195312 C 47.433594 129.925781 50.710938 133.695312 53.921875 137.503906 C 53.921875 137.722656 54.03125 137.832031 54.25 137.832031 C 54.25 138.050781 54.359375 138.160156 54.578125 138.160156 C 54.578125 138.378906 54.683594 138.488281 54.902344 138.488281 C 57.847656 142.40625 60.636719 146.449219 63.261719 150.617188 C 64.980469 153.148438 65.910156 155.933594 66.046875 158.976562 C 65.472656 165.125 62.085938 168.621094 55.886719 169.464844 C 54.578125 169.683594 53.265625 169.683594 51.953125 169.464844 C 50.566406 169.015625 49.199219 168.523438 47.855469 167.988281 C 46.980469 168.207031 46.269531 168.699219 45.726562 169.464844 C 44.304688 170.121094 42.886719 170.121094 41.464844 169.464844 C 40.71875 168.824219 39.898438 168.332031 39.007812 167.988281 C 34.03125 170.386719 29.277344 170.007812 24.746094 166.84375 C 20.84375 162.949219 19.914062 158.414062 21.960938 153.238281 C 25.144531 146.648438 29.296875 140.75 34.417969 135.539062 C 34.636719 135.320312 34.636719 135.101562 34.417969 134.882812 C 29.917969 138.523438 25.277344 141.96875 20.488281 145.207031 C 17.65625 147.007812 14.597656 148.15625 11.308594 148.652344 C 5.0625 148.140625 1.511719 144.753906 0.65625 138.488281 C 0.160156 135.574219 0.652344 132.84375 2.128906 130.292969 C 1.839844 129.507812 1.347656 128.851562 0.65625 128.328125 C 0 126.796875 0 125.269531 0.65625 123.738281 C 1.222656 123.011719 1.714844 122.246094 2.128906 121.445312 C -0.574219 115.578125 0.296875 110.277344 4.753906 105.546875 C 8.355469 103.273438 12.179688 102.835938 16.226562 104.234375 C 23.019531 107.523438 29.136719 111.785156 34.582031 117.019531 C 34.800781 117.238281 35.019531 117.238281 35.238281 117.019531 C 30.390625 111.40625 26.183594 105.34375 22.617188 98.828125 C 19.734375 88.921875 23.449219 83.570312 33.761719 82.765625 C 35.863281 82.683594 37.777344 83.230469 39.5 84.40625 C 40.429688 83.75 41.414062 83.148438 42.449219 82.601562 C 43.429688 82.382812 44.414062 82.382812 45.398438 82.601562 C 46.433594 83.148438 47.417969 83.75 48.347656 84.40625 C 53.195312 82.035156 57.894531 82.308594 62.441406 85.222656 C 66.324219 88.671875 67.472656 92.878906 65.882812 97.84375 C 63.484375 103.1875 60.425781 108.105469 56.707031 112.59375 C 53.011719 116.820312 49.242188 120.96875 45.398438 125.050781 Z M 45.398438 125.050781 "/>
</g>
<mask id="mask2">
  <g filter="url(#alpha)">
<rect x="0" y="0" width="256" height="256" style="fill:rgb(0%,0%,0%);fill-opacity:0.968627;stroke:none;"/>
  </g>
</mask>
<clipPath id="clip3">
  <rect x="0" y="0" width="256" height="256"/>
</clipPath>
<g id="surface11" clip-path="url(#clip3)">
<path style=" stroke:none;fill-rule:evenodd;fill:rgb(0%,49.803922%,28.235295%);fill-opacity:1;" d="M 166.023438 93.582031 C 174.765625 93.753906 180.9375 97.796875 184.542969 105.710938 C 185.804688 108.652344 185.914062 111.601562 184.871094 114.5625 C 184.269531 114.941406 183.667969 115.324219 183.066406 115.707031 C 175.867188 116.074219 168.65625 116.34375 161.433594 116.527344 C 163.125 119.148438 165.527344 120.296875 168.644531 119.96875 C 170.300781 119.34375 171.992188 118.851562 173.726562 118.496094 C 176.714844 118.863281 178.410156 120.554688 178.808594 123.574219 C 178.417969 126.316406 176.890625 128.0625 174.21875 128.820312 C 163.230469 131.765625 155.308594 128.105469 150.453125 117.839844 C 147.855469 107.027344 151.625 99.324219 161.761719 94.730469 C 163.210938 94.285156 164.628906 93.902344 166.023438 93.582031 Z M 165.695312 103.742188 C 169.28125 103.113281 172.011719 104.316406 173.890625 107.347656 C 169.632812 107.730469 165.371094 107.785156 161.105469 107.511719 C 162.222656 105.679688 163.753906 104.421875 165.695312 103.742188 Z M 165.695312 103.742188 "/>
</g>
<mask id="mask3">
  <g filter="url(#alpha)">
<rect x="0" y="0" width="256" height="256" style="fill:rgb(0%,0%,0%);fill-opacity:0.964706;stroke:none;"/>
  </g>
</mask>
<clipPath id="clip4">
  <rect x="0" y="0" width="256" height="256"/>
</clipPath>
<g id="surface14" clip-path="url(#clip4)">
<path style=" stroke:none;fill-rule:evenodd;fill:rgb(0%,49.803922%,28.235295%);fill-opacity:1;" d="M 190.277344 93.582031 C 192.234375 93.332031 193.929688 93.878906 195.359375 95.222656 C 197.828125 100.328125 200.230469 105.464844 202.570312 110.628906 C 204.789062 105.375 207.136719 100.183594 209.617188 95.058594 C 212.917969 92.75 215.703125 93.242188 217.976562 96.53125 C 218.617188 98.574219 218.398438 100.542969 217.320312 102.433594 C 213.890625 111.039062 210.285156 119.5625 206.503906 128 C 203.773438 130.621094 201.042969 130.621094 198.308594 128 C 194.046875 118.269531 190.058594 108.4375 186.347656 98.5 C 186.703125 96.066406 188.015625 94.429688 190.277344 93.582031 Z M 190.277344 93.582031 "/>
</g>
<mask id="mask4">
  <g filter="url(#alpha)">
<rect x="0" y="0" width="256" height="256" style="fill:rgb(0%,0%,0%);fill-opacity:0.968627;stroke:none;"/>
  </g>
</mask>
<clipPath id="clip5">
  <rect x="0" y="0" width="256" height="256"/>
</clipPath>
<g id="surface17" clip-path="url(#clip5)">
<path style=" stroke:none;fill-rule:evenodd;fill:rgb(0%,49.803922%,28.235295%);fill-opacity:1;" d="M 141.113281 93.910156 C 146.941406 93.019531 149.398438 95.425781 148.488281 101.121094 C 147.996094 101.832031 147.394531 102.433594 146.683594 102.925781 C 144.878906 103.546875 143.019531 103.984375 141.113281 104.234375 C 138.347656 105.359375 136.65625 107.382812 136.03125 110.300781 C 135.921875 115.761719 135.8125 121.226562 135.703125 126.6875 C 133.980469 130.039062 131.414062 130.859375 128 129.148438 C 127.136719 128.503906 126.535156 127.683594 126.195312 126.6875 C 125.886719 120.117188 125.996094 113.558594 126.523438 107.023438 C 128.992188 99.972656 133.855469 95.601562 141.113281 93.910156 Z M 141.113281 93.910156 "/>
</g>
<mask id="mask5">
  <g filter="url(#alpha)">
<rect x="0" y="0" width="256" height="256" style="fill:rgb(0%,0%,0%);fill-opacity:0.968627;stroke:none;"/>
  </g>
</mask>
<clipPath id="clip6">
  <rect x="0" y="0" width="256" height="256"/>
</clipPath>
<g id="surface20" clip-path="url(#clip6)">
<path style=" stroke:none;fill-rule:evenodd;fill:rgb(0%,49.803922%,28.235295%);fill-opacity:1;" d="M 234.203125 93.910156 C 244.644531 93.054688 251.582031 97.535156 255.015625 107.347656 C 256.699219 116.933594 253.253906 123.980469 244.691406 128.492188 C 236.632812 131.324219 229.582031 129.742188 223.550781 123.738281 C 218.210938 116.0625 218.101562 108.304688 223.222656 100.464844 C 226.28125 97.21875 229.941406 95.03125 234.203125 93.910156 Z M 235.511719 103.742188 C 240.925781 103.316406 244.257812 105.71875 245.511719 110.957031 C 245.625 115.691406 243.386719 118.695312 238.792969 119.96875 C 233.855469 120.28125 230.742188 118.042969 229.449219 113.25 C 229.152344 108.578125 231.175781 105.410156 235.511719 103.742188 Z M 235.511719 103.742188 "/>
</g>
<mask id="mask6">
  <g filter="url(#alpha)">
<rect x="0" y="0" width="256" height="256" style="fill:rgb(0%,0%,0%);fill-opacity:0.984314;stroke:none;"/>
  </g>
</mask>
<clipPath id="clip7">
  <rect x="0" y="0" width="256" height="256"/>
</clipPath>
<g id="surface23" clip-path="url(#clip7)">
<path style=" stroke:none;fill-rule:evenodd;fill:rgb(92.54902%,10.980392%,14.117648%);fill-opacity:1;" d="M 54.902344 138.488281 C 54.683594 138.488281 54.578125 138.378906 54.578125 138.160156 C 54.359375 138.160156 54.25 138.050781 54.25 137.832031 C 54.03125 137.832031 53.921875 137.722656 53.921875 137.503906 C 50.710938 133.695312 47.433594 129.925781 44.085938 126.195312 C 44.480469 125.746094 44.917969 125.363281 45.398438 125.050781 C 47.417969 124.070312 49.222656 122.761719 50.808594 121.117188 C 53.800781 117.148438 56.917969 113.269531 60.148438 109.480469 C 63.136719 106.566406 66.632812 104.488281 70.636719 103.253906 C 77.53125 102.0625 82.171875 104.738281 84.570312 111.28125 C 85.183594 115.679688 83.816406 119.339844 80.472656 122.265625 C 89.074219 126.007812 91.316406 132.070312 87.191406 140.457031 C 83.535156 144.226562 79.054688 146.082031 73.75 146.027344 C 68.777344 145.789062 64.132812 144.425781 59.820312 141.929688 C 58.214844 140.703125 56.578125 139.554688 54.902344 138.488281 Z M 54.902344 138.488281 "/>
</g>
<mask id="mask7">
  <g filter="url(#alpha)">
<rect x="0" y="0" width="256" height="256" style="fill:rgb(0%,0%,0%);fill-opacity:0.92549;stroke:none;"/>
  </g>
</mask>
<clipPath id="clip8">
  <rect x="0" y="0" width="256" height="256"/>
</clipPath>
<g id="surface26" clip-path="url(#clip8)">
<path style=" stroke:none;fill-rule:evenodd;fill:rgb(0%,49.803922%,28.235295%);fill-opacity:1;" d="M 217.8125 140.457031 C 219.5625 140.457031 221.308594 140.457031 223.058594 140.457031 C 223.058594 148.867188 223.058594 157.28125 223.058594 165.695312 C 221.308594 165.695312 219.5625 165.695312 217.8125 165.695312 C 217.8125 157.28125 217.8125 148.867188 217.8125 140.457031 Z M 217.8125 140.457031 "/>
</g>
<mask id="mask8">
  <g filter="url(#alpha)">
<rect x="0" y="0" width="256" height="256" style="fill:rgb(0%,0%,0%);fill-opacity:0.92549;stroke:none;"/>
  </g>
</mask>
<clipPath id="clip9">
  <rect x="0" y="0" width="256" height="256"/>
</clipPath>
<g id="surface29" clip-path="url(#clip9)">
<path style=" stroke:none;fill-rule:evenodd;fill:rgb(0%,49.803922%,28.235295%);fill-opacity:1;" d="M 226.335938 140.457031 C 228.082031 140.457031 229.832031 140.457031 231.578125 140.457031 C 231.578125 148.867188 231.578125 157.28125 231.578125 165.695312 C 229.832031 165.695312 228.082031 165.695312 226.335938 165.695312 C 226.335938 157.28125 226.335938 148.867188 226.335938 140.457031 Z M 226.335938 140.457031 "/>
</g>
<mask id="mask9">
  <g filter="url(#alpha)">
<rect x="0" y="0" width="256" height="256" style="fill:rgb(0%,0%,0%);fill-opacity:0.933333;stroke:none;"/>
  </g>
</mask>
<clipPath id="clip10">
  <rect x="0" y="0" width="256" height="256"/>
</clipPath>
<g id="surface32" clip-path="url(#clip10)">
<path style=" stroke:none;fill-rule:evenodd;fill:rgb(0%,49.803922%,28.235295%);fill-opacity:1;" d="M 116.855469 142.09375 C 120.136719 142.039062 123.414062 142.09375 126.6875 142.257812 C 135.550781 143.144531 139.429688 148.007812 138.324219 156.84375 C 136.832031 161.832031 133.5 164.726562 128.328125 165.53125 C 124.503906 165.695312 120.679688 165.75 116.855469 165.695312 C 116.855469 157.828125 116.855469 149.960938 116.855469 142.09375 Z M 122.425781 147.339844 C 125.160156 147.070312 127.78125 147.453125 130.292969 148.488281 C 132.90625 150.769531 133.613281 153.554688 132.425781 156.84375 C 132.136719 157.699219 131.644531 158.410156 130.949219 158.976562 C 128.3125 160.507812 125.46875 161.109375 122.425781 160.777344 C 122.425781 156.296875 122.425781 151.820312 122.425781 147.339844 Z M 122.425781 147.339844 "/>
</g>
<mask id="mask10">
  <g filter="url(#alpha)">
<rect x="0" y="0" width="256" height="256" style="fill:rgb(0%,0%,0%);fill-opacity:0.933333;stroke:none;"/>
  </g>
</mask>
<clipPath id="clip11">
  <rect x="0" y="0" width="256" height="256"/>
</clipPath>
<g id="surface35" clip-path="url(#clip11)">
<path style=" stroke:none;fill-rule:evenodd;fill:rgb(0%,49.803922%,28.235295%);fill-opacity:1;" d="M 150.289062 148.976562 C 151.039062 148.894531 151.75 149.003906 152.421875 149.304688 C 152.582031 150.832031 152.636719 152.359375 152.582031 153.894531 C 150.609375 153.296875 148.804688 153.625 147.175781 154.878906 C 146.894531 155.398438 146.675781 155.945312 146.519531 156.515625 C 146.355469 159.574219 146.300781 162.632812 146.355469 165.695312 C 144.609375 165.695312 142.859375 165.695312 141.113281 165.695312 C 141.113281 160.339844 141.113281 154.988281 141.113281 149.632812 C 142.859375 149.632812 144.609375 149.632812 146.355469 149.632812 C 146.304688 150.296875 146.359375 150.953125 146.519531 151.601562 C 147.332031 150.023438 148.589844 149.152344 150.289062 148.976562 Z M 150.289062 148.976562 "/>
</g>
<mask id="mask11">
  <g filter="url(#alpha)">
<rect x="0" y="0" width="256" height="256" style="fill:rgb(0%,0%,0%);fill-opacity:0.92549;stroke:none;"/>
  </g>
</mask>
<clipPath id="clip12">
  <rect x="0" y="0" width="256" height="256"/>
</clipPath>
<g id="surface38" clip-path="url(#clip12)">
<path style=" stroke:none;fill-rule:evenodd;fill:rgb(0%,49.803922%,28.235295%);fill-opacity:1;" d="M 206.011719 148.976562 C 209.027344 148.648438 211.59375 149.523438 213.714844 151.601562 C 214.175781 152.539062 214.503906 153.523438 214.699219 154.550781 C 214.863281 158.265625 214.917969 161.980469 214.863281 165.695312 C 213.328125 165.75 211.800781 165.695312 210.273438 165.53125 C 210.046875 165.179688 209.882812 164.800781 209.78125 164.382812 C 207.015625 166.386719 204.121094 166.546875 201.097656 164.875 C 199.554688 163.261719 199.0625 161.351562 199.621094 159.140625 C 200.679688 157.105469 202.371094 155.957031 204.703125 155.699219 C 206.449219 155.511719 208.199219 155.347656 209.945312 155.207031 C 209.613281 153.726562 208.683594 152.851562 207.160156 152.582031 C 205.609375 152.839844 204.242188 153.496094 203.0625 154.550781 C 202.195312 153.847656 201.375 153.082031 200.605469 152.257812 C 200.550781 151.636719 200.824219 151.144531 201.421875 150.78125 C 202.90625 149.945312 204.433594 149.34375 206.011719 148.976562 Z M 206.339844 158.8125 C 207.667969 158.707031 208.980469 158.816406 210.273438 159.140625 C 209.726562 161.820312 208.089844 162.859375 205.355469 162.253906 C 204.507812 161.753906 204.234375 161.042969 204.539062 160.121094 C 205.132812 159.640625 205.734375 159.203125 206.339844 158.8125 Z M 206.339844 158.8125 "/>
</g>
<mask id="mask12">
  <g filter="url(#alpha)">
<rect x="0" y="0" width="256" height="256" style="fill:rgb(0%,0%,0%);fill-opacity:0.937255;stroke:none;"/>
  </g>
</mask>
<clipPath id="clip13">
  <rect x="0" y="0" width="256" height="256"/>
</clipPath>
<g id="surface41" clip-path="url(#clip13)">
<path style=" stroke:none;fill-rule:evenodd;fill:rgb(0%,49.803922%,28.235295%);fill-opacity:1;" d="M 152.910156 149.960938 C 154.710938 149.582031 156.566406 149.53125 158.484375 149.796875 C 159.808594 153.042969 161.171875 156.269531 162.582031 159.46875 C 163.71875 156.214844 164.757812 152.9375 165.695312 149.632812 C 169.308594 149.523438 172.914062 149.632812 176.511719 149.960938 C 177.390625 152.980469 178.429688 155.929688 179.625 158.8125 C 180.546875 155.773438 181.367188 152.714844 182.085938 149.632812 C 184.050781 149.632812 186.019531 149.632812 187.984375 149.632812 C 188.710938 152.765625 189.640625 155.824219 190.769531 158.8125 C 191.695312 155.875 192.570312 152.925781 193.394531 149.960938 C 195.179688 149.535156 196.980469 149.535156 198.800781 149.960938 C 196.90625 154.953125 195.105469 159.976562 193.394531 165.039062 C 192.554688 165.457031 191.628906 165.675781 190.605469 165.695312 C 189.734375 165.585938 188.859375 165.476562 187.984375 165.367188 C 186.914062 162.101562 185.875 158.824219 184.871094 155.535156 C 183.789062 158.878906 182.859375 162.265625 182.085938 165.695312 C 180.226562 165.695312 178.371094 165.695312 176.511719 165.695312 C 174.808594 160.535156 173.007812 155.398438 171.105469 150.289062 C 168.328125 157.585938 165.378906 164.796875 162.253906 171.921875 C 161.472656 172.703125 160.542969 173.195312 159.46875 173.398438 C 157.476562 173.660156 155.511719 173.550781 153.566406 173.070312 C 153.394531 172.886719 153.285156 172.667969 153.238281 172.414062 C 153.554688 171.167969 153.828125 169.910156 154.058594 168.644531 C 157.171875 169.992188 159.082031 169.011719 159.796875 165.695312 C 157.621094 160.363281 155.324219 155.121094 152.910156 149.960938 Z M 152.910156 149.960938 "/>
</g>
</defs>
<g id="surface1">
<use xlink:href="#surface5" mask="url(#mask0)"/>
<use xlink:href="#surface8" mask="url(#mask1)"/>
<use xlink:href="#surface11" mask="url(#mask2)"/>
<use xlink:href="#surface14" mask="url(#mask3)"/>
<use xlink:href="#surface17" mask="url(#mask4)"/>
<use xlink:href="#surface20" mask="url(#mask5)"/>
<use xlink:href="#surface23" mask="url(#mask6)"/>
<use xlink:href="#surface26" mask="url(#mask7)"/>
<use xlink:href="#surface29" mask="url(#mask8)"/>
<use xlink:href="#surface32" mask="url(#mask9)"/>
<use xlink:href="#surface35" mask="url(#mask10)"/>
<use xlink:href="#surface38" mask="url(#mask11)"/>
<use xlink:href="#surface41" mask="url(#mask12)"/>
</g>
</svg>
